<svg xmlns="http://www.w3.org/2000/svg" width="296" height="305" viewBox="0 0 296 305">
  <g id="Group_87" data-name="Group 87" transform="translate(0 0)">
    <g id="add-tool" transform="translate(0 0)">
      <g id="Group_7" data-name="Group 7">
        <path id="Path_1" data-name="Path 1" d="M8.6,0C3.86,0,0,4.139,0,9.225s3.86,9.224,8.6,9.224,8.6-4.138,8.6-9.224S13.349,0,8.6,0Zm0,16.935A7.475,7.475,0,0,1,1.411,9.225,7.475,7.475,0,0,1,8.6,1.513,7.475,7.475,0,0,1,15.8,9.225,7.475,7.475,0,0,1,8.6,16.936Z" transform="translate(0 -0.001)" fill="#ce1919"/>
        <path id="Path_2" data-name="Path 2" d="M75.506,70.95H72.064V67.261a.707.707,0,1,0-1.411,0V70.95H67.212a.758.758,0,0,0,0,1.512h3.442v3.689a.707.707,0,1,0,1.411,0V72.462h3.442a.758.758,0,0,0,0-1.512Z" transform="translate(-62.754 -62.483)" fill="#ce1919"/>
      </g>
    </g>
    <g id="alarm-clock" transform="translate(30.977 0)">
      <g id="Group_8" data-name="Group 8" transform="translate(0)">
        <path id="Path_3" data-name="Path 3" d="M16.786,32.549c-.805-1.684-2.505-2.27-3.868-1.378a6.283,6.283,0,0,0-4.313-1.8,6.283,6.283,0,0,0-4.313,1.8c-1.362-.892-3.062-.305-3.868,1.378a4.331,4.331,0,0,0,.968,5.086q-.034.443-.035.9a10.391,10.391,0,0,0,2.307,6.7L2.571,46.611a.843.843,0,0,0,0,1,.48.48,0,0,0,.788,0L4.54,46.115A6.21,6.21,0,0,0,8.6,47.7a6.21,6.21,0,0,0,4.065-1.581l1.181,1.493a.48.48,0,0,0,.789,0,.843.843,0,0,0,0-1L13.546,45.23a10.391,10.391,0,0,0,2.307-6.7q0-.454-.035-.9A4.331,4.331,0,0,0,16.786,32.549Zm-15.408.73a1.7,1.7,0,0,1,1.973-1.055,9.993,9.993,0,0,0-1.729,3.848A2.794,2.794,0,0,1,1.378,33.279ZM8.6,46.286c-3.382,0-6.133-3.479-6.133-7.755S5.223,30.777,8.6,30.777s6.133,3.479,6.133,7.755S11.986,46.286,8.6,46.286Zm6.982-10.214a9.991,9.991,0,0,0-1.729-3.848,1.7,1.7,0,0,1,1.973,1.055A2.794,2.794,0,0,1,15.587,36.072Z" transform="translate(0 -29.367)" fill="#ce1919"/>
        <path id="Path_4" data-name="Path 4" d="M181.572,81.922V76.271a.573.573,0,1,0-1.115,0v6.356a.644.644,0,0,0,.558.7h4.123a.724.724,0,0,0,0-1.41Z" transform="translate(-172.408 -72.96)" fill="#ce1919"/>
      </g>
    </g>
    <g id="arrow-pointing-to-down" transform="translate(61.953 0)">
      <path id="Path_5" data-name="Path 5" d="M58.783,11.494a1.471,1.471,0,0,0-1.644,0l-5.457,4.025V.858c0-.474-.521-.858-1.163-.858s-1.163.384-1.163.858V15.519L43.9,11.494a1.471,1.471,0,0,0-1.644,0,.71.71,0,0,0,0,1.213L49.7,18.2a1.471,1.471,0,0,0,1.644,0l7.442-5.49A.71.71,0,0,0,58.783,11.494Z" transform="translate(-41.915 0)" fill="#ce1919"/>
    </g>
    <g id="arrow-pointing-to-left" transform="translate(92.93 0)">
      <path id="Path_6" data-name="Path 6" d="M16.409,49.894H2.732l3.755-5.849a1.774,1.774,0,0,0,0-1.763.621.621,0,0,0-1.132,0L.234,50.259a1.774,1.774,0,0,0,0,1.763L5.355,60a.692.692,0,0,0,.566.365A.693.693,0,0,0,6.487,60a1.774,1.774,0,0,0,0-1.763L2.732,52.386H16.409c.442,0,.8-.558.8-1.246S16.851,49.894,16.409,49.894Z" transform="translate(0 -41.916)" fill="#ce1919"/>
    </g>
    <g id="arrow-pointing-to-right" transform="translate(125.054 0)">
      <path id="Path_7" data-name="Path 7" d="M16.975,50.259l-5.121-7.977a.621.621,0,0,0-1.132,0,1.774,1.774,0,0,0,0,1.763l3.755,5.849H.8c-.442,0-.8.558-.8,1.246s.358,1.246.8,1.246H14.477l-3.755,5.849a1.774,1.774,0,0,0,0,1.763.621.621,0,0,0,1.132,0l5.121-7.977A1.774,1.774,0,0,0,16.975,50.259Z" transform="translate(0 -41.916)" fill="#ce1919"/>
    </g>
    <g id="arrow-pointing-to-up" transform="translate(156.031 0)">
      <path id="Path_8" data-name="Path 8" d="M58.783,5.741,51.342.251a1.471,1.471,0,0,0-1.644,0l-7.442,5.49a.71.71,0,0,0,0,1.213,1.471,1.471,0,0,0,1.644,0l5.457-4.025V17.59c0,.474.521.858,1.163.858s1.163-.384,1.163-.858V2.929l5.457,4.025a1.471,1.471,0,0,0,1.644,0A.71.71,0,0,0,58.783,5.741Z" transform="translate(-41.915 0)" fill="#ce1919"/>
    </g>
    <g id="bar-chart" transform="translate(187.008)">
      <g id="Group_12" data-name="Group 12">
        <g id="Group_9" data-name="Group 9" transform="translate(0 7.8)">
          <path id="Path_9" data-name="Path 9" d="M3.746,150.115H.667A.751.751,0,0,1,0,149.3v-9.023a.75.75,0,0,1,.667-.812H3.746a.75.75,0,0,1,.667.812V149.3A.75.75,0,0,1,3.746,150.115ZM1.333,148.49H3.079v-7.4H1.333Z" transform="translate(0 -139.467)" fill="#ce1919"/>
        </g>
        <g id="Group_10" data-name="Group 10" transform="translate(6.399)">
          <path id="Path_10" data-name="Path 10" d="M123.746,37.915h-3.079A.75.75,0,0,1,120,37.1V20.279a.75.75,0,0,1,.667-.812h3.079a.751.751,0,0,1,.667.812V37.1A.75.75,0,0,1,123.746,37.915Zm-2.413-1.625h1.746v-15.2h-1.746v15.2Z" transform="translate(-120 -19.467)" fill="#ce1919"/>
        </g>
        <g id="Group_11" data-name="Group 11" transform="translate(12.797 2.34)">
          <path id="Path_11" data-name="Path 11" d="M243.746,71.575h-3.079a.75.75,0,0,1-.667-.812V56.279a.75.75,0,0,1,.667-.812h3.079a.75.75,0,0,1,.667.812V70.762A.75.75,0,0,1,243.746,71.575Zm-2.413-1.625h1.746V57.092h-1.746Z" transform="translate(-240 -55.467)" fill="#ce1919"/>
        </g>
      </g>
    </g>
    <g id="battery-charging" transform="translate(216.837 0)">
      <g id="Group_13" data-name="Group 13">
        <path id="Path_12" data-name="Path 12" d="M86.308,152.287l-5.066-4.4c-.172-.15-.372-.11-.526.105a1.605,1.605,0,0,0-.225.945l.2,5.346-4.085-2.054c-.287-.144-.579.2-.652.767a1.351,1.351,0,0,0,.388,1.29l4.808,2.418a.291.291,0,0,0,.132.033.43.43,0,0,0,.345-.248,1.682,1.682,0,0,0,.19-.892l-.191-5.056,4.248,3.689c.271.236.588-.008.707-.545A1.6,1.6,0,0,0,86.308,152.287Z" transform="translate(-72.68 -143.044)" fill="#ce1919"/>
        <path id="Path_13" data-name="Path 13" d="M16.351,97.55V94.566c0-1.522-.626-2.759-1.4-2.759H1.4c-.769,0-1.4,1.238-1.4,2.759V107.5c0,1.522.626,2.759,1.4,2.759h13.56c.769,0,1.4-1.238,1.4-2.759v-2.983c.482-.106.859-.917.859-1.9V99.448C17.209,98.467,16.833,97.656,16.351,97.55ZM15.278,107.5c0,.351-.144.637-.322.637H1.4c-.178,0-.322-.286-.322-.637V94.566c0-.351.144-.637.322-.637h13.56c.178,0,.322.286.322.637V107.5Z" transform="translate(0 -91.807)" fill="#ce1919"/>
      </g>
    </g>
    <g id="battery-level-1" transform="translate(247.814 0)">
      <g id="Group_14" data-name="Group 14">
        <path id="Path_14" data-name="Path 14" d="M16.351,97.55V94.566c0-1.522-.626-2.759-1.4-2.759H1.4c-.769,0-1.4,1.238-1.4,2.759V107.5c0,1.522.626,2.759,1.4,2.759h13.56c.769,0,1.4-1.238,1.4-2.759v-2.983c.482-.106.859-.917.859-1.9V99.448C17.209,98.467,16.833,97.656,16.351,97.55ZM15.278,107.5c0,.351-.144.637-.322.637H1.4c-.178,0-.322-.286-.322-.637V94.566c0-.351.144-.637.322-.637h13.56c.178,0,.322.286.322.637V107.5Z" transform="translate(0 -91.807)" fill="#ce1919"/>
        <path id="Path_15" data-name="Path 15" d="M73.479,146.157c-.3,0-.537.475-.537,1.061v7.1c0,.586.24,1.061.537,1.061s.537-.475.537-1.061v-7.1C74.015,146.632,73.775,146.157,73.479,146.157Z" transform="translate(-69.811 -141.542)" fill="#ce1919"/>
        <path id="Path_16" data-name="Path 16" d="M143.479,146.157c-.3,0-.537.475-.537,1.061v7.1c0,.586.24,1.061.537,1.061s.537-.475.537-1.061v-7.1C144.015,146.632,143.775,146.157,143.479,146.157Z" transform="translate(-136.806 -141.542)" fill="#ce1919"/>
        <path id="Path_17" data-name="Path 17" d="M213.478,146.157c-.3,0-.537.475-.537,1.061v7.1c0,.586.24,1.061.537,1.061s.537-.475.537-1.061v-7.1C214.014,146.632,213.774,146.157,213.478,146.157Z" transform="translate(-203.8 -141.542)" fill="#ce1919"/>
        <path id="Path_18" data-name="Path 18" d="M283.478,146.157c-.3,0-.537.475-.537,1.061v7.1c0,.586.24,1.061.537,1.061s.537-.475.537-1.061v-7.1C284.014,146.632,283.774,146.157,283.478,146.157Z" transform="translate(-270.795 -141.542)" fill="#ce1919"/>
      </g>
    </g>
    <g id="battery-level-2" transform="translate(278.791 0)">
      <path id="Path_19" data-name="Path 19" d="M16.351,97.55V94.566c0-1.522-.626-2.759-1.4-2.759H1.4c-.769,0-1.4,1.238-1.4,2.759V107.5c0,1.522.626,2.759,1.4,2.759h13.56c.769,0,1.4-1.238,1.4-2.759v-2.983c.482-.106.859-.917.859-1.9V99.448C17.209,98.467,16.833,97.656,16.351,97.55ZM15.278,107.5c0,.351-.144.637-.322.637H1.4c-.178,0-.322-.286-.322-.637V94.566c0-.351.144-.637.322-.637h13.56c.178,0,.322.286.322.637V107.5Z" transform="translate(0 -91.807)" fill="#ce1919"/>
    </g>
    <g id="battery-level" transform="translate(0 31.976)">
      <g id="Group_15" data-name="Group 15">
        <path id="Path_20" data-name="Path 20" d="M16.351,97.55V94.566c0-1.522-.626-2.759-1.4-2.759H1.4c-.769,0-1.4,1.238-1.4,2.759V107.5c0,1.522.626,2.759,1.4,2.759h13.56c.769,0,1.4-1.238,1.4-2.759v-2.983c.482-.106.859-.917.859-1.9V99.448C17.209,98.467,16.833,97.656,16.351,97.55ZM15.278,107.5c0,.351-.144.637-.322.637H1.4c-.178,0-.322-.286-.322-.637V94.566c0-.351.144-.637.322-.637h13.56c.178,0,.322.286.322.637V107.5Z" transform="translate(0 -91.807)" fill="#ce1919"/>
        <path id="Path_21" data-name="Path 21" d="M73.479,146.157c-.3,0-.537.475-.537,1.061v7.1c0,.586.24,1.061.537,1.061s.537-.475.537-1.061v-7.1C74.015,146.632,73.775,146.157,73.479,146.157Z" transform="translate(-69.811 -141.542)" fill="#ce1919"/>
        <path id="Path_22" data-name="Path 22" d="M143.479,146.157c-.3,0-.537.475-.537,1.061v7.1c0,.586.24,1.061.537,1.061s.537-.475.537-1.061v-7.1C144.015,146.632,143.775,146.157,143.479,146.157Z" transform="translate(-136.806 -141.542)" fill="#ce1919"/>
      </g>
    </g>
    <g id="benefit-chart" transform="translate(30.977 31.976)">
      <path id="Path_23" data-name="Path 23" d="M16.636,38.525H1.863l2.4-5.83,2.492,1.962a.489.489,0,0,0,.532.06.677.677,0,0,0,.342-.5l.974-5.537,2.738,1.7a.506.506,0,0,0,.688-.154l2.279-3.065.072.928a.629.629,0,0,0,.571.63.479.479,0,0,0,.054,0,.671.671,0,0,0,.518-.756l-.2-2.639a.616.616,0,0,0-.624-.627l-2.18.246a.671.671,0,0,0-.518.756.615.615,0,0,0,.625.627l.836-.094L11.474,28.9,8.462,27.033a.485.485,0,0,0-.508-.009.687.687,0,0,0-.315.482l-.956,5.435L4.353,31.106a.491.491,0,0,0-.463-.088.613.613,0,0,0-.363.36l-2.38,5.773V22.16a.643.643,0,0,0-.574-.694A.643.643,0,0,0,0,22.16V39.219a.643.643,0,0,0,.574.694H16.636a.707.707,0,0,0,0-1.389Z" transform="translate(0 -21.466)" fill="#ce1919"/>
    </g>
    <g id="cake-with-candles" transform="translate(92.93 31.976)">
      <g id="Group_17" data-name="Group 17">
        <path id="Path_25" data-name="Path 25" d="M187.587,34.712h.3a.513.513,0,0,0,.447-.317,1.678,1.678,0,0,0,.141-.689,2.138,2.138,0,0,0-.317-1,.464.464,0,0,0-.838,0,2.138,2.138,0,0,0-.317,1,1.678,1.678,0,0,0,.141.689A.513.513,0,0,0,187.587,34.712Z" transform="translate(-179.131 -32.442)" fill="#ce1919"/>
        <path id="Path_26" data-name="Path 26" d="M290.587,34.712h.3a.513.513,0,0,0,.447-.317,1.678,1.678,0,0,0,.141-.689,2.139,2.139,0,0,0-.317-1,.464.464,0,0,0-.838,0,2.138,2.138,0,0,0-.317,1,1.678,1.678,0,0,0,.141.689A.513.513,0,0,0,290.587,34.712Z" transform="translate(-277.797 -32.442)" fill="#ce1919"/>
        <path id="Path_27" data-name="Path 27" d="M84.587,34.712h.3a.513.513,0,0,0,.447-.317,1.678,1.678,0,0,0,.141-.689,2.138,2.138,0,0,0-.317-1,.464.464,0,0,0-.838,0,2.138,2.138,0,0,0-.317,1,1.678,1.678,0,0,0,.141.689A.513.513,0,0,0,84.587,34.712Z" transform="translate(-80.465 -32.442)" fill="#ce1919"/>
        <path id="Path_28" data-name="Path 28" d="M16.746,92.476V87.3c0-1.847-1.18-3.351-2.63-3.351h-.652V82.363a.611.611,0,0,0-.526-.67.611.611,0,0,0-.526.67v1.584H9.131V82.363a.611.611,0,0,0-.526-.67.611.611,0,0,0-.526.67v1.584H4.8V82.363a.611.611,0,0,0-.526-.67.611.611,0,0,0-.526.67v1.584H3.093c-1.45,0-2.63,1.5-2.63,3.351v5.179A.634.634,0,0,0,0,93.141a.611.611,0,0,0,.526.67H8.079V96.16H6.122a.69.69,0,0,0,0,1.34h4.965a.69.69,0,0,0,0-1.34H9.131V93.811h7.553a.611.611,0,0,0,.526-.67A.634.634,0,0,0,16.746,92.476ZM1.515,92.471V87.3a1.836,1.836,0,0,1,1.578-2.01H14.117a1.836,1.836,0,0,1,1.578,2.01v5.173Z" transform="translate(0 -79.053)" fill="#ce1919"/>
      </g>
    </g>
    <g id="calendar-with-day-5" transform="translate(125.054 31.976)">
      <g id="Group_18" data-name="Group 18" transform="translate(0)">
        <path id="Path_29" data-name="Path 29" d="M20.949.85H19.917V.55a.526.526,0,1,0-1.052,0v.3H16.131V.55a.526.526,0,1,0-1.052,0v.3H12.344V.55a.526.526,0,1,0-1.052,0v.3H8.558V.55a.526.526,0,1,0-1.052,0v.3H6.474A1.4,1.4,0,0,0,5.107,2.28V4.36a1.434,1.434,0,0,0,.842,1.32V17.018a1.4,1.4,0,0,0,1.367,1.43H20.107a1.4,1.4,0,0,0,1.367-1.43V5.68a1.434,1.434,0,0,0,.842-1.32V2.28A1.4,1.4,0,0,0,20.949.85ZM6.159,2.28a.323.323,0,0,1,.316-.33H7.506V2.2a.526.526,0,1,0,1.052,0V1.95h2.735V2.2a.526.526,0,1,0,1.052,0V1.95h2.735V2.2a.526.526,0,1,0,1.052,0V1.95h2.735V2.2a.526.526,0,1,0,1.052,0V1.95h1.032a.323.323,0,0,1,.316.33V4.36a.323.323,0,0,1-.316.33H6.474a.323.323,0,0,1-.316-.33ZM20.107,17.348H7.316A.323.323,0,0,1,7,17.018V5.79H20.423V17.018A.323.323,0,0,1,20.107,17.348Z" transform="translate(-5.107)" fill="#ce1919"/>
        <path id="Path_30" data-name="Path 30" d="M159.009,175.935a.551.551,0,0,0,0-1.1h-3.55a.538.538,0,0,0-.526.55v2.71a.538.538,0,0,0,.526.55h3.024v1.911h-3.024a.551.551,0,0,0,0,1.1h3.55a.538.538,0,0,0,.526-.55v-3.011a.538.538,0,0,0-.526-.55h-3.024v-1.609Z" transform="translate(-148.629 -167.142)" fill="#ce1919"/>
      </g>
    </g>
    <g id="bookmark" transform="translate(61.953 31.976)">
      <g id="Group_16" data-name="Group 16">
        <path id="Path_24" data-name="Path 24" d="M52.314,18.448a.9.9,0,0,1-.63-.246l-7.152-7.129L37.381,18.2a.928.928,0,0,1-.912.2.71.71,0,0,1-.541-.65V.692A.767.767,0,0,1,36.751,0H52.314a.767.767,0,0,1,.823.692V17.755a.71.71,0,0,1-.541.65A.963.963,0,0,1,52.314,18.448ZM44.533,9.307a.894.894,0,0,1,.629.246l6.328,6.308V1.385H37.575V15.861L43.9,9.553A.894.894,0,0,1,44.533,9.307Z" transform="translate(-35.928)" fill="#ce1919"/>
      </g>
    </g>
    <g id="cancel-button" transform="translate(156.031 31.976)">
      <g id="Group_19" data-name="Group 19">
        <path id="Path_31" data-name="Path 31" d="M8.6,0C3.86,0,0,4.139,0,9.225s3.86,9.224,8.6,9.224,8.6-4.138,8.6-9.224S13.349,0,8.6,0Zm0,16.935A7.475,7.475,0,0,1,1.411,9.225,7.475,7.475,0,0,1,8.6,1.513,7.475,7.475,0,0,1,15.8,9.225,7.475,7.475,0,0,1,8.6,16.936Z" transform="translate(0 -0.001)" fill="#ce1919"/>
        <path id="Path_32" data-name="Path 32" d="M92.666,91.931,95.1,89.322a.8.8,0,0,0,0-1.069.672.672,0,0,0-1,0l-2.434,2.609-2.434-2.609a.672.672,0,0,0-1,0,.8.8,0,0,0,0,1.069l2.434,2.609-2.434,2.609a.8.8,0,0,0,0,1.069.672.672,0,0,0,1,0L91.669,93,94.1,95.609a.672.672,0,0,0,1,0,.8.8,0,0,0,0-1.069Z" transform="translate(-83.064 -82.707)" fill="#ce1919"/>
      </g>
    </g>
    <g id="caution-sign" transform="translate(187.008 31.976)">
      <g id="Group_20" data-name="Group 20" transform="translate(0)">
        <path id="Path_33" data-name="Path 33" d="M17.136,32.757,9.127,15.705a.558.558,0,0,0-1.044,0L.074,32.757a.8.8,0,0,0,.009.692.585.585,0,0,0,.513.343H16.614a.585.585,0,0,0,.513-.343A.8.8,0,0,0,17.136,32.757ZM1.6,32.4l7-14.906,7,14.906Z" transform="translate(-0.001 -15.344)" fill="#ce1919"/>
        <path id="Path_34" data-name="Path 34" d="M164.894,128.295v5.044a.756.756,0,1,0,1.493,0v-5.044a.756.756,0,1,0-1.493,0Z" transform="translate(-157.036 -121.163)" fill="#ce1919"/>
        <path id="Path_35" data-name="Path 35" d="M164.845,265.364a.933.933,0,1,0,.786.921A.863.863,0,0,0,164.845,265.364Z" transform="translate(-156.241 -251.406)" fill="#ce1919"/>
      </g>
    </g>
    <g id="chain-links" transform="translate(216.837 31.976)">
      <g id="Group_21" data-name="Group 21" transform="translate(0)">
        <path id="Path_36" data-name="Path 36" d="M16.348,1.484l-.49-.525a2.912,2.912,0,0,0-4.32,0L7.982,4.771a3.375,3.375,0,0,0-.895,2.315,3.551,3.551,0,0,0,.038.518,2.893,2.893,0,0,0-.483-.041,2.936,2.936,0,0,0-2.16.959L.926,12.333a3.447,3.447,0,0,0,0,4.63l.49.525a2.912,2.912,0,0,0,4.32,0l3.557-3.812a3.422,3.422,0,0,0,.854-2.833,2.891,2.891,0,0,0,.485.042h0a2.935,2.935,0,0,0,2.16-.959l3.557-3.812A3.447,3.447,0,0,0,16.348,1.484ZM8.472,12.8,4.915,16.609a1.806,1.806,0,0,1-2.679,0l-.49-.525a2.138,2.138,0,0,1,0-2.872L5.3,9.4a1.806,1.806,0,0,1,2.679,0l.49.525A2.138,2.138,0,0,1,8.472,12.8Zm7.056-7.563L11.971,9.047a1.82,1.82,0,0,1-1.339.595h0a1.821,1.821,0,0,1-1.34-.595L8.8,8.522a2.135,2.135,0,0,1,0-2.872l3.557-3.812a1.806,1.806,0,0,1,2.679,0l.49.525A2.137,2.137,0,0,1,15.528,5.235Z" transform="translate(-0.032)" fill="#ce1919"/>
        <path id="Path_37" data-name="Path 37" d="M222.568,67.829l-2.717,2.911a.654.654,0,0,0,0,.879.553.553,0,0,0,.82,0l2.717-2.912a.654.654,0,0,0,0-.879A.553.553,0,0,0,222.568,67.829Z" transform="translate(-209.487 -64.282)" fill="#ce1919"/>
        <path id="Path_38" data-name="Path 38" d="M70.532,219.864l-2.717,2.911a.654.654,0,0,0,0,.879.553.553,0,0,0,.82,0l2.717-2.911a.654.654,0,0,0,0-.879A.553.553,0,0,0,70.532,219.864Z" transform="translate(-64.507 -208.754)" fill="#ce1919"/>
      </g>
    </g>
    <g id="check-mark" transform="translate(247.814 31.976)">
      <g id="Group_22" data-name="Group 22">
        <path id="Path_39" data-name="Path 39" d="M8.6,0C3.86,0,0,4.139,0,9.225s3.86,9.224,8.6,9.224,8.6-4.138,8.6-9.224S13.349,0,8.6,0Zm0,16.935A7.475,7.475,0,0,1,1.411,9.225,7.475,7.475,0,0,1,8.6,1.513,7.475,7.475,0,0,1,15.8,9.225,7.475,7.475,0,0,1,8.6,16.936Z" transform="translate(0 -0.001)" fill="#ce1919"/>
        <path id="Path_40" data-name="Path 40" d="M73.839,90.531,68.73,96.007l-2.336-2.5a.672.672,0,0,0-1,0,.8.8,0,0,0,0,1.069l2.835,3.039a.672.672,0,0,0,1,0L74.836,91.6a.8.8,0,0,0,0-1.069A.672.672,0,0,0,73.839,90.531Z" transform="translate(-61.512 -84.847)" fill="#ce1919"/>
      </g>
    </g>
    <g id="closed-envelope" transform="translate(278.791 31.976)">
      <g id="Group_23" data-name="Group 23">
        <path id="Path_41" data-name="Path 41" d="M16.626,50.318H.584c-.322,0-.584.385-.584.86V67.905c0,.475.261.86.584.86H16.626c.322,0,.584-.385.584-.86V51.178C17.209,50.7,16.948,50.318,16.626,50.318Zm-.584,16.727H1.167V52.039H16.042Z" transform="translate(0 -50.318)" fill="#ce1919"/>
        <path id="Path_42" data-name="Path 42" d="M52.088,112.65l5.6,5.09a.43.43,0,0,0,.612,0l5.6-5.09a1.121,1.121,0,0,0,.191-1.184c-.169-.4-.529-.531-.8-.281L58,116l-5.3-4.811c-.274-.249-.634-.123-.8.281A1.121,1.121,0,0,0,52.088,112.65Z" transform="translate(-49.391 -106.876)" fill="#ce1919"/>
      </g>
    </g>
    <g id="cloud" transform="translate(0 63.952)">
      <g id="Group_24" data-name="Group 24">
        <path id="Path_43" data-name="Path 43" d="M13.168,82.872H4.042C1.813,82.872,0,79.983,0,76.432a7.576,7.576,0,0,1,2.135-5.679c.037-3.5,1.836-6.329,4.041-6.329,1.3,0,2.519,1.007,3.274,2.663A2.586,2.586,0,0,1,10,67.027c1.391,0,2.669,1.129,3.409,2.978,2.115.2,3.8,3.008,3.8,6.428C17.209,79.983,15.4,82.872,13.168,82.872ZM6.176,66.164c-1.626,0-2.949,2.108-2.949,4.7,0,.122,0,.245.009.365A1,1,0,0,1,2.9,72.1a5.254,5.254,0,0,0-1.81,4.335c0,2.591,1.323,4.7,2.949,4.7h9.126c1.626,0,2.949-2.108,2.949-4.7s-1.323-4.7-2.949-4.7h-.06c-.207.006-.4-.172-.494-.463-.513-1.545-1.513-2.5-2.608-2.5a1.928,1.928,0,0,0-.685.128c-.234.088-.476-.076-.6-.406C8.194,67.055,7.218,66.164,6.176,66.164Z" transform="translate(0 -64.424)" fill="#ce1919"/>
      </g>
    </g>
    <g id="cocktail-glass" transform="translate(30.977 63.952)">
      <path id="Path_44" data-name="Path 44" d="M48.646,3.526a.619.619,0,0,0,.17-.743.791.791,0,0,0-.723-.421H44.946l1.225-1.236A.623.623,0,0,0,46.09.165a.865.865,0,0,0-1.1.07L42.879,2.362H32.448a.791.791,0,0,0-.723.421.619.619,0,0,0,.17.743l7.593,6.616v6.942H37.768a.688.688,0,1,0,0,1.363h5.006a.688.688,0,1,0,0-1.363H41.053V10.142Zm-2.442.2L40.271,8.9l-5.934-5.17Z" transform="translate(-31.666 0.001)" fill="#ce1919"/>
    </g>
    <g id="compass" transform="translate(61.953 63.952)">
      <g id="Group_25" data-name="Group 25">
        <path id="Path_45" data-name="Path 45" d="M8.6,0C3.86,0,0,4.138,0,9.224s3.86,9.224,8.6,9.224,8.6-4.138,8.6-9.224S13.349,0,8.6,0Zm.589,17.159v-.87a.591.591,0,1,0-1.179,0v.87A7.721,7.721,0,0,1,1.2,9.856h.812a.633.633,0,0,0,0-1.263H1.2a7.721,7.721,0,0,1,6.813-7.3v.87a.591.591,0,1,0,1.179,0v-.87a7.721,7.721,0,0,1,6.813,7.3H15.2a.633.633,0,0,0,0,1.263h.812A7.721,7.721,0,0,1,9.194,17.159Z" fill="#ce1919"/>
        <path id="Path_46" data-name="Path 46" d="M109.141,108.006a1.881,1.881,0,0,0-.474-1.533,1.614,1.614,0,0,0-1.188-.527,1.588,1.588,0,0,0-.243.019l-2.522-2.068a.56.56,0,0,0-.775.055.666.666,0,0,0-.051.831l1.93,2.7a1.881,1.881,0,0,0,.474,1.533,1.614,1.614,0,0,0,1.188.527,1.582,1.582,0,0,0,.243-.019l2.522,2.068a.562.562,0,0,0,.358.13.569.569,0,0,0,.417-.185.666.666,0,0,0,.051-.831Z" transform="translate(-98.875 -98.522)" fill="#ce1919"/>
      </g>
    </g>
    <g id="coverage-level" transform="translate(92.93 63.952)">
      <g id="Group_26" data-name="Group 26" transform="translate(0)">
        <path id="Path_47" data-name="Path 47" d="M15.162,240a.8.8,0,0,0-.812.785v1.8a.812.812,0,0,0,1.624,0v-1.8A.8.8,0,0,0,15.162,240Z" transform="translate(-14.35 -224.925)" fill="#ce1919"/>
        <path id="Path_48" data-name="Path 48" d="M75.162,180a.8.8,0,0,0-.812.785v5.571a.812.812,0,0,0,1.624,0v-5.571A.8.8,0,0,0,75.162,180Z" transform="translate(-70.454 -168.694)" fill="#ce1919"/>
        <path id="Path_49" data-name="Path 49" d="M135.162,120a.8.8,0,0,0-.812.785v9.34a.812.812,0,0,0,1.624,0v-9.34A.8.8,0,0,0,135.162,120Z" transform="translate(-126.557 -112.463)" fill="#ce1919"/>
        <path id="Path_50" data-name="Path 50" d="M195.162,60a.8.8,0,0,0-.812.785V73.894a.812.812,0,0,0,1.624,0V60.785A.8.8,0,0,0,195.162,60Z" transform="translate(-182.661 -56.231)" fill="#ce1919"/>
        <path id="Path_51" data-name="Path 51" d="M255.162,0a.8.8,0,0,0-.812.785V17.662a.812.812,0,0,0,1.624,0V.785A.8.8,0,0,0,255.162,0Z" transform="translate(-238.764)" fill="#ce1919"/>
      </g>
    </g>
    <g id="cropping-tool" transform="translate(125.054 63.952)">
      <path id="Path_52" data-name="Path 52" d="M16.636,13.976H14.185V4.112L16.154,2a.647.647,0,0,0,0-.87.547.547,0,0,0-.811,0L13.374,3.242h-9.2V.615A.6.6,0,0,0,3.6,0a.6.6,0,0,0-.574.615V3.242H.574A.6.6,0,0,0,0,3.857a.6.6,0,0,0,.574.615H3.025V14.591a.6.6,0,0,0,.574.615h9.439v2.627a.575.575,0,1,0,1.147,0V15.205h2.451a.616.616,0,0,0,0-1.23Zm-4.409-9.5L4.172,13.106V4.472Zm-7.243,9.5,8.054-8.634v8.634Z" fill="#ce1919"/>
    </g>
    <g id="cup-of-hot-coffee" transform="translate(156.031 63.952)">
      <g id="Group_27" data-name="Group 27" transform="translate(0)">
        <path id="Path_53" data-name="Path 53" d="M254.634,184.956a.679.679,0,0,0-.655.7v2.3a.657.657,0,1,0,1.31,0v-2.3A.679.679,0,0,0,254.634,184.956Z" transform="translate(-240.685 -174.586)" fill="#ce1919"/>
        <path id="Path_54" data-name="Path 54" d="M14.271,136.855h-.052a3.075,3.075,0,0,0-1.084.2.632.632,0,0,0-.455-.2H.993a.679.679,0,0,0-.655.7v6a3.562,3.562,0,0,0,1.393,2.867l.447.85a.649.649,0,0,0,.571.357h8.176a.649.649,0,0,0,.571-.357l.447-.85a3.437,3.437,0,0,0,.792-.847,3.1,3.1,0,0,0,1.483.38h.052a3.4,3.4,0,0,0,3.276-3.5v-2.091A3.4,3.4,0,0,0,14.271,136.855Zm1.965,5.6a2.04,2.04,0,0,1-1.965,2.1h-.052a1.891,1.891,0,0,1-1.286-.514.624.624,0,0,0-.587-.151.672.672,0,0,0-.453.427,2.1,2.1,0,0,1-.792,1.023.685.685,0,0,0-.223.25l-.336.639H3.132l-.336-.639a.684.684,0,0,0-.223-.25,2.13,2.13,0,0,1-.924-1.783v-5.3h10.4a.7.7,0,0,0,.339.458.62.62,0,0,0,.682-.057,1.866,1.866,0,0,1,1.153-.4h.052a2.04,2.04,0,0,1,1.965,2.1v2.091Z" transform="translate(-0.338 -129.182)" fill="#ce1919"/>
        <path id="Path_55" data-name="Path 55" d="M117.082,5.621a3.475,3.475,0,0,0,1.017,1.3.636.636,0,0,0,.912-.184.73.73,0,0,0-.171-.973,1.946,1.946,0,0,1-.52-.623.987.987,0,0,1-.063-.27,1.439,1.439,0,0,1,.479-1.082,2.23,2.23,0,0,0,.658-1.722A2.973,2.973,0,0,0,118.275.133a.629.629,0,0,0-.916.157.731.731,0,0,0,.147.977,1.6,1.6,0,0,1,.58.917.78.78,0,0,1-.279.615A3.108,3.108,0,0,0,117,4.27a2.074,2.074,0,0,0-.062.75A2.244,2.244,0,0,0,117.082,5.621Z" transform="translate(-110.813 -0.001)" fill="#ce1919"/>
      </g>
    </g>
    <g id="diamond" transform="translate(187.008 63.952)">
      <path id="Path_56" data-name="Path 56" d="M17.128,18.092l-2.8-5.719A.627.627,0,0,0,13.778,12H3.432a.627.627,0,0,0-.554.373l-2.8,5.719a.826.826,0,0,0,.061.824L8.113,30.178a.584.584,0,0,0,.985,0l7.969-11.262A.826.826,0,0,0,17.128,18.092ZM5.6,13.466h6l-3,3.884Zm2.365,14.19L1.975,19.185H7.969ZM9.24,19.185h5.994L9.24,27.657Zm6.245-1.466H10.023l3.285-4.253h.1ZM3.8,13.466h.1l3.285,4.253H1.724Z" transform="translate(0 -12)" fill="#ce1919"/>
    </g>
    <g id="download-from-the-cloud" transform="translate(216.837 63.952)">
      <path id="Path_57" data-name="Path 57" d="M13.413,70.006C12.674,68.157,11.4,67.028,10,67.028a2.586,2.586,0,0,0-.555.061c-.755-1.657-1.977-2.663-3.274-2.663-2.205,0-4,2.829-4.041,6.329A7.576,7.576,0,0,0,0,76.433c0,3.551,1.813,6.439,4.042,6.439h9.126c2.229,0,4.042-2.889,4.042-6.439C17.209,73.014,15.528,70.209,13.413,70.006Zm-.246,11.126H4.042c-1.626,0-2.949-2.108-2.949-4.7A5.254,5.254,0,0,1,2.9,72.1a1,1,0,0,0,.333-.869c-.006-.12-.009-.243-.009-.365,0-2.591,1.323-4.7,2.949-4.7a2.424,2.424,0,0,1,1.882,1.085v8.288L6.369,72.847a.42.42,0,0,0-.772,0,1.263,1.263,0,0,0,0,1.231l2.622,4.177a.42.42,0,0,0,.772,0l2.622-4.177a1.263,1.263,0,0,0,0-1.231.42.42,0,0,0-.772,0L9.151,75.538V68.917a.35.35,0,0,0,.168-.021A1.928,1.928,0,0,1,10,68.768c1.1,0,2.1.96,2.609,2.5.1.291.287.471.494.463h.06c1.626,0,2.949,2.108,2.949,4.7S14.794,81.132,13.168,81.132Z" transform="translate(0 -64.425)" fill="#ce1919"/>
    </g>
    <g id="dustbin-1" transform="translate(247.814 63.952)">
      <g id="Group_28" data-name="Group 28" transform="translate(0)">
        <path id="Path_58" data-name="Path 58" d="M38.623.461H34.06A.753.753,0,0,0,33.35,0H30.861a.753.753,0,0,0-.71.461H25.589A2.012,2.012,0,0,0,23.5,2.382V4.129a.727.727,0,0,0,.755.695h1.42v12.93a.727.727,0,0,0,.755.695H37.781a.727.727,0,0,0,.755-.695V4.824h1.42a.727.727,0,0,0,.755-.695V2.382A2.012,2.012,0,0,0,38.623.461Zm-1.6,16.6H27.185V4.824h9.841ZM39.2,3.434H25.011V2.382a.557.557,0,0,1,.578-.532H38.623a.557.557,0,0,1,.578.532V3.434Z" transform="translate(-23.501)" fill="#ce1919"/>
        <path id="Path_59" data-name="Path 59" d="M121.5,115.847a.727.727,0,0,0,.755-.695v-7.32a.757.757,0,0,0-1.51,0v7.32A.727.727,0,0,0,121.5,115.847Z" transform="translate(-114.873 -101.185)" fill="#ce1919"/>
        <path id="Path_60" data-name="Path 60" d="M187.014,115.847a.727.727,0,0,0,.755-.695v-7.32a.757.757,0,0,0-1.51,0v7.32A.727.727,0,0,0,187.014,115.847Z" transform="translate(-176.431 -101.185)" fill="#ce1919"/>
      </g>
    </g>
    <g id="dustbin" transform="translate(278.791 63.952)">
      <g id="Group_29" data-name="Group 29" transform="translate(0)">
        <path id="Path_61" data-name="Path 61" d="M162.395,96.087a.753.753,0,0,0-.818.662v8.974a.836.836,0,0,0,1.636,0V96.749A.753.753,0,0,0,162.395,96.087Z" transform="translate(-153.79 -90.996)" fill="#ce1919"/>
        <path id="Path_62" data-name="Path 62" d="M58.968,2.033H54.977V.662A.753.753,0,0,0,54.159,0H48.2a.753.753,0,0,0-.818.662V2.033H43.395a.753.753,0,0,0-.818.662.753.753,0,0,0,.818.662h.736V17.785a.753.753,0,0,0,.818.662H57.414a.753.753,0,0,0,.818-.662V3.358h.736a.753.753,0,0,0,.818-.662A.753.753,0,0,0,58.968,2.033Zm-9.946-.709h4.319v.709H49.022Zm7.574,15.8H45.767V3.358H56.6Z" transform="translate(-42.577)" fill="#ce1919"/>
      </g>
    </g>
    <g id="edit-tool" transform="translate(0 95.927)">
      <path id="Path_63" data-name="Path 63" d="M17.027,4.845,14.86,2.522h0L12.69.2a.594.594,0,0,0-.882,0L1.312,11.447a.685.685,0,0,0-.17.338L.013,17.644a.7.7,0,0,0,.17.608.6.6,0,0,0,.441.2.584.584,0,0,0,.126-.014l5.466-1.21a.612.612,0,0,0,.315-.182L17.027,5.79A.7.7,0,0,0,17.027,4.845Zm-14.9,8.424,2.7,2.9-3.4.754Zm3.96,2.355-3.455-3.7L12.249,1.614l1.287,1.379L7.718,9.23a.7.7,0,0,0,0,.945.594.594,0,0,0,.882,0l5.818-6.237L15.7,5.318Z" transform="translate(-0.001)" fill="#ce1919"/>
    </g>
    <g id="erlenmeyer-flask" transform="translate(30.977 95.927)">
      <path id="Path_64" data-name="Path 64" d="M53.6,17.569,48.519,6.951V.637A.7.7,0,0,0,47.775,0H42.327a.7.7,0,0,0-.744.637V6.951L36.5,17.569a.56.56,0,0,0,.071.6.785.785,0,0,0,.618.282H52.911a.785.785,0,0,0,.618-.282A.56.56,0,0,0,53.6,17.569ZM43.015,7.318a.558.558,0,0,0,.056-.242v-5.8h3.96v5.8a.557.557,0,0,0,.056.242l.93,1.943h-5.93ZM38.3,17.173l3.176-6.638h7.15L51.8,17.173Z" transform="translate(-36.446)" fill="#ce1919"/>
    </g>
    <g id="eye" transform="translate(61.953 95.927)">
      <g id="Group_30" data-name="Group 30" transform="translate(0)">
        <path id="Path_65" data-name="Path 65" d="M8.6,119.184c-1.935,0-4.018-1.491-6.023-4.311a27.014,27.014,0,0,1-2.463-4.285,1.717,1.717,0,0,1,0-1.255,27.018,27.018,0,0,1,2.463-4.285c2.005-2.82,4.088-4.311,6.023-4.311s4.018,1.491,6.023,4.311a27.018,27.018,0,0,1,2.463,4.285,1.717,1.717,0,0,1,0,1.255,27.018,27.018,0,0,1-2.463,4.285C12.623,117.693,10.54,119.184,8.6,119.184ZM1.154,109.96a25.87,25.87,0,0,0,2.013,3.38c1.278,1.791,3.259,3.927,5.438,3.927s4.16-2.136,5.438-3.927a25.872,25.872,0,0,0,2.013-3.38,25.865,25.865,0,0,0-2.013-3.38c-1.278-1.791-3.259-3.927-5.438-3.927s-4.16,2.136-5.438,3.927A25.861,25.861,0,0,0,1.154,109.96Z" transform="translate(0 -100.736)" fill="#ce1919"/>
      </g>
      <g id="Group_31" data-name="Group 31" transform="translate(5.587 3.281)">
        <path id="Path_66" data-name="Path 66" d="M146.537,155.407c-1.664,0-3.017-2.666-3.017-5.943s1.354-5.943,3.017-5.943a2.471,2.471,0,0,1,1.987,1.471,1.674,1.674,0,0,1,.045,1.353c-.177.4-.485.438-.687.089a1.674,1.674,0,0,0-1.346-1c-1.127,0-2.044,1.806-2.044,4.026s.917,4.026,2.044,4.026,2.044-1.806,2.044-4.026c0-.529.218-.959.487-.959s.487.429.487.959C149.554,152.741,148.2,155.407,146.537,155.407Z" transform="translate(-143.52 -143.521)" fill="#ce1919"/>
      </g>
      <g id="Group_32" data-name="Group 32" transform="translate(7.631 7.307)">
        <path id="Path_67" data-name="Path 67" d="M196.993,199.855c-.537,0-.973-.86-.973-1.917s.437-1.917.973-1.917.973.86.973,1.917S197.53,199.855,196.993,199.855Z" transform="translate(-196.02 -196.021)" fill="#ce1919"/>
      </g>
    </g>
    <g id="file-folder" transform="translate(92.93 95.927)">
      <path id="Path_68" data-name="Path 68" d="M17.076,47.635a.47.47,0,0,0-.384-.231h-.1c-.12-1.469-1.042-2.616-2.158-2.616H8.708V44.1c0-.387-.232-.7-.517-.7H2.172C.974,43.4,0,44.718,0,46.34q0,.031,0,.062L.829,58.966v.011c.132,1.716,1,2.869,2.169,2.869H14.21c1.12,0,1.971-1.113,2.166-2.836,0-.011,0-.023,0-.034l.827-10.8A.871.871,0,0,0,17.076,47.635ZM15.549,47.4h-5.7a1.286,1.286,0,0,1-1.112-1.215h5.7A1.286,1.286,0,0,1,15.549,47.4Zm-.2,11.409c-.048.4-.266,1.631-1.142,1.631H3c-.747,0-1.079-.83-1.14-1.609L1.034,46.312A1.337,1.337,0,0,1,2.172,44.8h5.5v1.064c0,1.622.974,2.942,2.172,2.942h6.273Z" transform="translate(0 -43.398)" fill="#ce1919"/>
    </g>
    <g id="gear" transform="translate(125.054 95.927)">
      <g id="Group_33" data-name="Group 33" transform="translate(0)">
        <path id="Path_69" data-name="Path 69" d="M31.394,10.438a7.651,7.651,0,0,0,0-2.428,2.5,2.5,0,0,0,.779-1.261,2.472,2.472,0,0,0-.263-1.882l-.3-.509a2.581,2.581,0,0,0-3.022-1.131,7.791,7.791,0,0,0-2.135-1.216,2.5,2.5,0,0,0-.72-1.294A2.565,2.565,0,0,0,23.947,0h-.6a2.565,2.565,0,0,0-1.787.716,2.5,2.5,0,0,0-.72,1.294,7.793,7.793,0,0,0-2.135,1.216,2.581,2.581,0,0,0-3.023,1.131l-.3.509a2.472,2.472,0,0,0-.263,1.882A2.5,2.5,0,0,0,15.9,8.01a7.651,7.651,0,0,0,0,2.428,2.5,2.5,0,0,0-.779,1.261,2.472,2.472,0,0,0,.263,1.882l.3.509a2.581,2.581,0,0,0,3.022,1.131,7.794,7.794,0,0,0,2.135,1.216,2.5,2.5,0,0,0,.72,1.294,2.565,2.565,0,0,0,1.787.716h.6a2.565,2.565,0,0,0,1.787-.716,2.5,2.5,0,0,0,.72-1.294,7.794,7.794,0,0,0,2.135-1.216,2.594,2.594,0,0,0,.8.129h0a2.575,2.575,0,0,0,2.218-1.26l.3-.509a2.472,2.472,0,0,0,.263-1.882A2.5,2.5,0,0,0,31.394,10.438ZM30.081,7.872a6.425,6.425,0,0,1,0,2.7.62.62,0,0,0,.289.661,1.255,1.255,0,0,1,.444,1.722l-.3.509a1.3,1.3,0,0,1-1.737.482.641.641,0,0,0-.727.085,6.551,6.551,0,0,1-2.375,1.352.625.625,0,0,0-.438.577A1.276,1.276,0,0,1,23.947,17.2h-.6a1.276,1.276,0,0,1-1.292-1.239.625.625,0,0,0-.438-.577,6.549,6.549,0,0,1-2.375-1.352.641.641,0,0,0-.727-.085,1.3,1.3,0,0,1-1.737-.482l-.3-.509a1.255,1.255,0,0,1,.444-1.721.62.62,0,0,0,.289-.661,6.425,6.425,0,0,1,0-2.7.62.62,0,0,0-.288-.661,1.255,1.255,0,0,1-.444-1.721l.3-.509A1.3,1.3,0,0,1,18.52,4.5a.641.641,0,0,0,.727-.085,6.552,6.552,0,0,1,2.375-1.352.625.625,0,0,0,.438-.577,1.276,1.276,0,0,1,1.292-1.239h.6A1.276,1.276,0,0,1,25.24,2.486a.625.625,0,0,0,.438.577,6.549,6.549,0,0,1,2.375,1.352.641.641,0,0,0,.727.085,1.3,1.3,0,0,1,1.737.482l.3.509a1.255,1.255,0,0,1-.444,1.721A.619.619,0,0,0,30.081,7.872Z" transform="translate(-15.044)" fill="#ce1919"/>
        <path id="Path_70" data-name="Path 70" d="M80.51,74.939a5.487,5.487,0,1,0,5.571,5.486A5.535,5.535,0,0,0,80.51,74.939Zm0,9.725a4.24,4.24,0,1,1,4.3-4.239A4.277,4.277,0,0,1,80.51,84.664Z" transform="translate(-71.905 -71.201)" fill="#ce1919"/>
      </g>
    </g>
    <g id="gift-box-with-a-bow" transform="translate(156.031 95.927)">
      <path id="Path_71" data-name="Path 71" d="M56.453,4.518h-.81a2.67,2.67,0,0,0,.531-.979,2.456,2.456,0,0,0-.4-2.164A3.571,3.571,0,0,0,52.856,0a3.912,3.912,0,0,0-1.771.417A8.2,8.2,0,0,0,48.6,3.459,8.2,8.2,0,0,0,46.108.417,3.911,3.911,0,0,0,44.337,0a3.571,3.571,0,0,0-2.918,1.375,2.456,2.456,0,0,0-.4,2.164,2.669,2.669,0,0,0,.531.979h-.81a.7.7,0,0,0-.748.628V17.82a.7.7,0,0,0,.748.628H56.453a.7.7,0,0,0,.748-.628V5.146A.7.7,0,0,0,56.453,4.518Zm-4.59-3.029a2.193,2.193,0,0,1,.993-.234,2.006,2.006,0,0,1,1.639.772,1.379,1.379,0,0,1,.225,1.215,1.648,1.648,0,0,1-.866.992,5.437,5.437,0,0,1-2.03.276,3.032,3.032,0,0,0,.834-.734.571.571,0,0,0-.232-.866.838.838,0,0,0-1.032.195,2.6,2.6,0,0,1-1.382.786A7.312,7.312,0,0,1,51.863,1.489ZM42.7,2.027a2.006,2.006,0,0,1,1.639-.772,2.194,2.194,0,0,1,.993.234,7.32,7.32,0,0,1,1.851,2.4A2.6,2.6,0,0,1,45.8,3.106a.838.838,0,0,0-1.032-.195.571.571,0,0,0-.232.866,3.031,3.031,0,0,0,.834.734,5.438,5.438,0,0,1-2.03-.276,1.648,1.648,0,0,1-.866-.992A1.379,1.379,0,0,1,42.7,2.027ZM41.489,5.773h6.36V17.193h-6.36ZM55.7,17.193h-6.36V5.773H55.7Z" transform="translate(-39.992)" fill="#ce1919"/>
    </g>
    <g id="graduation-cap" transform="translate(187.008 95.927)">
      <g id="Group_34" data-name="Group 34">
        <path id="Path_72" data-name="Path 72" d="M16.9,50.074,8.867,44.241a.429.429,0,0,0-.524,0L.307,50.074A.875.875,0,0,0,0,50.78H0v3.045c0,.439.255.8.569.8s.569-.356.569-.8V52.089l1.219.885v6.332a1.025,1.025,0,0,0,.106.463c.059.116,1.5,2.831,6.142,2.831s6.083-2.715,6.142-2.831a1.026,1.026,0,0,0,.106-.463V52.973l2.05-1.488a.965.965,0,0,0,0-1.411ZM13.716,59c-.378.508-1.778,2.01-5.111,2.01S3.871,59.506,3.493,59V53.8l4.849,3.52a.428.428,0,0,0,.524,0l4.849-3.52ZM8.6,55.717,1.8,50.78l6.8-4.937,6.8,4.937Z" transform="translate(0 -44.151)" fill="#ce1919"/>
        <path id="Path_73" data-name="Path 73" d="M.57,219.736c-.314,0-.569.356-.569.8v.962c0,.439.255.8.569.8s.569-.356.569-.8v-.962C1.138,220.092.884,219.736.57,219.736Z" transform="translate(-0.001 -208.567)" fill="#ce1919"/>
      </g>
    </g>
    <g id="hand-pointing-to-left" transform="translate(216.837 95.927)">
      <g id="Group_37" data-name="Group 37">
        <g id="Group_36" data-name="Group 36">
          <g id="Group_35" data-name="Group 35">
            <path id="Path_74" data-name="Path 74" d="M9.966,18.027a1.359,1.359,0,0,1,.992.45l3.67,3.89a5.712,5.712,0,0,1,1.249,3.264v3.831c0,2.116-1.287,3.832-2.874,3.832l-3.663,0A1.659,1.659,0,0,1,7.845,31.51a2.044,2.044,0,0,1,.2-.888A1.729,1.729,0,0,1,6.829,28.87a2.027,2.027,0,0,1,.236-.959,1.8,1.8,0,0,1-.953-1.661,2.038,2.038,0,0,1,.21-.908h-3.5a1.658,1.658,0,0,1-1.494-1.783,1.658,1.658,0,0,1,1.494-1.783H9.569l-.6-.632a2.032,2.032,0,0,1-.125-2.517,1.4,1.4,0,0,1,1.118-.6m0-1.59A2.655,2.655,0,0,0,7.852,17.57a3.774,3.774,0,0,0-.708,2.44q0,.088.012.175H2.827A3.14,3.14,0,0,0,0,23.559a3.14,3.14,0,0,0,2.827,3.374H4.838a3.712,3.712,0,0,0,.449,1.244,3.373,3.373,0,0,0,.226.338q-.016.176-.016.355A3.665,3.665,0,0,0,6.513,31.46q0,.025,0,.049A3.14,3.14,0,0,0,9.34,34.883l3.662,0a3.789,3.789,0,0,0,3.026-1.652,6.3,6.3,0,0,0,1.181-3.77V25.631a6.683,6.683,0,0,0-.516-2.459,7.561,7.561,0,0,0-1.113-1.917q-.032-.04-.067-.077l-3.67-3.89a2.58,2.58,0,0,0-1.877-.851Z" transform="translate(0 -16.437)" fill="#ce1919"/>
          </g>
        </g>
      </g>
    </g>
    <g id="hand-pointing-to-right" transform="translate(247.814 95.927)">
      <g id="Group_40" data-name="Group 40">
        <g id="Group_39" data-name="Group 39">
          <g id="Group_38" data-name="Group 38">
            <path id="Path_75" data-name="Path 75" d="M7.243,18.028a1.4,1.4,0,0,1,1.118.6,2.032,2.032,0,0,1-.125,2.517l-.6.632h6.742a1.658,1.658,0,0,1,1.494,1.783,1.658,1.658,0,0,1-1.494,1.783h-3.5a2.039,2.039,0,0,1,.21.908,1.8,1.8,0,0,1-.953,1.661,2.028,2.028,0,0,1,.236.959,1.729,1.729,0,0,1-1.216,1.751,2.045,2.045,0,0,1,.2.888A1.658,1.658,0,0,1,7.87,33.293l-3.663,0c-1.588,0-2.874-1.716-2.874-3.832V25.632a5.713,5.713,0,0,1,1.249-3.264l3.67-3.89a1.36,1.36,0,0,1,.992-.45m0-1.59h0a2.58,2.58,0,0,0-1.877.852L1.7,21.18q-.035.037-.067.077A7.562,7.562,0,0,0,.516,23.173,6.681,6.681,0,0,0,0,25.632v3.831a6.3,6.3,0,0,0,1.182,3.77,3.789,3.789,0,0,0,3.025,1.652l3.663,0A3.14,3.14,0,0,0,10.7,31.51c0-.016,0-.033,0-.049a3.665,3.665,0,0,0,1.016-2.591q0-.178-.016-.355a3.329,3.329,0,0,0,.226-.338,3.712,3.712,0,0,0,.449-1.244h2.011a3.14,3.14,0,0,0,2.827-3.373,3.14,3.14,0,0,0-2.827-3.374h-4.33q.008-.087.012-.175a3.773,3.773,0,0,0-.708-2.439,2.655,2.655,0,0,0-2.114-1.134Z" transform="translate(0 -16.438)" fill="#ce1919"/>
          </g>
        </g>
      </g>
    </g>
    <g id="headphones" transform="translate(278.791 95.927)">
      <path id="Path_76" data-name="Path 76" d="M16.74,26.3A14.642,14.642,0,0,0,14.8,18.552a7.062,7.062,0,0,0-6.2-3.471,7.062,7.062,0,0,0-6.2,3.471A14.643,14.643,0,0,0,.469,26.3,5.67,5.67,0,0,0,0,28.575c0,2.732,1.874,4.954,4.177,4.954a.757.757,0,0,0,.685-.812V24.433a.757.757,0,0,0-.685-.812,3.691,3.691,0,0,0-2.225.764c.462-4,2.379-7.68,6.652-7.68s6.19,3.678,6.652,7.68a3.692,3.692,0,0,0-2.225-.764.757.757,0,0,0-.685.812v8.283a.757.757,0,0,0,.685.812c2.3,0,4.177-2.222,4.177-4.954A5.67,5.67,0,0,0,16.74,26.3ZM3.492,25.346V31.8A3.28,3.28,0,0,1,1.37,28.575,3.28,3.28,0,0,1,3.492,25.346ZM13.717,31.8V25.346a3.28,3.28,0,0,1,2.123,3.229A3.279,3.279,0,0,1,13.717,31.8Z" transform="translate(0 -15.081)" fill="#ce1919"/>
    </g>
    <g id="heart" transform="translate(0 127.903)">
      <g id="Group_41" data-name="Group 41">
        <path id="Path_77" data-name="Path 77" d="M8.6,30.584a.551.551,0,0,1-.427-.214L1.3,21.865l-.005-.007A6.4,6.4,0,0,1,0,17.9a6.4,6.4,0,0,1,1.295-3.958l.1-.133a4.066,4.066,0,0,1,3.2-1.674,4.066,4.066,0,0,1,3.2,1.674L8.6,14.846,9.42,13.81a4.066,4.066,0,0,1,3.2-1.674,4.066,4.066,0,0,1,3.2,1.674l.1.132A6.4,6.4,0,0,1,17.209,17.9a6.4,6.4,0,0,1-1.295,3.958l-.005.007L9.031,30.37A.551.551,0,0,1,8.6,30.584ZM2.156,20.959,8.6,28.933l6.448-7.974a5.2,5.2,0,0,0,0-6.121l-.1-.132a2.976,2.976,0,0,0-2.331-1.234,2.975,2.975,0,0,0-2.331,1.234L9.037,16.29a.534.534,0,0,1-.864,0L6.925,14.706a2.975,2.975,0,0,0-2.331-1.234,2.975,2.975,0,0,0-2.331,1.234l-.1.133A5.2,5.2,0,0,0,2.156,20.959Z" transform="translate(0 -12.136)" fill="#ce1919"/>
      </g>
    </g>
    <g id="hourglass" transform="translate(61.954 127.903)">
      <g id="Group_43" data-name="Group 43">
        <path id="Path_80" data-name="Path 80" d="M82.424,9.224C86.311,6.457,87.454.98,87.5.734a.515.515,0,0,0-.242-.513A1.3,1.3,0,0,0,86.506,0h-15.2a1.3,1.3,0,0,0-.755.221.515.515,0,0,0-.242.513c.049.246,1.192,5.723,5.08,8.49-3.888,2.767-5.03,8.244-5.079,8.49a.515.515,0,0,0,.242.513,1.3,1.3,0,0,0,.755.221h15.2a1.3,1.3,0,0,0,.755-.221.515.515,0,0,0,.242-.513C87.454,17.467,86.311,11.99,82.424,9.224Zm-9.933,7.923c.47-1.659,1.892-5.685,4.991-7.433a.59.59,0,0,0,.345-.49.59.59,0,0,0-.345-.49c-3.1-1.748-4.522-5.775-4.991-7.433H85.323c-.47,1.659-1.892,5.685-4.991,7.433a.59.59,0,0,0-.345.49.59.59,0,0,0,.345.49c3.1,1.748,4.521,5.774,4.991,7.433Z" transform="translate(-70.302)" fill="#ce1919"/>
        <path id="Path_81" data-name="Path 81" d="M126.279,203.344c-1.3,0-2.385.852-3.4,2.683a16.007,16.007,0,0,0-1.041,2.332.49.49,0,0,0,.2.547,1.273,1.273,0,0,0,.783.243h6.914a1.274,1.274,0,0,0,.783-.243.491.491,0,0,0,.2-.547,16.022,16.022,0,0,0-1.041-2.332C128.663,204.2,127.584,203.344,126.279,203.344Zm2.169,4.5H124.11c.146-.348.34-.777.572-1.213.821-1.542,1.429-1.9,1.6-1.977.168.074.774.433,1.592,1.967C128.1,207.063,128.3,207.5,128.448,207.848Z" transform="translate(-117.674 -192.766)" fill="#ce1919"/>
      </g>
    </g>
    <g id="inbox" transform="translate(92.93 127.903)">
      <g id="Group_44" data-name="Group 44" transform="translate(0)">
        <path id="Path_82" data-name="Path 82" d="M101.447,12.875a.583.583,0,0,0,.839,0l3.8-3.884a.617.617,0,0,0,0-.858.583.583,0,0,0-.839,0l-2.783,2.848V.607a.593.593,0,1,0-1.186,0V10.98L98.491,8.132a.583.583,0,0,0-.839,0,.617.617,0,0,0,0,.858Z" transform="translate(-93.262)" fill="#ce1919"/>
        <path id="Path_83" data-name="Path 83" d="M25.209,243.832H19.83a.6.6,0,0,0-.593.607v1.139a.593.593,0,1,0,1.186,0v-.532h4.193v4.181H9.779v-4.181h4.193v.532a.593.593,0,1,0,1.186,0v-1.139a.6.6,0,0,0-.593-.607H9.186a.6.6,0,0,0-.593.607v5.4a.6.6,0,0,0,.593.607H25.209a.6.6,0,0,0,.593-.607v-5.4A.6.6,0,0,0,25.209,243.832Z" transform="translate(-8.593 -231.993)" fill="#ce1919"/>
      </g>
    </g>
    <g id="homepage" transform="translate(30.977 127.903)">
      <g id="Group_42" data-name="Group 42" transform="translate(0)">
        <path id="Path_78" data-name="Path 78" d="M17.008,11.454,8.993,3.771a.552.552,0,0,0-.777,0L.2,11.454a.687.687,0,0,0-.055.91.555.555,0,0,0,.832.06l.621-.595v9.586a.619.619,0,0,0,.589.645H15.021a.619.619,0,0,0,.589-.645V11.828l.621.595a.559.559,0,0,0,.388.16.567.567,0,0,0,.443-.22A.687.687,0,0,0,17.008,11.454ZM7.243,20.77V15.46H9.965V20.77ZM14.432,10.7V20.77H11.144V14.816a.619.619,0,0,0-.589-.645h-3.9a.619.619,0,0,0-.589.645V20.77H2.777V10.7s0,0,0,0L8.6,5.113,14.432,10.7S14.432,10.7,14.432,10.7Z" transform="translate(0.001 -3.611)" fill="#ce1919"/>
        <path id="Path_79" data-name="Path 79" d="M154.5,108.883a.619.619,0,0,0,.589.645h1.462a.647.647,0,0,0,0-1.289h-1.462A.619.619,0,0,0,154.5,108.883Z" transform="translate(-147.216 -102.843)" fill="#ce1919"/>
      </g>
    </g>
    <g id="international-globe" transform="translate(125.054 127.903)">
      <path id="Path_84" data-name="Path 84" d="M8.6,0C3.86,0,0,4.138,0,9.224s3.86,9.224,8.6,9.224,8.6-4.138,8.6-9.224S13.349,0,8.6,0Zm7.5,8.64H12.191a17.08,17.08,0,0,0-.925-5.39,6.24,6.24,0,0,0-1.055-1.9A7.919,7.919,0,0,1,16.1,8.64ZM8.6,16.78c-.561,0-1.178-.754-1.651-2.018a15.787,15.787,0,0,1-.846-4.955H11.1a15.787,15.787,0,0,1-.846,4.955C9.782,16.026,9.165,16.78,8.6,16.78Zm-2.5-8.14a15.787,15.787,0,0,1,.846-4.955C7.427,2.422,8.044,1.668,8.6,1.668s1.178.754,1.651,2.018A15.787,15.787,0,0,1,11.1,8.64ZM7,1.354a6.241,6.241,0,0,0-1.055,1.9,17.083,17.083,0,0,0-.925,5.39H1.109A7.919,7.919,0,0,1,7,1.354ZM1.109,9.808H5.018a17.083,17.083,0,0,0,.925,5.39A6.241,6.241,0,0,0,7,17.094,7.919,7.919,0,0,1,1.109,9.808Zm9.1,7.286a6.241,6.241,0,0,0,1.055-1.9,17.082,17.082,0,0,0,.925-5.39H16.1A7.919,7.919,0,0,1,10.212,17.094Z" fill="#ce1919"/>
    </g>
    <g id="key" transform="translate(156.031 127.903)">
      <path id="Path_85" data-name="Path 85" d="M15.452,1.917a5.821,5.821,0,0,0-8.636,0,6.669,6.669,0,0,0-1.641,3.2,7.022,7.022,0,0,0,.059,3.124L.216,13.615a.715.715,0,0,0-.188.5l.081,3.571a.667.667,0,0,0,.626.671l3.332.087h.016a.621.621,0,0,0,.454-.2l3.728-4h0l1.29-1.383a5.73,5.73,0,0,0,1.579.221h0a5.867,5.867,0,0,0,4.317-1.917A6.889,6.889,0,0,0,15.452,1.917ZM14.544,10.2a4.633,4.633,0,0,1-3.409,1.513,4.537,4.537,0,0,1-1.555-.275.612.612,0,0,0-.661.165L7.811,12.79l-.3-.323a.612.612,0,0,0-.908,0,.724.724,0,0,0,0,.973l.3.323L5.664,15.091l-.3-.323a.612.612,0,0,0-.908,0,.724.724,0,0,0,0,.974l.3.323-.933,1L1.379,17l-.059-2.62,5.1-5.461a.724.724,0,0,0,.154-.708A5.4,5.4,0,0,1,7.725,2.89a4.634,4.634,0,0,1,3.409-1.514,4.581,4.581,0,0,1,2.925,1.059L12.208,4.42a2.035,2.035,0,0,0-1-.265,2.076,2.076,0,0,0-1.527.678,2.437,2.437,0,0,0,0,3.274,2.059,2.059,0,0,0,3.055,0,2.387,2.387,0,0,0,.633-1.637,2.437,2.437,0,0,0-.247-1.077l1.85-1.983A5.454,5.454,0,0,1,14.544,10.2ZM11.823,5.807a.986.986,0,0,1,0,1.327.835.835,0,0,1-1.238,0,.988.988,0,0,1,0-1.327.835.835,0,0,1,1.238,0Z" transform="translate(-0.028 0)" fill="#ce1919"/>
    </g>
    <g id="laptop" transform="translate(187.008 127.903)">
      <path id="Path_86" data-name="Path 86" d="M16.737,86.108H16V72.98c0-.41-.212-.743-.473-.743H1.683c-.261,0-.473.333-.473.743V86.108H.473c-.261,0-.473.333-.473.743v1.666a.906.906,0,0,0,.217.624c.156.158,1.72,1.544,8.388,1.544s8.231-1.386,8.388-1.544a.906.906,0,0,0,.217-.624V86.851C17.209,86.44,17,86.108,16.737,86.108ZM2.156,73.722H8.132v.094c0,.41.212.743.473.743s.473-.333.473-.743v-.094h5.976V86.108H2.156ZM16.264,88.037c-.594.341-2.558,1.162-7.659,1.162-5.055,0-7.047-.824-7.659-1.169v-.437H9.92v.21c0,.41.212.743.473.743s.473-.333.473-.743v-.21h.492v.21c0,.41.212.743.473.743s.473-.333.473-.743v-.21h3.961Z" transform="translate(0 -72.237)" fill="#ce1919"/>
    </g>
    <g id="light-bulb" transform="translate(216.837 127.903)">
      <g id="Group_45" data-name="Group 45" transform="translate(0)">
        <path id="Path_87" data-name="Path 87" d="M87.039,5.878c0-3.241-3.86-5.878-8.6-5.878s-8.6,2.637-8.6,5.878c0,2.248,1.321,3.444,2.486,4.5.984.891,1.834,1.66,1.834,3.013v2.47c0,1.427,1.678,2.588,3.767,2.588h1.034c2.089,0,3.774-1.161,3.774-2.588l-.007-2.47c0-1.352.85-2.122,1.834-3.013C85.718,9.322,87.039,8.126,87.039,5.878ZM78.952,17.25H77.917A2.124,2.124,0,0,1,75.99,16.3h4.89A2.125,2.125,0,0,1,78.952,17.25Zm2.035-2.145h-5.1v-.573h5.1Zm-.021-1.771H75.9c-.023-1.72-1.123-2.715-2.188-3.679-1.1-.993-2.133-1.931-2.133-3.778,0-2.58,3.073-4.68,6.851-4.68s6.851,2.1,6.851,4.68c0,1.847-1.036,2.785-2.133,3.778C82.089,10.619,80.988,11.615,80.965,13.335Z" transform="translate(-69.83)" fill="#ce1919"/>
        <path id="Path_88" data-name="Path 88" d="M131.732,90.018c.455-.113.69-.457.524-.768l-1.906-3.576.647-.691,1.4.884a1.193,1.193,0,0,0,1.192,0l1.4-.884.647.691-1.906,3.576c-.166.311.069.655.524.768a1.243,1.243,0,0,0,.3.036.929.929,0,0,0,.824-.394l2.055-3.854a.441.441,0,0,0-.085-.528L135.9,83.734a.981.981,0,0,0-.627-.272,1.161,1.161,0,0,0-.707.155l-1.572.994-1.572-.994a1.163,1.163,0,0,0-.707-.155.981.981,0,0,0-.627.272l-1.445,1.545a.441.441,0,0,0-.085.528l2.055,3.854A1.028,1.028,0,0,0,131.732,90.018Z" transform="translate(-124.385 -79.459)" fill="#ce1919"/>
      </g>
    </g>
    <g id="location-flag" transform="translate(247.814 127.903)">
      <path id="Path_89" data-name="Path 89" d="M72.693,8.921,69.815,5.262l2.9-3.688a.5.5,0,0,0,0-.637.939.939,0,0,0-.741-.319H57.333A.777.777,0,0,0,56.479,0c-.472,0-.854.284-.854.635V17.812c0,.351.383.635.854.635s.854-.284.854-.635V9.906H71.98c.472,0,.854-.284.854-.635A.525.525,0,0,0,72.693,8.921ZM57.334,8.636V1.888H70.489l-2.4,3.053a.5.5,0,0,0,0,.641l2.4,3.053Z" transform="translate(-55.625)" fill="#ce1919"/>
    </g>
    <g id="location-pointer-1" transform="translate(278.791 127.903)">
      <g id="Group_48" data-name="Group 48" transform="translate(0)">
        <g id="Group_46" data-name="Group 46">
          <path id="Path_90" data-name="Path 90" d="M84.855,18.448c-.682,0-1.365-.308-2.664-1.844a34.237,34.237,0,0,1-2.612-3.638c-1.609-2.541-3.329-5.819-3.329-7.4C76.25,2.5,80.11,0,84.855,0s8.6,2.5,8.6,5.57c0,1.577-1.72,4.855-3.329,7.4A34.237,34.237,0,0,1,87.519,16.6C86.22,18.139,85.536,18.448,84.855,18.448Zm0-17.25C81.13,1.2,78.1,3.159,78.1,5.57c0,1.09,1.16,3.667,2.954,6.564a36.825,36.825,0,0,0,2.431,3.5A10.076,10.076,0,0,0,84.855,17.1a10.076,10.076,0,0,0,1.369-1.472,36.825,36.825,0,0,0,2.431-3.5c1.795-2.9,2.954-5.474,2.954-6.564C91.609,3.159,88.579,1.2,84.855,1.2Z" transform="translate(-76.25)" fill="#ce1919"/>
        </g>
        <g id="Group_47" data-name="Group 47" transform="translate(5.089 3.041)">
          <path id="Path_91" data-name="Path 91" d="M148.516,68.017C146.577,68.017,145,67,145,65.741s1.577-2.276,3.516-2.276,3.516,1.021,3.516,2.276S150.455,68.017,148.516,68.017Zm0-3.354c-.918,0-1.665.484-1.665,1.078s.747,1.078,1.665,1.078,1.665-.484,1.665-1.078S149.434,64.663,148.516,64.663Z" transform="translate(-145 -63.465)" fill="#ce1919"/>
        </g>
      </g>
    </g>
    <g id="location-pointer" transform="translate(0 159.879)">
      <g id="Group_49" data-name="Group 49">
        <path id="Path_92" data-name="Path 92" d="M45.864,0c-4.745,0-8.6,3.263-8.6,7.274a6.482,6.482,0,0,0,1.509,4.115,8.431,8.431,0,0,0,3.621,2.541l2.8,4.186a.849.849,0,0,0,1.347,0l2.8-4.186a8.431,8.431,0,0,0,3.621-2.541,6.481,6.481,0,0,0,1.509-4.115C54.468,3.263,50.608,0,45.864,0ZM48.5,12.808a.749.749,0,0,0-.384.284l-2.257,3.373-2.257-3.373a.749.749,0,0,0-.384-.284,6.037,6.037,0,0,1-4.416-5.534c0-3.29,3.166-5.966,7.057-5.966s7.057,2.676,7.057,5.966A6.037,6.037,0,0,1,48.5,12.808Z" transform="translate(-37.259)" fill="#ce1919"/>
        <path id="Path_93" data-name="Path 93" d="M127.009,85.759a2.786,2.786,0,1,0,3.25,2.747A3.034,3.034,0,0,0,127.009,85.759Zm0,4.186a1.459,1.459,0,1,1,1.7-1.439A1.589,1.589,0,0,1,127.009,89.945Z" transform="translate(-118.404 -81.271)" fill="#ce1919"/>
      </g>
    </g>
    <g id="locked-padlock" transform="translate(30.977 159.879)">
      <g id="Group_50" data-name="Group 50">
        <path id="Path_94" data-name="Path 94" d="M58.667,6.292H57.042V3.57C57.042,1.6,55.062,0,52.629,0H49.151c-2.434,0-4.413,1.6-4.413,3.57V6.292H43.113a.761.761,0,0,0-.828.669V13.5c0,2.729,2.745,4.948,6.118,4.948h4.973c3.374,0,6.118-2.22,6.118-4.948V6.961A.761.761,0,0,0,58.667,6.292ZM46.393,3.57a2.54,2.54,0,0,1,2.758-2.231h3.478A2.54,2.54,0,0,1,55.387,3.57V6.292H46.393ZM57.839,13.5c0,1.99-2,3.61-4.463,3.61H48.4c-2.461,0-4.463-1.619-4.463-3.61V7.63h13.9Z" transform="translate(-42.285 0)" fill="#ce1919"/>
        <path id="Path_95" data-name="Path 95" d="M157.529,225.464a.846.846,0,0,0,1.655,0v-1.911a.586.586,0,0,0,.157-.392.761.761,0,0,0-.828-.669H158.2a.761.761,0,0,0-.828.669.585.585,0,0,0,.157.392Z" transform="translate(-149.752 -210.578)" fill="#ce1919"/>
      </g>
    </g>
    <g id="magic-wand" transform="translate(61.953 159.879)">
      <g id="Group_51" data-name="Group 51">
        <path id="Path_96" data-name="Path 96" d="M289.782,92.365l-1.334-.383a.632.632,0,0,0-.777.481.687.687,0,0,0,.449.833l1.334.383a.6.6,0,0,0,.165.023.644.644,0,0,0,.613-.5A.687.687,0,0,0,289.782,92.365Z" transform="translate(-273.043 -86.953)" fill="#ce1919"/>
        <path id="Path_97" data-name="Path 97" d="M215.3,2.287a.644.644,0,0,0,.613.5.6.6,0,0,0,.165-.023.687.687,0,0,0,.449-.833l-.357-1.43a.632.632,0,0,0-.777-.481.687.687,0,0,0-.449.833Z" transform="translate(-204.005 -0.001)" fill="#ce1919"/>
        <path id="Path_98" data-name="Path 98" d="M275.829,22.086a.716.716,0,0,0,0-.962.605.605,0,0,0-.9,0l-.976,1.046a.716.716,0,0,0,0,.962.605.605,0,0,0,.9,0Z" transform="translate(-259.868 -19.785)" fill="#ce1919"/>
        <path id="Path_99" data-name="Path 99" d="M12.134,64.225a1.743,1.743,0,0,0-1.283.57L.531,75.857a2.045,2.045,0,0,0,0,2.75,1.729,1.729,0,0,0,2.566,0l8.371-8.973h0l1.948-2.088a2.045,2.045,0,0,0,0-2.75A1.744,1.744,0,0,0,12.134,64.225ZM2.2,77.645a.519.519,0,0,1-.77,0,.614.614,0,0,1,0-.826l7.923-8.493.77.826Zm10.32-11.063-1.5,1.608-.77-.826,1.5-1.608a.519.519,0,0,1,.77,0,.614.614,0,0,1,0,.826Z" transform="translate(0 -60.729)" fill="#ce1919"/>
      </g>
    </g>
    <g id="magnifying-glass" transform="translate(92.93 159.879)">
      <path id="Path_100" data-name="Path 100" d="M15.314,2.032A6.218,6.218,0,0,0,10.738,0h0A6.219,6.219,0,0,0,6.162,2.032a7.151,7.151,0,0,0-1.9,4.905,7.275,7.275,0,0,0,.9,3.536L.458,15.522a1.764,1.764,0,0,0,0,2.372l.058.063a1.491,1.491,0,0,0,2.213,0l4.71-5.049a6.107,6.107,0,0,0,3.3.966,6.218,6.218,0,0,0,4.576-2.032,7.151,7.151,0,0,0,1.9-4.905A7.151,7.151,0,0,0,15.314,2.032ZM1.939,17.109a.426.426,0,0,1-.632,0l-.058-.063a.5.5,0,0,1,0-.678L5.83,11.458q.159.2.333.384t.358.356Zm12.585-6.114a5.1,5.1,0,0,1-7.571,0A5.916,5.916,0,0,1,5.384,6.937,5.916,5.916,0,0,1,6.953,2.879a5.1,5.1,0,0,1,7.571,0,5.916,5.916,0,0,1,1.568,4.058A5.916,5.916,0,0,1,14.524,10.995Z" transform="translate(0 0)" fill="#ce1919"/>
    </g>
    <g id="male-avatar" transform="translate(125.054 159.879)">
      <path id="Path_101" data-name="Path 101" d="M60.776,9.578h-.91A5.062,5.062,0,0,0,62.79,5.205C62.79,2.335,59.929,0,56.412,0s-6.378,2.335-6.378,5.205a5.062,5.062,0,0,0,2.923,4.373h-.91c-2.338,0-4.24,1.552-4.24,3.46v4.833a.65.65,0,0,0,.705.576h15.8a.65.65,0,0,0,.705-.576V13.039C65.016,11.131,63.114,9.578,60.776,9.578ZM51.444,5.205c0-2.235,2.228-4.054,4.967-4.054s4.967,1.819,4.967,4.054-2.228,4.054-4.967,4.054S51.444,7.441,51.444,5.205Zm7.031,4.925-2.064,1.684-2.064-1.684a7.751,7.751,0,0,0,4.127,0Zm5.13,7.166H61.687V14.531a.72.72,0,0,0-1.411,0V17.3h-7.73V14.531a.72.72,0,0,0-1.411,0V17.3H49.218V13.039a2.612,2.612,0,0,1,2.829-2.309h1.04l2.826,2.306a.822.822,0,0,0,1,0l2.826-2.306h1.04a2.612,2.612,0,0,1,2.829,2.309Z" transform="translate(-47.807)" fill="#ce1919"/>
    </g>
    <g id="medal-with-a-star" transform="translate(156.031 159.879)">
      <g id="Group_52" data-name="Group 52" transform="translate(0)">
        <path id="Path_102" data-name="Path 102" d="M88.656,0H72.883c-.4,0-.718.233-.718.519v6.2a.4.4,0,0,0,.052.194l1.9,3.423a4.341,4.341,0,0,0-.925,2.625c0,3.023,3.4,5.482,7.578,5.482s7.578-2.459,7.578-5.482a4.341,4.341,0,0,0-.925-2.625l1.9-3.423a.4.4,0,0,0,.052-.194V.519C89.374.232,89.053,0,88.656,0Zm-.718,1.039V5.687H73.6V1.039Zm-1.5,8.288a7.666,7.666,0,0,0-1.9-1.121,10.156,10.156,0,0,0-7.526,0,7.666,7.666,0,0,0-1.9,1.121l-1.445-2.6H87.882ZM80.77,17.409c-3.387,0-6.142-1.993-6.142-4.444a3.575,3.575,0,0,1,.9-2.314,7.522,7.522,0,0,1,10.488,0,3.576,3.576,0,0,1,.9,2.314C86.911,15.415,84.156,17.409,80.77,17.409Z" transform="translate(-72.165)" fill="#ce1919"/>
        <path id="Path_103" data-name="Path 103" d="M141.317,216.866l-2.72-.286L137.38,214.8a.86.86,0,0,0-1.287,0l-1.217,1.783-2.72.286a.7.7,0,0,0-.579.353.427.427,0,0,0,.182.532l1.968,1.388-.465,1.96a.466.466,0,0,0,.286.508.953.953,0,0,0,.756.04l2.433-.925,2.433.925a.944.944,0,0,0,.334.06.915.915,0,0,0,.422-.1.466.466,0,0,0,.286-.508l-.465-1.96,1.968-1.388a.427.427,0,0,0,.182-.532A.7.7,0,0,0,141.317,216.866Zm-2.843,1.721a.44.44,0,0,0-.207.46l.283,1.192-1.48-.563a.964.964,0,0,0-.668,0l-1.48.563.283-1.192a.44.44,0,0,0-.206-.46l-1.2-.844,1.654-.174a.743.743,0,0,0,.54-.284l.74-1.085.74,1.085a.744.744,0,0,0,.54.284l1.654.174Z" transform="translate(-128.132 -205.595)" fill="#ce1919"/>
      </g>
    </g>
    <g id="mercury-thermometer" transform="translate(187.008 159.879)">
      <path id="Path_104" data-name="Path 104" d="M123.752,11.055V2.4c0-1.322-2.265-2.4-5.05-2.4s-5.05,1.075-5.05,2.4v8.658c-2.239.767-3.555,1.981-3.555,3.308,0,2.252,3.86,4.084,8.6,4.084s8.6-1.832,8.6-4.084C127.307,13.036,125.991,11.823,123.752,11.055Zm-5.05,6.225c-3.389,0-6.146-1.309-6.146-2.917,0-1.029,1.108-1.962,2.963-2.5.367-.106.592-.295.592-.5V2.4c0-.678,1.162-1.23,2.591-1.23s2.592.552,2.592,1.23v.518h-.456c-.679,0-1.229.261-1.229.583s.55.583,1.229.583h.456v2.1h-.456c-.679,0-1.229.261-1.229.583s.55.583,1.229.583h.456v2.1h-.456c-.679,0-1.229.261-1.229.583s.55.583,1.229.583h.456v.75c0,.2.224.393.592.5,1.856.534,2.963,1.468,2.963,2.5C124.849,15.972,122.092,17.281,118.7,17.281Z" transform="translate(-110.098)" fill="#ce1919"/>
    </g>
    <g id="musical-note" transform="translate(216.837 159.879)">
      <g id="Group_53" data-name="Group 53" transform="translate(0)">
        <path id="Path_105" data-name="Path 105" d="M24.807,18.447a3.206,3.206,0,0,1-3.3-3.1,3.206,3.206,0,0,1,3.3-3.1.666.666,0,1,1,0,1.329,1.772,1.772,0,1,0,1.883,1.768l0-12.48a.676.676,0,0,1,.555-.649L37.856.015a.743.743,0,0,1,.6.131.65.65,0,0,1,.264.519L38.7,12.754a3.305,3.305,0,0,1-6.6,0,3.206,3.206,0,0,1,3.3-3.1.666.666,0,1,1,0,1.329,1.772,1.772,0,1,0,1.883,1.768L37.3,1.493,28.1,3.4l0,11.946A3.206,3.206,0,0,1,24.807,18.447Z" transform="translate(-21.508 0)" fill="#ce1919"/>
      </g>
    </g>
    <g id="mute-speakers" transform="translate(247.814 159.879)">
      <g id="Group_54" data-name="Group 54">
        <path id="Path_106" data-name="Path 106" d="M10.734,4.241a.574.574,0,0,0-.646.058L3.331,9.745a.585.585,0,0,0-.4-.163H.619a.652.652,0,0,0-.619.68v6.259a.652.652,0,0,0,.619.68h2.31a.585.585,0,0,0,.4-.163l6.758,5.445a.583.583,0,0,0,.367.132.573.573,0,0,0,.28-.073.691.691,0,0,0,.339-.607V4.848A.69.69,0,0,0,10.734,4.241Zm-9.5,6.7H2.31v4.9H1.239Zm2.31,4.584v-4.27L9.835,6.191v14.4Z" transform="translate(0 -4.168)" fill="#ce1919"/>
        <path id="Path_107" data-name="Path 107" d="M235.1,118.834l1.815-1.993a.728.728,0,0,0,0-.962.581.581,0,0,0-.876,0l-1.815,1.993-1.815-1.993a.581.581,0,0,0-.876,0,.729.729,0,0,0,0,.962l1.815,1.993-1.815,1.993a.729.729,0,0,0,0,.962.581.581,0,0,0,.876,0l1.815-1.993,1.815,1.993a.581.581,0,0,0,.876,0,.729.729,0,0,0,0-.962Z" transform="translate(-219.891 -109.61)" fill="#ce1919"/>
      </g>
    </g>
    <g id="notebook" transform="translate(278.791 159.879)">
      <g id="Group_55" data-name="Group 55">
        <path id="Path_108" data-name="Path 108" d="M64.626,1.5H61.768V.606a.775.775,0,0,0-1.512,0V1.5H57.534V.606a.775.775,0,0,0-1.512,0V1.5H53.3V.606a.775.775,0,0,0-1.512,0V1.5H48.929a.694.694,0,0,0-.756.606V17.842a.694.694,0,0,0,.756.606h15.7a.694.694,0,0,0,.756-.606V2.1A.694.694,0,0,0,64.626,1.5ZM63.87,17.237H49.685V2.706h2.1v.707a.775.775,0,0,0,1.512,0V2.706h2.722v.707a.775.775,0,0,0,1.512,0V2.706h2.722v.707a.775.775,0,0,0,1.512,0V2.706h2.1Z" transform="translate(-48.173)" fill="#ce1919"/>
        <path id="Path_109" data-name="Path 109" d="M113.625,139.758h-8.953a.621.621,0,1,0,0,1.211h8.953a.621.621,0,1,0,0-1.211Z" transform="translate(-100.544 -132.988)" fill="#ce1919"/>
        <path id="Path_110" data-name="Path 110" d="M113.625,209.758h-8.953a.621.621,0,1,0,0,1.211h8.953a.621.621,0,1,0,0-1.211Z" transform="translate(-100.544 -199.597)" fill="#ce1919"/>
        <path id="Path_111" data-name="Path 111" d="M113.625,279.758h-8.953a.621.621,0,1,0,0,1.211h8.953a.621.621,0,1,0,0-1.211Z" transform="translate(-100.544 -266.206)" fill="#ce1919"/>
      </g>
    </g>
    <g id="office-briefcase" transform="translate(0 191.855)">
      <path id="Path_112" data-name="Path 112" d="M15.866,35.02H12.238v-.845a1.642,1.642,0,0,0-1.388-1.807H6.36a1.642,1.642,0,0,0-1.388,1.807v.845H1.343A1.588,1.588,0,0,0,0,36.769v12.3a1.589,1.589,0,0,0,1.343,1.749H15.866a1.589,1.589,0,0,0,1.343-1.749v-12.3A1.588,1.588,0,0,0,15.866,35.02Zm-9.722-.845a.255.255,0,0,1,.215-.28h4.49a.255.255,0,0,1,.215.28v.845H6.144Zm-4.8,2.372H15.866a.2.2,0,0,1,.17.221v4.007a18.1,18.1,0,0,1-7.436,1.4,18.125,18.125,0,0,1-7.427-1.392V36.769A.2.2,0,0,1,1.343,36.547ZM15.866,49.288H1.343a.2.2,0,0,1-.17-.221V42.4a18.433,18.433,0,0,0,6.236,1.273c0,.009,0,.017,0,.026v.337a1.04,1.04,0,0,0,.88,1.145h.635a1.04,1.04,0,0,0,.88-1.145V43.7c0-.009,0-.018,0-.027a18.406,18.406,0,0,0,6.236-1.277v6.673A.2.2,0,0,1,15.866,49.288Z" transform="translate(0 -32.368)" fill="#ce1919"/>
    </g>
    <g id="outbox-send-mail" transform="translate(125.054 191.855)">
      <g id="Group_58" data-name="Group 58" transform="translate(0)">
        <path id="Path_121" data-name="Path 121" d="M98.071,5.1a.585.585,0,0,0,.419-.178l2.783-2.848V12.446a.593.593,0,1,0,1.186,0V2.072l2.783,2.848a.583.583,0,0,0,.839,0,.617.617,0,0,0,0-.858l-3.8-3.884a.583.583,0,0,0-.839,0l-3.8,3.884a.617.617,0,0,0,0,.858A.584.584,0,0,0,98.071,5.1Z" transform="translate(-93.262 0)" fill="#ce1919"/>
        <path id="Path_122" data-name="Path 122" d="M25.209,243.833H19.83a.6.6,0,0,0-.593.607v1.139a.593.593,0,1,0,1.186,0v-.532h4.193v4.181H9.779v-4.181h4.193v.532a.593.593,0,1,0,1.186,0V244.44a.6.6,0,0,0-.593-.607H9.186a.6.6,0,0,0-.593.607v5.4a.6.6,0,0,0,.593.607H25.209a.6.6,0,0,0,.593-.607v-5.4A.6.6,0,0,0,25.209,243.833Z" transform="translate(-8.593 -231.994)" fill="#ce1919"/>
      </g>
    </g>
    <g id="paper-cup-with-a-drinking-straw" transform="translate(156.031 191.855)">
      <path id="Path_123" data-name="Path 123" d="M112.485,5.509h-1.256c-.009-.308-.453-.556-1-.556h-3.884l-1.479-2.593a.7.7,0,0,0-.336-.272L100.086.12a1.57,1.57,0,0,0-1.4.1c-.341.246-.264.6.171.794l4.2,1.86,1.187,2.081H99.532c-.547,0-.991.248-1,.556H97.277c-.553,0-1,.253-1,.566s.448.566,1,.566h.063l1.69,11.289c.044.293.477.518,1,.518h9.708c.52,0,.953-.225,1-.518l1.69-11.289h.063c.553,0,1-.253,1-.566S113.037,5.509,112.485,5.509Zm-3.669,11.807h-7.87l-.585-3.905h1.192a3.686,3.686,0,0,0,6.655,0H109.4Zm-5.336-4.471a1.407,1.407,0,1,1,1.4,1.534A1.529,1.529,0,0,1,103.48,12.845Zm6.089-.566h-1.361a3.686,3.686,0,0,0-6.655,0h-1.361l-.844-5.639h11.065Z" transform="translate(-96.276 0)" fill="#ce1919"/>
    </g>
    <g id="paper-note" transform="translate(187.008 191.855)">
      <g id="Group_59" data-name="Group 59">
        <path id="Path_124" data-name="Path 124" d="M64.381,0H53a.845.845,0,0,0-.526.176l-4.342,3.5a.547.547,0,0,0-.218.424V17.848a.684.684,0,0,0,.744.6H64.381a.684.684,0,0,0,.744-.6V.6A.684.684,0,0,0,64.381,0ZM52.258,2.046V3.5h-1.8Zm11.379,15.2H49.4V4.694H53a.684.684,0,0,0,.744-.6V1.2h9.89V17.249Z" transform="translate(-47.916)" fill="#ce1919"/>
        <path id="Path_125" data-name="Path 125" d="M113.153,157.729a.613.613,0,1,0,0,1.2h2.2a.613.613,0,1,0,0-1.2Z" transform="translate(-108.568 -150.168)" fill="#ce1919"/>
        <path id="Path_126" data-name="Path 126" d="M181.153,158.927h3.99a.613.613,0,1,0,0-1.2h-3.99a.613.613,0,1,0,0,1.2Z" transform="translate(-172.519 -150.168)" fill="#ce1919"/>
        <path id="Path_127" data-name="Path 127" d="M113.153,208.927h4.585a.613.613,0,1,0,0-1.2h-4.585a.613.613,0,1,0,0,1.2Z" transform="translate(-108.568 -197.771)" fill="#ce1919"/>
        <path id="Path_128" data-name="Path 128" d="M222.761,207.729h-1.608a.613.613,0,1,0,0,1.2h1.608a.613.613,0,1,0,0-1.2Z" transform="translate(-210.137 -197.771)" fill="#ce1919"/>
        <path id="Path_129" data-name="Path 129" d="M115.059,257.729h-1.906a.613.613,0,1,0,0,1.2h1.906a.613.613,0,1,0,0-1.2Z" transform="translate(-108.568 -245.374)" fill="#ce1919"/>
        <path id="Path_130" data-name="Path 130" d="M180.441,257.729h-4.288a.613.613,0,1,0,0,1.2h4.288a.613.613,0,1,0,0-1.2Z" transform="translate(-167.817 -245.374)" fill="#ce1919"/>
      </g>
    </g>
    <g id="photo-camera" transform="translate(216.837 191.855)">
      <g id="Group_60" data-name="Group 60">
        <path id="Path_131" data-name="Path 131" d="M16.656,56.587H5.386V55.15c0-.454-.248-.823-.553-.823H2.768c-.305,0-.553.368-.553.823v1.438H.553c-.305,0-.553.368-.553.823V71.952c0,.454.248.823.553.823h16.1c.305,0,.553-.368.553-.823V57.41C17.209,56.955,16.962,56.587,16.656,56.587ZM3.321,55.972H4.28v.615H3.321Zm-2.215,2.26H9C7.3,59.272,6.09,61.77,6.09,64.681S7.3,70.09,9,71.129h-7.9Zm9.666,1.129c1.972,0,3.576,2.386,3.576,5.319S12.744,70,10.772,70,7.2,67.614,7.2,64.681,8.8,59.361,10.772,59.361ZM16.1,71.129H12.54c1.708-1.04,2.915-3.538,2.915-6.449s-1.206-5.409-2.915-6.449H16.1Z" transform="translate(0 -54.327)" fill="#ce1919"/>
        <path id="Path_132" data-name="Path 132" d="M231.553,155.912c.791,0,1.434.957,1.434,2.132,0,.454.248.823.553.823s.553-.368.553-.823c0-2.083-1.139-3.777-2.54-3.777-.305,0-.553.368-.553.823S231.248,155.912,231.553,155.912Z" transform="translate(-220.781 -147.691)" fill="#ce1919"/>
      </g>
    </g>
    <g id="pie-chart" transform="translate(247.814 191.855)">
      <g id="Group_63" data-name="Group 63">
        <g id="Group_61" data-name="Group 61" transform="translate(0 2.644)">
          <path id="Path_133" data-name="Path 133" d="M7.371,74.613a7.921,7.921,0,0,1,0-15.8.544.544,0,0,1,.524.562v6.777h6.322a.544.544,0,0,1,.524.562A7.659,7.659,0,0,1,7.371,74.613ZM6.847,59.957a6.813,6.813,0,0,0,.524,13.532,6.526,6.526,0,0,0,6.3-6.215h-6.3a.544.544,0,0,1-.524-.562Z" transform="translate(0 -58.81)" fill="#ce1919"/>
        </g>
        <g id="Group_62" data-name="Group 62" transform="translate(9.314)">
          <path id="Path_134" data-name="Path 134" d="M229.4,8.464h-6.847a.544.544,0,0,1-.524-.562V.562A.544.544,0,0,1,222.555,0a7.659,7.659,0,0,1,7.371,7.9A.544.544,0,0,1,229.4,8.464ZM223.08,7.339h5.777a6.574,6.574,0,0,0-5.777-6.192Z" transform="translate(-222.031)" fill="#ce1919"/>
        </g>
      </g>
    </g>
    <g id="old-phone" transform="translate(30.977 191.855)">
      <g id="Group_56" data-name="Group 56">
        <path id="Path_113" data-name="Path 113" d="M28.575,3.839A3.752,3.752,0,0,0,27.413.706,4.163,4.163,0,0,0,24.777,0H15.164a4.163,4.163,0,0,0-2.636.706,3.751,3.751,0,0,0-1.163,3.133,2.7,2.7,0,0,0,1.32,2.5,3.43,3.43,0,0,0,.924.363,4.2,4.2,0,0,0-1.248,3v4.551a4.174,4.174,0,0,0,4.147,4.191h6.921a4.174,4.174,0,0,0,4.147-4.191V9.705a4.213,4.213,0,0,0-1.25-3,3.432,3.432,0,0,0,.927-.364A2.7,2.7,0,0,0,28.575,3.839ZM26.431,9.705v4.551a3.019,3.019,0,0,1-3,3.032H16.51a3.019,3.019,0,0,1-3-3.032V9.705a3.048,3.048,0,0,1,2.074-2.885,3.493,3.493,0,0,0,1.989-1.759c.432-.752.723-1.213,1.246-1.213h2.3c.523,0,.78.482,1.246,1.213.951,1.493,1.811,1.707,1.818,1.709A3.025,3.025,0,0,1,26.431,9.705Zm.249-4.366a3.2,3.2,0,0,1-1.556.343,4.609,4.609,0,0,1-.695-.049l-.021,0c-.393-.054-.658-.471-1.048-1.15-.458-.8-1.028-1.791-2.238-1.791h-2.3c-1.21,0-1.78.993-2.238,1.791-.39.679-.655,1.1-1.048,1.15l-.019,0a4.6,4.6,0,0,1-.7.05c-1.529,0-2.3-.62-2.3-1.843a2.713,2.713,0,0,1,.726-2.223,3.019,3.019,0,0,1,1.925-.457h9.613c1.719,0,2.651.427,2.651,2.68A1.582,1.582,0,0,1,26.68,5.339Z" transform="translate(-11.366)" fill="#ce1919"/>
        <path id="Path_114" data-name="Path 114" d="M120.787,177.716a3.8,3.8,0,1,0,3.755,3.8A3.78,3.78,0,0,0,120.787,177.716Zm0,6.432a2.636,2.636,0,1,1,2.608-2.636A2.625,2.625,0,0,1,120.787,184.148Z" transform="translate(-112.183 -169.473)" fill="#ce1919"/>
      </g>
    </g>
    <g id="open-book" transform="translate(61.953 191.855)">
      <g id="Group_57" data-name="Group 57">
        <path id="Path_115" data-name="Path 115" d="M16.726,77.734H15.79V77.65a.865.865,0,0,0-.318-.739,6.855,6.855,0,0,0-3.517-1.039,6.778,6.778,0,0,0-3.351.943,6.78,6.78,0,0,0-3.351-.943,6.854,6.854,0,0,0-3.517,1.039.865.865,0,0,0-.317.739v.084H.483c-.267,0-.483.352-.483.786V93.534c0,.434.216.786.483.786H16.726c.267,0,.483-.352.483-.786V78.521C17.209,78.086,16.993,77.734,16.726,77.734Zm-1.9.475V90.04a6.577,6.577,0,0,0-2.868-.689,6.573,6.573,0,0,0-2.867.689V78.21a6.062,6.062,0,0,1,2.868-.764A6.063,6.063,0,0,1,14.824,78.21Zm-12.438,0a6.062,6.062,0,0,1,2.868-.764,6.063,6.063,0,0,1,2.868.764V90.04a6.577,6.577,0,0,0-2.868-.689,6.574,6.574,0,0,0-2.867.689V78.21Zm-1.419,1.1h.452V91.128a1,1,0,0,0,.206.644.373.373,0,0,0,.277.142.323.323,0,0,0,.166-.048,6.211,6.211,0,0,1,3.185-.943,6.068,6.068,0,0,1,2.868.765v1.06H.967V79.307ZM16.242,92.748H9.088v-1.06a6.064,6.064,0,0,1,2.867-.765,6.214,6.214,0,0,1,3.185.943.335.335,0,0,0,.443-.094,1,1,0,0,0,.206-.644V79.307h.452Z" transform="translate(0 -75.873)" fill="#ce1919"/>
        <path id="Path_116" data-name="Path 116" d="M87.483,148.574H90.01c.267,0,.483-.352.483-.786S90.277,147,90.01,147H87.483c-.267,0-.483.352-.483.786S87.216,148.574,87.483,148.574Z" transform="translate(-83.635 -142.527)" fill="#ce1919"/>
        <path id="Path_117" data-name="Path 117" d="M90.493,217.787c0-.434-.216-.786-.483-.786H87.483c-.267,0-.483.352-.483.786s.216.786.483.786H90.01C90.277,218.574,90.493,218.222,90.493,217.787Z" transform="translate(-83.635 -208.123)" fill="#ce1919"/>
        <path id="Path_118" data-name="Path 118" d="M268.151,148.574h2.527c.267,0,.483-.352.483-.786s-.216-.786-.483-.786h-2.527c-.267,0-.483.352-.483.786S267.884,148.574,268.151,148.574Z" transform="translate(-257.317 -142.527)" fill="#ce1919"/>
        <path id="Path_119" data-name="Path 119" d="M268.151,218.574h2.527c.267,0,.483-.352.483-.786s-.216-.786-.483-.786h-2.527c-.267,0-.483.352-.483.786S267.884,218.574,268.151,218.574Z" transform="translate(-257.317 -208.123)" fill="#ce1919"/>
      </g>
    </g>
    <g id="open-umbrella" transform="translate(92.93 191.855)">
      <path id="Path_120" data-name="Path 120" d="M14.662,33.032a8.112,8.112,0,0,0-12.115,0A9.755,9.755,0,0,0,0,39.7a.588.588,0,0,0,.485.633.412.412,0,0,0,.081.009.5.5,0,0,0,.447-.333,2.45,2.45,0,0,1,2.793-1.637A2.781,2.781,0,0,1,5.47,40.006a.46.46,0,0,0,.687.257.582.582,0,0,0,.2-.249l0-.008A2.86,2.86,0,0,1,8.1,38.359v8.006a2.2,2.2,0,0,0,1.918,2.4,2.2,2.2,0,0,0,1.918-2.4.581.581,0,0,0-.507-.634.581.581,0,0,0-.507.634,1.038,1.038,0,0,1-.9,1.131,1.038,1.038,0,0,1-.9-1.131V38.357l.043.012A2.779,2.779,0,0,1,10.817,40h0a.586.586,0,0,0,.207.26.426.426,0,0,0,.24.076.5.5,0,0,0,.447-.333A2.45,2.45,0,0,1,14.5,38.368a2.78,2.78,0,0,1,1.663,1.637.484.484,0,0,0,.526.324h.01a.581.581,0,0,0,.507-.634A9.755,9.755,0,0,0,14.662,33.032Zm.077,4.1a2.785,2.785,0,0,0-2.336.35,3.984,3.984,0,0,0-1.136,1.109,3.549,3.549,0,0,0-1.876-1.459,2.785,2.785,0,0,0-2.336.35,3.982,3.982,0,0,0-1.136,1.108,3.549,3.549,0,0,0-1.877-1.458,2.785,2.785,0,0,0-2.336.35,3.644,3.644,0,0,0-.5.378,7.732,7.732,0,0,1,7.4-6.279A7.733,7.733,0,0,1,16,37.874,3.237,3.237,0,0,0,14.739,37.135Z" transform="translate(0 -30.316)" fill="#ce1919"/>
    </g>
    <g id="piece-of-paper-and-pencil" transform="translate(278.791 191.855)">
      <path id="Path_135" data-name="Path 135" d="M19.385,6.06,18.1,4.7h0L16.813,3.335a.523.523,0,0,0-.77,0l-.636.673V.577A.562.562,0,0,0,14.862,0H2.88a.562.562,0,0,0-.545.577V17.871a.562.562,0,0,0,.545.577H14.862a.562.562,0,0,0,.545-.577v-6.78l3.978-4.214A.6.6,0,0,0,19.385,6.06ZM14.318,17.294H3.424V1.154H14.318V5.163L9.817,9.93a.589.589,0,0,0-.148.291L9,13.656a.6.6,0,0,0,.148.525.53.53,0,0,0,.385.169.516.516,0,0,0,.11-.012l3.241-.709a.536.536,0,0,0,.275-.157l1.158-1.227v5.049ZM10.532,11.5l1.144,1.212-1.441.315Zm2.243.744-1.8-1.909,5.455-5.779.516.547L13.617,8.63a.6.6,0,0,0,0,.816.523.523,0,0,0,.77,0l3.327-3.525.516.547Z" transform="translate(-2.335)" fill="#ce1919"/>
    </g>
    <g id="play-button" transform="translate(0 223.831)">
      <g id="Group_64" data-name="Group 64">
        <path id="Path_136" data-name="Path 136" d="M14.066,0H3.143A3.266,3.266,0,0,0,0,3.37V15.078a3.266,3.266,0,0,0,3.143,3.37H14.066a3.266,3.266,0,0,0,3.143-3.37V3.37A3.266,3.266,0,0,0,14.066,0ZM16.12,15.078a2.134,2.134,0,0,1-2.054,2.2H3.143a2.134,2.134,0,0,1-2.054-2.2V3.37a2.134,2.134,0,0,1,2.054-2.2H14.066a2.134,2.134,0,0,1,2.054,2.2V15.078Z" fill="#ce1919"/>
        <path id="Path_137" data-name="Path 137" d="M142.843,87.968l-5.54-4.76a.515.515,0,0,0-.576-.071.589.589,0,0,0-.309.526v9.52a.589.589,0,0,0,.309.526.513.513,0,0,0,.236.057.522.522,0,0,0,.341-.128l5.54-4.76a.611.611,0,0,0,0-.911Zm-5.336,4V84.879l4.125,3.544Z" transform="translate(-130.474 -79.199)" fill="#ce1919"/>
      </g>
    </g>
    <g id="power-button" transform="translate(30.977 223.831)">
      <g id="Group_67" data-name="Group 67" transform="translate(0)">
        <g id="Group_65" data-name="Group 65" transform="translate(7.929)">
          <path id="Path_138" data-name="Path 138" d="M165.658,9.166a.663.663,0,0,1-.675-.65V.65a.676.676,0,0,1,1.351,0V8.516A.663.663,0,0,1,165.658,9.166Z" transform="translate(-164.983)" fill="#ce1919"/>
        </g>
        <g id="Group_66" data-name="Group 66" transform="translate(0 2.199)">
          <path id="Path_139" data-name="Path 139" d="M26.8,58.554a8.456,8.456,0,0,1-8.6-8.278,8,8,0,0,1,1.751-5.006,8.683,8.683,0,0,1,4.43-2.939.679.679,0,0,1,.838.441.646.646,0,0,1-.458.806,7.057,7.057,0,0,0-5.21,6.7,7.26,7.26,0,0,0,14.508,0,7.057,7.057,0,0,0-5.21-6.7.646.646,0,0,1-.458-.806.679.679,0,0,1,.838-.441,8.683,8.683,0,0,1,4.43,2.939,8,8,0,0,1,1.751,5.006A8.456,8.456,0,0,1,26.8,58.554Z" transform="translate(-18.197 -42.305)" fill="#ce1919"/>
        </g>
      </g>
    </g>
    <g id="pushpin" transform="translate(61.954 223.831)">
      <path id="Path_140" data-name="Path 140" d="M17.042,6.824,10.844.18a.547.547,0,0,0-.811,0A8.379,8.379,0,0,0,9,2.935H9L6.515,5.6a2.079,2.079,0,0,0-.7-.123,2.122,2.122,0,0,0-1.561.693,2.492,2.492,0,0,0,0,3.346l1.634,1.752L.169,17.4a.647.647,0,0,0,0,.87.547.547,0,0,0,.811,0L6.7,12.141,8.33,13.893a2.1,2.1,0,0,0,3.122,0,2.488,2.488,0,0,0,.532-2.428L14.472,8.8a7.209,7.209,0,0,0,2.57-1.1A.647.647,0,0,0,17.042,6.824Zm-2.982.815a.566.566,0,0,0-.314.192c-.031.037-.058.068-.085.1l-2.768,2.967a.648.648,0,0,0-.088.747,1.2,1.2,0,0,1-.164,1.381,1.01,1.01,0,0,1-1.5,0L7.1,10.837h0L5.061,8.649a1.2,1.2,0,0,1,0-1.607,1.019,1.019,0,0,1,.75-.333,1.006,1.006,0,0,1,.538.157.545.545,0,0,0,.7-.095L9.814,3.8c.028-.03.058-.06.089-.09a.627.627,0,0,0,.181-.338,13.547,13.547,0,0,1,.493-1.744l5.11,5.477A11.3,11.3,0,0,1,14.059,7.639Z" transform="translate(0 0)" fill="#ce1919"/>
    </g>
    <g id="question-mark" transform="translate(92.93 223.831)">
      <g id="Group_68" data-name="Group 68">
        <path id="Path_141" data-name="Path 141" d="M14.066,0H3.143A3.266,3.266,0,0,0,0,3.37V15.078a3.266,3.266,0,0,0,3.143,3.37H14.066a3.266,3.266,0,0,0,3.143-3.37V3.37A3.266,3.266,0,0,0,14.066,0ZM16.12,15.078a2.134,2.134,0,0,1-2.054,2.2H3.143a2.134,2.134,0,0,1-2.054-2.2V3.37a2.134,2.134,0,0,1,2.054-2.2H14.066a2.134,2.134,0,0,1,2.054,2.2V15.078Z" fill="#ce1919"/>
        <path id="Path_142" data-name="Path 142" d="M138.917,79.908a2.773,2.773,0,0,0-2.669,2.861.546.546,0,1,0,1.089,0,1.583,1.583,0,1,1,3.159,0c0,.537-.362.9-.959,1.423a2.6,2.6,0,0,0-1.165,1.9v1.873a.546.546,0,1,0,1.089,0V86.091c0-.319.356-.634.769-1a3.086,3.086,0,0,0,1.355-2.324A2.773,2.773,0,0,0,138.917,79.908Z" transform="translate(-130.312 -76.176)" fill="#ce1919"/>
        <path id="Path_143" data-name="Path 143" d="M182.166,283.024a.751.751,0,1,0,.7.749A.726.726,0,0,0,182.166,283.024Z" transform="translate(-173.561 -269.806)" fill="#ce1919"/>
      </g>
    </g>
    <g id="reusable-shopping-bag" transform="translate(125.054 223.831)">
      <path id="Path_144" data-name="Path 144" d="M54.627,17.792,53.574,3.84a.64.64,0,0,0-.67-.546h-2.94V2.919A3.166,3.166,0,0,0,46.6,0H45.449A3.166,3.166,0,0,0,42.09,2.919v.376h-2.94a.64.64,0,0,0-.67.546L37.424,17.826a.54.54,0,0,0,.18.437.723.723,0,0,0,.49.185H53.96a.632.632,0,0,0,.672-.584A.524.524,0,0,0,54.627,17.792ZM43.434,2.919a1.9,1.9,0,0,1,2.016-1.751H46.6A1.9,1.9,0,0,1,48.62,2.919v.376H43.434ZM38.812,17.28,39.78,4.462h2.31v.521a1.279,1.279,0,0,0-.806,1.143,1.493,1.493,0,0,0,2.956,0,1.279,1.279,0,0,0-.806-1.143V4.462H48.62v.521a1.279,1.279,0,0,0-.806,1.143,1.493,1.493,0,0,0,2.956,0,1.279,1.279,0,0,0-.806-1.143V4.462h2.31l.968,12.818Z" transform="translate(-37.423)" fill="#ce1919"/>
    </g>
    <g id="satellite-dish" transform="translate(156.031 223.831)">
      <path id="Path_145" data-name="Path 145" d="M42.671,14.785a10.757,10.757,0,0,0,7.031-2.5.633.633,0,0,0,0-.99L46.224,8.306V3.892a.764.764,0,0,0-.815-.7H40.27L36.792.2A.912.912,0,0,0,35.64.2a7.726,7.726,0,0,0,0,12.079,10.167,10.167,0,0,0,3.205,1.849v2.915H36.367a.708.708,0,1,0,0,1.4h6.586a.708.708,0,1,0,0-1.4H40.475v-2.47A11.608,11.608,0,0,0,42.671,14.785ZM44.594,4.592V6.906L41.9,4.592Zm-8.35-2.878,11.7,10.051a9.119,9.119,0,0,1-5.275,1.62,8.993,8.993,0,0,1-5.879-2.092A6.43,6.43,0,0,1,36.244,1.714Z" transform="translate(-32.732 0)" fill="#ce1919"/>
    </g>
    <g id="screwdriver-and-wrench" transform="translate(187.008 223.83)">
      <g id="Group_69" data-name="Group 69">
        <path id="Path_146" data-name="Path 146" d="M16.9,42.623a.52.52,0,0,0-.348-.355.412.412,0,0,0-.424.168l-1.759,2.258a1.2,1.2,0,0,1-1.994,0,2.206,2.206,0,0,1,0-2.57l1.757-2.258a.734.734,0,0,0,.132-.547.61.61,0,0,0-.276-.449,3.009,3.009,0,0,0-1.485-.4,3.118,3.118,0,0,0-2.473,1.295l-.579.747a5.509,5.509,0,0,0-.79,4.873l-.589.76-.614-.791.247-.318a.745.745,0,0,0,0-.868l-2.4-3.091a2.966,2.966,0,0,0-.512-2.327,1.726,1.726,0,0,0-1.361-.727,1.727,1.727,0,0,0-1.361.727L.564,40.691a3.011,3.011,0,0,0,0,3.508,1.726,1.726,0,0,0,1.36.726h0a1.518,1.518,0,0,0,.445-.067l2.4,3.092a.405.405,0,0,0,.674,0l.247-.318.614.791-2.4,3.1a3.518,3.518,0,0,0,0,4.1,2.017,2.017,0,0,0,1.59.849,2.017,2.017,0,0,0,1.59-.849l2.4-3.1L11.872,55.6a.474.474,0,0,0,.189.15l1.626.683a.379.379,0,0,0,.147.03.43.43,0,0,0,.337-.18.745.745,0,0,0,.116-.624l-.53-2.1a.664.664,0,0,0-.116-.244L11.252,50.24l.59-.76a2.86,2.86,0,0,0,1.288.313,3.161,3.161,0,0,0,2.492-1.331l.579-.746A5.629,5.629,0,0,0,16.9,42.623ZM5.1,46.648,2.836,43.724a.43.43,0,0,0-.337-.18.387.387,0,0,0-.189.05.786.786,0,0,1-.386.1.871.871,0,0,1-.687-.366,1.52,1.52,0,0,1,0-1.771l1.509-1.945a.872.872,0,0,1,.687-.367.872.872,0,0,1,.687.367A1.52,1.52,0,0,1,4.325,41a.749.749,0,0,0,.1.678L6.694,44.6Zm1.257.116.423-.545.614.791-.423.545Zm6.526,7.322.2.808-.627-.263-2.31-2.978.423-.545Zm2.639-7.239-.579.746a2.307,2.307,0,0,1-1.819.971,2.119,2.119,0,0,1-1.181-.368.424.424,0,0,0-.591.162l-4.951,6.39a1.162,1.162,0,0,1-.916.489,1.162,1.162,0,0,1-.916-.489,2.027,2.027,0,0,1,0-2.362L9.53,46.005a.763.763,0,0,0,.126-.762,4.031,4.031,0,0,1,.469-3.866l.579-.747a2.264,2.264,0,0,1,1.8-.935,2.128,2.128,0,0,1,.385.035L11.7,41.256a3.7,3.7,0,0,0,0,4.307,2.01,2.01,0,0,0,3.341,0l1.19-1.527A3.961,3.961,0,0,1,15.527,46.848Z" transform="translate(0 -38.019)" fill="#ce1919"/>
        <path id="Path_147" data-name="Path 147" d="M128.2,332.171a.666.666,0,0,0-.525.281,1.163,1.163,0,0,0,0,1.355.632.632,0,0,0,1.051,0,1.163,1.163,0,0,0,0-1.355A.667.667,0,0,0,128.2,332.171Z" transform="translate(-122.597 -317.722)" fill="#ce1919"/>
      </g>
    </g>
    <g id="selection-tool" transform="translate(216.837 223.831)">
      <path id="Path_148" data-name="Path 148" d="M46.446,7.887c0-4.349-3.86-7.887-8.6-7.887s-8.6,3.538-8.6,7.887a7.7,7.7,0,0,0,3.626,6.433,1.855,1.855,0,0,0,.526,1.106L35.3,17.394q.029.03.06.058a3.967,3.967,0,0,0,2.472,1H39.7a3.4,3.4,0,0,0,2.16-.743,2.53,2.53,0,0,0,.965-1.941v-1.45A7.7,7.7,0,0,0,46.446,7.887ZM39.7,17.3H37.827a2.665,2.665,0,0,1-1.6-.67l-1.907-1.968a.755.755,0,0,1,.073-1.131.931.931,0,0,1,1.234.067l.309.319V10.308a.877.877,0,0,1,1.748,0v1.874a.929.929,0,0,1,.445-.112.875.875,0,0,1,.814.511.926.926,0,0,1,.47-.127.857.857,0,0,1,.858.652A.93.93,0,0,1,40.708,13a.84.84,0,0,1,.874.8v1.964A1.735,1.735,0,0,1,39.7,17.3ZM42.641,13a2.125,2.125,0,0,0-1.746-1.136,2.222,2.222,0,0,0-1.48-.552H39.4l-.053-.035a2.182,2.182,0,0,0-.41-.205v-.762a2.129,2.129,0,0,0-4.242,0v1.9a2.21,2.21,0,0,0-1.124.473,2.008,2.008,0,0,0-.389.421,6.533,6.533,0,0,1-2.693-5.215c0-3.719,3.3-6.744,7.358-6.744S45.2,4.168,45.2,7.887A6.519,6.519,0,0,1,42.641,13Z" transform="translate(-29.237)" fill="#ce1919"/>
    </g>
    <g id="shopping-basket" transform="translate(247.814 223.83)">
      <g id="Group_70" data-name="Group 70">
        <path id="Path_149" data-name="Path 149" d="M14.964,22.143h-.916a5.6,5.6,0,0,0-.811-3.3,4.077,4.077,0,0,0-2.813-1.521,1.023,1.023,0,0,0-.9-.588H7.686a1.023,1.023,0,0,0-.9.588,4.077,4.077,0,0,0-2.813,1.521,5.6,5.6,0,0,0-.811,3.3H2.246A2.476,2.476,0,0,0,0,24.794a2.61,2.61,0,0,0,1.7,2.572V31.7a3.258,3.258,0,0,0,2.955,3.488h7.9A3.258,3.258,0,0,0,15.507,31.7v-4.33a2.61,2.61,0,0,0,1.7-2.572A2.476,2.476,0,0,0,14.964,22.143ZM4.871,19.751A3.054,3.054,0,0,1,6.957,18.7a.98.98,0,0,0,.729.336H9.523a.98.98,0,0,0,.729-.336,3.054,3.054,0,0,1,2.086,1.047,4.216,4.216,0,0,1,.528,2.392H4.344A4.215,4.215,0,0,1,4.871,19.751Zm10.093,6.3h-.057a.543.543,0,0,0-.429.226.868.868,0,0,0-.153.532V31.7a1.955,1.955,0,0,1-1.773,2.093h-7.9A1.955,1.955,0,0,1,2.884,31.7V26.808a.845.845,0,0,0-.153-.532.54.54,0,0,0-.428-.226H2.246a1.273,1.273,0,0,1,0-2.511H14.964a1.273,1.273,0,0,1,0,2.511Z" transform="translate(0 -16.737)" fill="#ce1919"/>
        <path id="Path_150" data-name="Path 150" d="M100.107,207.163a.651.651,0,0,0-.591.7v3.014a.6.6,0,1,0,1.182,0v-3.014A.651.651,0,0,0,100.107,207.163Z" transform="translate(-94.811 -196.536)" fill="#ce1919"/>
        <path id="Path_151" data-name="Path 151" d="M170.107,207.163a.651.651,0,0,0-.591.7v3.014a.6.6,0,1,0,1.182,0v-3.014A.651.651,0,0,0,170.107,207.163Z" transform="translate(-161.502 -196.536)" fill="#ce1919"/>
        <path id="Path_152" data-name="Path 152" d="M240.107,207.163a.651.651,0,0,0-.591.7v3.014a.6.6,0,1,0,1.182,0v-3.014A.651.651,0,0,0,240.107,207.163Z" transform="translate(-228.193 -196.536)" fill="#ce1919"/>
      </g>
    </g>
    <g id="shopping-cart" transform="translate(278.791 223.831)">
      <path id="Path_153" data-name="Path 153" d="M16.62,8.2H4.16L3.443,6.338a.609.609,0,0,0-.407-.379l-2.311-.6a.589.589,0,0,0-.709.484.656.656,0,0,0,.439.783l2.021.525L7.648,20.58A2.314,2.314,0,0,0,7.4,21.637a2.061,2.061,0,0,0,1.949,2.152,2.06,2.06,0,0,0,1.949-2.152,2.334,2.334,0,0,0-.155-.841h2.122a2.334,2.334,0,0,0-.155.841,2.061,2.061,0,0,0,1.949,2.152,2.163,2.163,0,0,0,0-4.3l-6.544.01L7.7,17.4H16.62a.622.622,0,0,0,.589-.651v-7.9A.622.622,0,0,0,16.62,8.2ZM15.056,20.787a.855.855,0,1,1-.77.85A.813.813,0,0,1,15.056,20.787Zm-5.709,0a.855.855,0,1,1-.77.85A.813.813,0,0,1,9.348,20.787Zm6.682-8.637H12.124a.654.654,0,0,0,0,1.3H16.03V16.1H7.2L4.662,9.5H16.03v2.647Z" transform="translate(0 -5.341)" fill="#ce1919"/>
    </g>
    <g id="smartphone" transform="translate(0 255.806)">
      <path id="Path_154" data-name="Path 154" d="M84.324,0H68.885C68.4,0,68,.272,68,.608V17.839c0,.336.4.608.885.608H84.324c.489,0,.885-.272.885-.608V.608C85.209.272,84.813,0,84.324,0ZM69.771,14.9V3.55H83.439V14.9ZM80.384,1.217v.037c0,.336.4.608.885.608s.885-.272.885-.608V1.217h1.285V2.333H69.771V1.217ZM69.771,17.231V16.115h5.66a1.556,1.556,0,0,0,2.349,0h5.66v1.116Z" transform="translate(-68)" fill="#ce1919"/>
    </g>
    <g id="speech-bubble-with-text-lines" transform="translate(30.977 255.806)">
      <g id="Group_71" data-name="Group 71">
        <path id="Path_155" data-name="Path 155" d="M14.192,7.23H3.017A3.213,3.213,0,0,0,0,10.6v7.7a3.212,3.212,0,0,0,3.017,3.371h7.118l3.407,3.807a.573.573,0,0,0,.427.2.548.548,0,0,0,.231-.051A.679.679,0,0,0,14.572,25V21.647A3.27,3.27,0,0,0,17.209,18.3V10.6A3.213,3.213,0,0,0,14.192,7.23ZM16,18.3a1.927,1.927,0,0,1-1.81,2.023h-.223a.642.642,0,0,0-.6.674v2.377l-2.554-2.853a.573.573,0,0,0-.427-.2H3.017A1.927,1.927,0,0,1,1.207,18.3V10.6a1.927,1.927,0,0,1,1.81-2.023H14.192A1.927,1.927,0,0,1,16,10.6Z" transform="translate(0 -7.23)" fill="#ce1919"/>
        <path id="Path_156" data-name="Path 156" d="M83.228,95.743H74.345a.678.678,0,0,0,0,1.348h8.883a.678.678,0,0,0,0-1.348Z" transform="translate(-70.182 -90.969)" fill="#ce1919"/>
        <path id="Path_157" data-name="Path 157" d="M83.228,165.743H74.345a.678.678,0,0,0,0,1.348h8.883a.678.678,0,0,0,0-1.348Z" transform="translate(-70.182 -157.193)" fill="#ce1919"/>
      </g>
    </g>
    <g id="speech-bubble" transform="translate(61.953 255.806)">
      <path id="Path_158" data-name="Path 158" d="M14.644,6.484A9.063,9.063,0,0,0,8.6,4.257,9.063,9.063,0,0,0,2.566,6.484a7.242,7.242,0,0,0,0,11.06A9.062,9.062,0,0,0,8.6,19.771c.232,0,.465-.008.7-.025L10.768,22.4a.575.575,0,0,0,.484.307h.013a.569.569,0,0,0,.483-.282l3.1-5.069a7.233,7.233,0,0,0-.207-10.869ZM14,16.476,11.29,20.882l-1.18-2.135a.573.573,0,0,0-.5-.307.553.553,0,0,0-.059,0,8.628,8.628,0,0,1-.949.053c-4.1,0-7.442-2.907-7.442-6.481S4.5,5.533,8.6,5.533s7.442,2.907,7.442,6.481A6.036,6.036,0,0,1,14,16.476Z" transform="translate(0 -4.257)" fill="#ce1919"/>
    </g>
    <g id="star" transform="translate(92.93 255.806)">
      <g id="Group_72" data-name="Group 72" transform="translate(0)">
        <path id="Path_159" data-name="Path 159" d="M13.544,26.424a.56.56,0,0,1-.285-.079L8.6,23.6,3.951,26.344a.558.558,0,0,1-.646-.052.73.73,0,0,1-.244-.673L3.95,19.8.185,15.678a.748.748,0,0,1-.155-.706A.638.638,0,0,1,.525,14.5l5.2-.849L8.055,8.36a.585.585,0,0,1,1.1,0l2.327,5.295,5.2.849a.638.638,0,0,1,.495.469.748.748,0,0,1-.155.706L13.259,19.8l.889,5.82a.73.73,0,0,1-.244.673A.568.568,0,0,1,13.544,26.424ZM1.93,15.666l3.107,3.4a.742.742,0,0,1,.176.609l-.733,4.8,3.84-2.267a.554.554,0,0,1,.57,0l3.84,2.267L12,19.675a.742.742,0,0,1,.176-.609l3.107-3.4-4.293-.7a.623.623,0,0,1-.462-.377L8.6,10.22l-1.92,4.369a.623.623,0,0,1-.462.377Z" transform="translate(0 -7.976)" fill="#ce1919"/>
      </g>
    </g>
    <g id="subtracting-button" transform="translate(125.054 255.806)">
      <g id="Group_75" data-name="Group 75">
        <g id="Group_73" data-name="Group 73">
          <path id="Path_160" data-name="Path 160" d="M8.6,18.449C3.86,18.449,0,14.311,0,9.225S3.86,0,8.6,0s8.6,4.138,8.6,9.224S13.349,18.449,8.6,18.449Zm0-16.935A7.475,7.475,0,0,0,1.411,9.225,7.475,7.475,0,0,0,8.6,16.936,7.475,7.475,0,0,0,15.8,9.225,7.475,7.475,0,0,0,8.6,1.513Z" transform="translate(0 -0.001)" fill="#ce1919"/>
        </g>
        <g id="Group_74" data-name="Group 74" transform="translate(3.753 8.468)">
          <path id="Path_161" data-name="Path 161" d="M75.505,141.513H67.211a.758.758,0,0,1,0-1.512h8.294a.758.758,0,0,1,0,1.512Z" transform="translate(-66.506 -140.001)" fill="#ce1919"/>
        </g>
      </g>
    </g>
    <g id="tablet" transform="translate(156.031 255.806)">
      <path id="Path_162" data-name="Path 162" d="M54.5,0H38.71A.665.665,0,0,0,38,.608V17.839a.665.665,0,0,0,.71.608H54.5a.665.665,0,0,0,.71-.608V.608A.665.665,0,0,0,54.5,0Zm-3.16,1.217v.037a.718.718,0,0,0,1.42,0V1.217h1.03V14.9H39.42V1.217ZM39.42,17.231V16.115h6.243a1.1,1.1,0,0,0,1.884,0h6.243v1.116Z" transform="translate(-38)" fill="#ce1919"/>
    </g>
    <g id="telephone-handle" transform="translate(187.008 255.806)">
      <g id="Group_76" data-name="Group 76" transform="translate(0)">
        <path id="Path_163" data-name="Path 163" d="M12.942,18.453a4.545,4.545,0,0,1-3.135-1.76L1.642,7.94A5.413,5.413,0,0,1,.021,4.957,4.828,4.828,0,0,1,1.642,1.15,3.18,3.18,0,0,1,3.984,0C6,0,7.534,2.242,7.664,2.437A3.757,3.757,0,0,1,7.8,5.614c-.273,1.1-.416,1.8.06,2.314l1.956,2.1a1.031,1.031,0,0,0,.818.333,5.263,5.263,0,0,0,1.34-.268,6.028,6.028,0,0,1,1.613-.306,2.094,2.094,0,0,1,1.351.454A5.938,5.938,0,0,1,17.2,13.908a3.566,3.566,0,0,1-1.057,2.784A4.522,4.522,0,0,1,12.942,18.453ZM3.984,1.3A2.032,2.032,0,0,0,2.5,2.068,3.617,3.617,0,0,0,1.223,4.805,4.061,4.061,0,0,0,2.5,7.023l8.165,8.752a3.355,3.355,0,0,0,2.279,1.38,3.466,3.466,0,0,0,2.342-1.38,2.251,2.251,0,0,0,.707-1.752,4.722,4.722,0,0,0-1.759-2.732l-.017-.013a.941.941,0,0,0-.627-.2,5.167,5.167,0,0,0-1.3.263,6.139,6.139,0,0,1-1.651.312h0a2.2,2.2,0,0,1-1.673-.713l-1.956-2.1c-.994-1.065-.65-2.451-.374-3.564.246-.993.373-1.628.062-2.068L6.68,3.194C6.669,3.176,5.413,1.3,3.984,1.3Z" transform="translate(0 -0.005)" fill="#ce1919"/>
      </g>
    </g>
    <g id="television-with-antenna" transform="translate(216.837 255.806)">
      <path id="Path_164" data-name="Path 164" d="M35.194,5.216H28.431l3.2-3.089a.6.6,0,0,0,0-.87.653.653,0,0,0-.9,0l-3.5,3.383L22.608.18a.653.653,0,0,0-.9,0,.6.6,0,0,0,0,.87l4.314,4.166H19.259a.626.626,0,0,0-.637.615v9.226a.626.626,0,0,0,.637.615H24.6v.485l-2.572,1.114a.607.607,0,0,0-.32.813.639.639,0,0,0,.581.363.654.654,0,0,0,.26-.054l2.823-1.224h3.7L31.9,18.394a.654.654,0,0,0,.26.054.639.639,0,0,0,.581-.363.607.607,0,0,0-.32-.813l-2.572-1.114v-.485h5.345a.626.626,0,0,0,.637-.615V5.831A.626.626,0,0,0,35.194,5.216ZM28.575,15.94h-2.7v-.269h2.7Zm5.982-1.5H19.9v-8H34.558v8Z" transform="translate(-18.622 0)" fill="#ce1919"/>
    </g>
    <g id="television" transform="translate(247.814 255.806)">
      <path id="Path_165" data-name="Path 165" d="M16.618,36.765H.591c-.326,0-.591.355-.591.794V51.34c0,.438.265.794.591.794H6.335v1.491H4.929c-.326,0-.591.356-.591.794s.265.794.591.794H12.28c.326,0,.591-.355.591-.794s-.265-.794-.591-.794H10.874V52.134h5.744c.326,0,.591-.355.591-.794V37.559C17.209,37.12,16.945,36.765,16.618,36.765ZM9.692,53.625H7.517V52.134H9.692Zm6.335-3.078h-.672v-.673c0-.438-.265-.794-.591-.794s-.591.355-.591.794v.673H13.2v-.673c0-.438-.265-.794-.591-.794s-.591.355-.591.794v.673H1.182V38.353H16.027Z" transform="translate(0 -36.765)" fill="#ce1919"/>
    </g>
    <g id="thumb-up" transform="translate(278.791 255.806)">
      <g id="Group_79" data-name="Group 79" transform="translate(0)">
        <g id="Group_78" data-name="Group 78">
          <g id="Group_77" data-name="Group 77">
            <path id="Path_166" data-name="Path 166" d="M44.614,1.318a1.337,1.337,0,0,1,1.337,1.115,6.488,6.488,0,0,1-.9,4.9h3.3A1.713,1.713,0,0,1,50.181,8.85a1.48,1.48,0,0,1-1.3,1.516,1.353,1.353,0,0,1,.247.772,1.54,1.54,0,0,1-1.124,1.413,1.36,1.36,0,0,1,.278.816,1.6,1.6,0,0,1-1.434,1.49,1.351,1.351,0,0,1,.236.755,1.653,1.653,0,0,1-1.762,1.516l-1.87,0c-5.532,0-4.49-1.652-7.42-1.652V9.222c1.872,0,3.5-.085,5.133-2.307a9.038,9.038,0,0,0,2.188-4.64,1.212,1.212,0,0,1,1.259-.958m0-1.318h0a3.106,3.106,0,0,0-1.8.56,2.328,2.328,0,0,0-.979,1.551,7.807,7.807,0,0,1-1.918,4.04l-.044.06C38.629,7.9,37.652,7.9,36.034,7.9A1.436,1.436,0,0,0,34.5,9.222v6.256A1.436,1.436,0,0,0,36.034,16.8a2.515,2.515,0,0,1,1.549.423,8.043,8.043,0,0,0,2.022.837,15.522,15.522,0,0,0,3.849.391h1.871a3.093,3.093,0,0,0,3.292-2.834c0-.019,0-.039,0-.058a2.7,2.7,0,0,0,1.2-2.187,2.434,2.434,0,0,0-.02-.314,3.021,3.021,0,0,0,.275-.3,2.553,2.553,0,0,0,.591-1.619c0-.034,0-.068,0-.1A2.846,2.846,0,0,0,51.712,8.85a2.616,2.616,0,0,0-1.021-2.026,3.676,3.676,0,0,0-2.334-.808H47.3a7.532,7.532,0,0,0,.153-3.833A2.7,2.7,0,0,0,46.441.592,3.046,3.046,0,0,0,44.614,0Z" transform="translate(-34.503)" fill="#ce1919"/>
          </g>
        </g>
      </g>
    </g>
    <g id="unlocked-padlock" transform="translate(0 286.552)">
      <g id="Group_80" data-name="Group 80">
        <path id="Path_167" data-name="Path 167" d="M70.136,7.05H67.688l.724-2.329c.559-1.8-.914-3.6-3.283-4.026L61.745.09A5.6,5.6,0,0,0,58.411.5,3.539,3.539,0,0,0,56.437,2.58c-.1.337.171.675.616.755a.865.865,0,0,0,1-.467,2.212,2.212,0,0,1,1.234-1.3,3.5,3.5,0,0,1,2.084-.257l3.385.605c1.48.265,2.4,1.393,2.052,2.516L65.988,7.05H54.582a.749.749,0,0,0-.828.628v6.13c0,2.558,2.745,4.639,6.118,4.639h4.973c3.374,0,6.118-2.081,6.118-4.639V7.678A.749.749,0,0,0,70.136,7.05Zm-.828,6.758c0,1.866-2,3.384-4.463,3.384H59.872c-2.461,0-4.463-1.518-4.463-3.384v-5.5h13.9v5.5Z" transform="translate(-53.754 0)" fill="#ce1919"/>
        <path id="Path_168" data-name="Path 168" d="M169,248.216a.859.859,0,0,0,1.655,0v-1.792a.531.531,0,0,0,.157-.367.749.749,0,0,0-.828-.628h-.314a.749.749,0,0,0-.828.628.531.531,0,0,0,.157.367Z" transform="translate(-161.22 -233.107)" fill="#ce1919"/>
      </g>
    </g>
    <g id="update-arrow" transform="translate(30.977 286.552)">
      <path id="Path_169" data-name="Path 169" d="M17.176,22.127a.654.654,0,0,0-.841-.485l-.867.319a10.241,10.241,0,0,0,.81-4.014c0-5.086-3.651-9.224-8.139-9.224S0,12.862,0,17.948s3.651,9.224,8.139,9.224a.762.762,0,0,0,0-1.512c-3.752,0-6.8-3.459-6.8-7.712s3.053-7.712,6.8-7.712,6.8,3.459,6.8,7.712a8.558,8.558,0,0,1-.679,3.361l-.3-1.034a.654.654,0,0,0-.841-.485.781.781,0,0,0-.428.953l.787,2.744a.681.681,0,0,0,.634.523.6.6,0,0,0,.206-.037l2.421-.891A.781.781,0,0,0,17.176,22.127Z" transform="translate(0 -8.724)" fill="#ce1919"/>
    </g>
    <g id="update-arrows" transform="translate(61.953 286.552)">
      <g id="Group_81" data-name="Group 81" transform="translate(0)">
        <path id="Path_170" data-name="Path 170" d="M24.19,10.757a.629.629,0,0,0-.742.543l-.454,2.4a7.991,7.991,0,0,0-7.006-4.543c-4.478,0-8.121,4.124-8.121,9.194a.67.67,0,0,0,.625.707.67.67,0,0,0,.625-.707c0-4.29,3.082-7.779,6.871-7.779a6.767,6.767,0,0,1,5.943,3.872l-2.083-.505a.629.629,0,0,0-.742.543.712.712,0,0,0,.48.84l3.575.867a.553.553,0,0,0,.183.013.578.578,0,0,0,.287-.111.714.714,0,0,0,.272-.446L24.67,11.6A.712.712,0,0,0,24.19,10.757Z" transform="translate(-7.475 -9.155)" fill="#ce1919"/>
        <path id="Path_171" data-name="Path 171" d="M16.087,155.263a.676.676,0,0,0-.6.73,8.336,8.336,0,0,1-1.851,5.573,6.509,6.509,0,0,1-4.79,2.459c-.076,0-.153,0-.229,0a6.736,6.736,0,0,1-5.844-3.688L4.941,161a.621.621,0,0,0,.765-.5.721.721,0,0,0-.442-.866l-3.531-1.072a.562.562,0,0,0-.474.071.7.7,0,0,0-.291.429l-.947,4a.721.721,0,0,0,.442.866.557.557,0,0,0,.162.024.643.643,0,0,0,.6-.524l.532-2.247a7.943,7.943,0,0,0,6.853,4.264c.09,0,.18,0,.27-.005a7.693,7.693,0,0,0,5.661-2.906,9.852,9.852,0,0,0,2.188-6.586A.663.663,0,0,0,16.087,155.263Z" transform="translate(0 -146.997)" fill="#ce1919"/>
      </g>
    </g>
    <g id="uploading-files-to-the-cloud" transform="translate(92.93 286.552)">
      <path id="Path_172" data-name="Path 172" d="M13.413,70.006C12.674,68.157,11.4,67.028,10,67.028a2.586,2.586,0,0,0-.555.061c-.755-1.657-1.977-2.663-3.274-2.663-2.205,0-4,2.829-4.041,6.329A7.576,7.576,0,0,0,0,76.433c0,3.551,1.813,6.439,4.042,6.439h9.126c2.229,0,4.042-2.889,4.042-6.439C17.209,73.014,15.528,70.209,13.413,70.006Zm-.246,11.126H9.151v-7.52L10.84,76.3a.42.42,0,0,0,.772,0,1.263,1.263,0,0,0,0-1.231L8.991,70.9a.42.42,0,0,0-.772,0L5.6,75.073a1.264,1.264,0,0,0,0,1.231.472.472,0,0,0,.386.255.472.472,0,0,0,.386-.255l1.689-2.691v7.52H4.042c-1.626,0-2.949-2.108-2.949-4.7A5.254,5.254,0,0,1,2.9,72.1a1,1,0,0,0,.333-.869c-.006-.12-.009-.243-.009-.365,0-2.591,1.323-4.7,2.949-4.7,1.042,0,2.017.891,2.546,2.325.122.33.364.495.6.406A1.928,1.928,0,0,1,10,68.768c1.1,0,2.1.96,2.609,2.5.1.291.288.471.494.463h.06c1.626,0,2.949,2.108,2.949,4.7S14.794,81.132,13.168,81.132Z" transform="translate(0 -64.425)" fill="#ce1919"/>
    </g>
    <g id="video-camera" transform="translate(125.054 286.552)">
      <path id="Path_173" data-name="Path 173" d="M36.873,8.293a.649.649,0,0,0-.517-.13l-2.181.386V7.232a.617.617,0,0,0-.63-.6h-.382A3.73,3.73,0,0,0,34.475,3.8,3.889,3.889,0,0,0,30.514,0a4,4,0,0,0-3.332,1.75A4,4,0,0,0,23.851,0,3.889,3.889,0,0,0,19.89,3.8,3.73,3.73,0,0,0,21.2,6.628H20.82a.617.617,0,0,0-.63.6v7.227a.617.617,0,0,0,.63.6h4.91l-2.45,2.352a.588.588,0,0,0,0,.855.648.648,0,0,0,.89,0l3.012-2.892,3.012,2.892a.648.648,0,0,0,.89,0,.588.588,0,0,0,0-.855l-2.45-2.352h4.91a.617.617,0,0,0,.63-.6V13.143l2.181.386a.655.655,0,0,0,.114.01.646.646,0,0,0,.4-.14.6.6,0,0,0,.227-.464V8.757A.6.6,0,0,0,36.873,8.293ZM30.514,1.209a2.653,2.653,0,0,1,2.7,2.594,2.7,2.7,0,0,1-5.4,0A2.653,2.653,0,0,1,30.514,1.209ZM27.183,5.857a3.877,3.877,0,0,0,.682.771H26.5A3.876,3.876,0,0,0,27.183,5.857ZM21.149,3.8a2.7,2.7,0,0,1,5.4,0,2.7,2.7,0,0,1-5.4,0ZM32.916,13.855H21.449V7.837H32.916Zm2.924-1.647-1.665-.295V9.778l1.665-.295Z" transform="translate(-19.89)" fill="#ce1919"/>
    </g>
    <g id="voice-recorder" transform="translate(156.031 286.552)">
      <path id="Path_174" data-name="Path 174" d="M100.375,7.5c0-.31-.395-.562-.882-.562s-.882.252-.882.562c0,2.5-2.6,4.57-5.96,4.882v-1.22h.006c2.431,0,4.408-1.261,4.408-2.81V2.81c0-1.549-1.978-2.81-4.408-2.81H90.883c-2.431,0-4.408,1.261-4.408,2.81V8.351c0,1.549,1.978,2.81,4.408,2.81h.006v1.22c-3.357-.312-5.96-2.383-5.96-4.882,0-.31-.395-.562-.882-.562s-.882.252-.882.562c0,3.125,3.391,5.7,7.723,6.016v4.371c0,.31.395.562.882.562s.882-.252.882-.562V13.514C96.984,13.2,100.375,10.624,100.375,7.5ZM90.883,1.124h1.775c1.458,0,2.645.756,2.645,1.686v.65H88.238V2.81C88.238,1.88,89.425,1.124,90.883,1.124ZM88.238,8.351V4.584H95.3V8.351c0,.93-1.187,1.686-2.645,1.686H90.883C89.425,10.037,88.238,9.281,88.238,8.351Z" transform="translate(-83.166)" fill="#ce1919"/>
    </g>
    <g id="volume-control" transform="translate(187.008 286.552)">
      <g id="Group_82" data-name="Group 82" transform="translate(0)">
        <path id="Path_175" data-name="Path 175" d="M17.127.073a.638.638,0,0,0-.685.058L9.275,5.577a.641.641,0,0,0-.426-.163H6.4a.669.669,0,0,0-.657.68v6.259a.669.669,0,0,0,.657.68H8.849a.641.641,0,0,0,.426-.163l7.167,5.445a.638.638,0,0,0,.685.058.684.684,0,0,0,.36-.607V.68A.684.684,0,0,0,17.127.073Zm-8.935,11.6H7.057v-4.9H8.192Zm1.314-.314V7.089l6.667-5.065v14.4Z" transform="translate(-5.743 0)" fill="#ce1919"/>
        <path id="Path_176" data-name="Path 176" d="M265.432,72.1a.643.643,0,0,0-.916.158.7.7,0,0,0,.153.949,5.105,5.105,0,0,1,0,8.145.7.7,0,0,0-.153.949.649.649,0,0,0,.535.285.639.639,0,0,0,.381-.127,6.494,6.494,0,0,0,0-10.36Z" transform="translate(-250.8 -68.051)" fill="#ce1919"/>
      </g>
    </g>
    <g id="wallet-with-zipper" transform="translate(216.837 286.552)">
      <path id="Path_177" data-name="Path 177" d="M17.209,10.155S17.272,6.786,15.6,4.9a3.943,3.943,0,0,0-3.079-1.345H2.189A2.3,2.3,0,0,0,0,5.943v12.9A3.03,3.03,0,0,0,2.884,22H14.325a3.03,3.03,0,0,0,2.884-3.151ZM2.189,4.811H12.518a2.839,2.839,0,0,1,2.247.959,4.611,4.611,0,0,1,.892,1.663,2.43,2.43,0,0,0-1.332-.358H2.189A1.088,1.088,0,0,1,1.153,5.944,1.088,1.088,0,0,1,2.189,4.811Zm13.866,9.415H15.032a.633.633,0,0,0,0,1.26h1.023v1.3H14.741a1.818,1.818,0,0,1-1.73-1.891v-.081a1.818,1.818,0,0,1,1.73-1.891h1.315Zm0-2.561H14.741a3.03,3.03,0,0,0-2.884,3.151V14.9a3.03,3.03,0,0,0,2.884,3.151h1.315v.8a1.818,1.818,0,0,1-1.73,1.891H2.884a1.818,1.818,0,0,1-1.73-1.891V8.051a2.031,2.031,0,0,0,1.036.285H14.325a1.818,1.818,0,0,1,1.73,1.891Z" transform="translate(0 -3.551)" fill="#ce1919"/>
    </g>
    <g id="weighing-scale" transform="translate(247.814 286.552)">
      <g id="Group_83" data-name="Group 83">
        <path id="Path_178" data-name="Path 178" d="M5.3,182.517H.537c-.3,0-.537.32-.537.714,0,2.141,1.309,3.882,2.917,3.882s2.917-1.742,2.917-3.882C5.834,182.837,5.594,182.517,5.3,182.517Zm-2.38,3.168a2,2,0,0,1-1.764-1.739H4.681A2,2,0,0,1,2.917,185.685Z" transform="translate(0 -174.313)" fill="#ce1919"/>
        <path id="Path_179" data-name="Path 179" d="M270.177,182.517h-4.76c-.3,0-.537.32-.537.714,0,2.141,1.309,3.882,2.917,3.882s2.917-1.742,2.917-3.882C270.714,182.837,270.474,182.517,270.177,182.517Zm-2.38,3.168a2,2,0,0,1-1.764-1.739h3.527A2,2,0,0,1,267.8,185.685Z" transform="translate(-253.505 -174.313)" fill="#ce1919"/>
        <path id="Path_180" data-name="Path 180" d="M40.081,56H38.846V42.011a14.592,14.592,0,0,0,1.6-.394,13.265,13.265,0,0,1,1.914-.449c.724-.085.96.075,1.027.148a.3.3,0,0,1,.071.2l-1.02,4.522a.774.774,0,0,0,.36.89c.284.113.583-.1.668-.479L44,44.076l.534,2.368a.581.581,0,0,0,.514.509.416.416,0,0,0,.155-.03.774.774,0,0,0,.36-.89l-1.03-4.568a1.94,1.94,0,0,0-.47-1.26c-.792-.852-2.273-.431-3.841.015-.495.141-.971.276-1.371.351v-.878c0-.395-.24-.714-.537-.714s-.537.32-.537.714v.878c-.4-.075-.877-.21-1.371-.351-1.568-.446-3.049-.867-3.841-.015a1.94,1.94,0,0,0-.47,1.26l-1.03,4.568a.774.774,0,0,0,.36.89c.284.113.583-.1.668-.479l.534-2.368.534,2.368a.581.581,0,0,0,.514.509.416.416,0,0,0,.155-.03.774.774,0,0,0,.36-.89l-1.02-4.522a.3.3,0,0,1,.071-.2c.068-.073.3-.233,1.027-.148a13.272,13.272,0,0,1,1.914.449,14.592,14.592,0,0,0,1.6.394V56H36.538c-.3,0-.537.32-.537.714s.24.714.537.714h3.543c.3,0,.537-.32.537-.714S40.378,56,40.081,56Z" transform="translate(-29.705 -38.978)" fill="#ce1919"/>
      </g>
    </g>
    <g id="wrench" transform="translate(278.791 286.552)">
      <g id="Group_84" data-name="Group 84" transform="translate(0)">
        <path id="Path_181" data-name="Path 181" d="M16.827,4.312a.6.6,0,0,0-.428-.364.561.561,0,0,0-.522.173L13.709,6.435a1.656,1.656,0,0,1-2.457,0,1.959,1.959,0,0,1,0-2.634l2.165-2.315a.659.659,0,0,0,.163-.561.623.623,0,0,0-.34-.46A4.3,4.3,0,0,0,11.41.053,4.125,4.125,0,0,0,8.364,1.38l-.714.765A4.884,4.884,0,0,0,6.678,7.14L.811,13.43a3.124,3.124,0,0,0,0,4.2,2.64,2.64,0,0,0,3.918,0L10.6,11.34a4.111,4.111,0,0,0,1.587.321A4.172,4.172,0,0,0,15.253,10.3l.713-.765A4.974,4.974,0,0,0,16.827,4.312ZM12.183,10.4a3,3,0,0,1-1.456-.377.582.582,0,0,0-.729.166L3.9,16.741a1.521,1.521,0,0,1-2.258,0,1.8,1.8,0,0,1,0-2.421L7.748,7.779A.681.681,0,0,0,7.9,7,3.563,3.563,0,0,1,8.48,3.035l.714-.765a3,3,0,0,1,2.216-.959,3.144,3.144,0,0,1,.474.036L10.422,2.911a3.283,3.283,0,0,0,0,4.414,2.774,2.774,0,0,0,4.116,0L16,5.76a3.559,3.559,0,0,1-.867,2.882l-.713.765A3.044,3.044,0,0,1,12.183,10.4Z" transform="translate(0 -0.053)" fill="#ce1919"/>
        <path id="Path_182" data-name="Path 182" d="M43.31,285.078a.879.879,0,0,0-.647.288,1.033,1.033,0,0,0,0,1.388.873.873,0,0,0,1.295,0,1.033,1.033,0,0,0,0-1.388A.879.879,0,0,0,43.31,285.078Z" transform="translate(-40.403 -270.728)" fill="#ce1919"/>
      </g>
    </g>
  </g>
</svg>
