<svg xmlns="http://www.w3.org/2000/svg" width="296" height="302" viewBox="0 0 296 302">
  <g id="Group_88" data-name="Group 88" transform="translate(0 0)">
    <g id="add-tool" transform="translate(0 0)">
      <g id="Group_7" data-name="Group 7">
        <path id="Path_1" data-name="Path 1" d="M8.6,0A8.891,8.891,0,0,0,0,9.134a8.891,8.891,0,0,0,8.6,9.133,8.891,8.891,0,0,0,8.6-9.133A8.891,8.891,0,0,0,8.6,0Zm0,16.769A7.433,7.433,0,0,1,1.411,9.134,7.433,7.433,0,0,1,8.6,1.5,7.433,7.433,0,0,1,15.8,9.134,7.433,7.433,0,0,1,8.6,16.77Z" transform="translate(0 -0.001)" fill="#51b100"/>
        <path id="Path_2" data-name="Path 2" d="M75.506,70.907H72.064V67.254a.707.707,0,1,0-1.411,0v3.653H67.212a.75.75,0,0,0,0,1.5h3.442v3.653a.707.707,0,1,0,1.411,0V72.4h3.442a.75.75,0,0,0,0-1.5Z" transform="translate(-62.754 -62.522)" fill="#51b100"/>
      </g>
    </g>
    <g id="alarm-clock" transform="translate(30.977 0)">
      <g id="Group_8" data-name="Group 8" transform="translate(0)">
        <path id="Path_3" data-name="Path 3" d="M16.786,32.518a2.646,2.646,0,0,0-3.868-1.365A6.315,6.315,0,0,0,8.6,29.367a6.315,6.315,0,0,0-4.313,1.786A2.646,2.646,0,0,0,.424,32.518a4.259,4.259,0,0,0,.968,5.036q-.034.438-.035.888a10.226,10.226,0,0,0,2.307,6.632L2.571,46.441a.828.828,0,0,0,0,.987.482.482,0,0,0,.788,0L4.54,45.951A6.244,6.244,0,0,0,8.6,47.516a6.245,6.245,0,0,0,4.065-1.565l1.181,1.478a.482.482,0,0,0,.789,0,.828.828,0,0,0,0-.987l-1.093-1.368a10.226,10.226,0,0,0,2.307-6.632q0-.449-.035-.888A4.259,4.259,0,0,0,16.786,32.518ZM1.378,33.24A1.7,1.7,0,0,1,3.351,32.2a9.849,9.849,0,0,0-1.729,3.81A2.744,2.744,0,0,1,1.378,33.24ZM8.6,46.12c-3.382,0-6.133-3.444-6.133-7.678S5.223,30.763,8.6,30.763s6.133,3.444,6.133,7.678S11.986,46.12,8.6,46.12Zm6.982-10.114a9.847,9.847,0,0,0-1.729-3.81,1.7,1.7,0,0,1,1.973,1.044A2.744,2.744,0,0,1,15.587,36.006Z" transform="translate(0 -29.367)" fill="#51b100"/>
        <path id="Path_4" data-name="Path 4" d="M181.572,81.86v-5.6a.572.572,0,1,0-1.115,0v6.294a.64.64,0,0,0,.558.7h4.123a.716.716,0,0,0,0-1.4Z" transform="translate(-172.408 -72.986)" fill="#51b100"/>
      </g>
    </g>
    <g id="arrow-pointing-to-down" transform="translate(61.953 0)">
      <path id="Path_5" data-name="Path 5" d="M58.783,11.381a1.483,1.483,0,0,0-1.644,0l-5.457,3.986V.849C51.682.38,51.161,0,50.519,0s-1.163.38-1.163.849V15.366L43.9,11.381a1.483,1.483,0,0,0-1.644,0,.7.7,0,0,0,0,1.2L49.7,18.017a1.483,1.483,0,0,0,1.644,0l7.442-5.436A.7.7,0,0,0,58.783,11.381Z" transform="translate(-41.915 0)" fill="#51b100"/>
    </g>
    <g id="arrow-pointing-to-left" transform="translate(92.93 0)">
      <path id="Path_6" data-name="Path 6" d="M16.409,49.815H2.732l3.755-5.792a1.742,1.742,0,0,0,0-1.745.624.624,0,0,0-1.132,0l-5.121,7.9a1.742,1.742,0,0,0,0,1.745l5.121,7.9a.693.693,0,0,0,.566.361.693.693,0,0,0,.566-.361,1.742,1.742,0,0,0,0-1.745L2.732,52.283H16.409c.442,0,.8-.553.8-1.234S16.851,49.815,16.409,49.815Z" transform="translate(0 -41.916)" fill="#51b100"/>
    </g>
    <g id="arrow-pointing-to-right" transform="translate(125.054 0)">
      <path id="Path_7" data-name="Path 7" d="M16.975,50.177l-5.121-7.9a.624.624,0,0,0-1.132,0,1.742,1.742,0,0,0,0,1.745l3.755,5.792H.8c-.442,0-.8.553-.8,1.234s.358,1.234.8,1.234H14.477l-3.755,5.792a1.742,1.742,0,0,0,0,1.745.624.624,0,0,0,1.132,0l5.121-7.9A1.742,1.742,0,0,0,16.975,50.177Z" transform="translate(0 -41.916)" fill="#51b100"/>
    </g>
    <g id="arrow-pointing-to-up" transform="translate(156.031 0)">
      <path id="Path_8" data-name="Path 8" d="M58.783,5.685,51.342.249a1.483,1.483,0,0,0-1.644,0L42.255,5.685a.7.7,0,0,0,0,1.2,1.483,1.483,0,0,0,1.644,0L49.357,2.9V17.417c0,.469.521.849,1.163.849s1.163-.38,1.163-.849V2.9l5.457,3.986a1.483,1.483,0,0,0,1.644,0A.7.7,0,0,0,58.783,5.685Z" transform="translate(-41.915 0)" fill="#51b100"/>
    </g>
    <g id="bar-chart" transform="translate(187.008)">
      <g id="Group_12" data-name="Group 12">
        <g id="Group_9" data-name="Group 9" transform="translate(0 7.723)">
          <path id="Path_9" data-name="Path 9" d="M3.746,150.01H.667a.745.745,0,0,1-.667-.8v-8.934a.745.745,0,0,1,.667-.8H3.746a.745.745,0,0,1,.667.8v8.934A.745.745,0,0,1,3.746,150.01ZM1.333,148.4H3.079v-7.325H1.333Z" transform="translate(0 -139.467)" fill="#51b100"/>
        </g>
        <g id="Group_10" data-name="Group 10" transform="translate(6.399)">
          <path id="Path_10" data-name="Path 10" d="M123.746,37.733h-3.079a.745.745,0,0,1-.667-.8V20.271a.745.745,0,0,1,.667-.8h3.079a.745.745,0,0,1,.667.8V36.929A.745.745,0,0,1,123.746,37.733Zm-2.413-1.609h1.746V21.076h-1.746V36.124Z" transform="translate(-120 -19.467)" fill="#51b100"/>
        </g>
        <g id="Group_11" data-name="Group 11" transform="translate(12.797 2.317)">
          <path id="Path_11" data-name="Path 11" d="M243.746,71.416h-3.079a.745.745,0,0,1-.667-.8V56.272a.745.745,0,0,1,.667-.8h3.079a.745.745,0,0,1,.667.8v14.34A.745.745,0,0,1,243.746,71.416Zm-2.413-1.609h1.746V57.076h-1.746Z" transform="translate(-240 -55.467)" fill="#51b100"/>
        </g>
      </g>
    </g>
    <g id="battery-charging" transform="translate(216.837 0)">
      <g id="Group_13" data-name="Group 13">
        <path id="Path_12" data-name="Path 12" d="M86.308,152.243l-5.066-4.356c-.172-.148-.372-.109-.526.1a1.577,1.577,0,0,0-.225.936l.2,5.293-4.085-2.034c-.287-.143-.579.2-.652.759a1.33,1.33,0,0,0,.388,1.277l4.808,2.394a.293.293,0,0,0,.132.033.43.43,0,0,0,.345-.246,1.652,1.652,0,0,0,.19-.883l-.191-5.007,4.248,3.653c.271.233.588-.008.707-.54A1.571,1.571,0,0,0,86.308,152.243Z" transform="translate(-72.68 -143.091)" fill="#51b100"/>
        <path id="Path_13" data-name="Path 13" d="M16.351,97.493V94.539c0-1.507-.626-2.732-1.4-2.732H1.4c-.769,0-1.4,1.226-1.4,2.732v12.8c0,1.507.626,2.732,1.4,2.732h13.56c.769,0,1.4-1.226,1.4-2.732v-2.954c.482-.1.859-.908.859-1.88V99.373C17.209,98.4,16.833,97.6,16.351,97.493Zm-1.073,9.847c0,.348-.144.631-.322.631H1.4c-.178,0-.322-.283-.322-.631v-12.8c0-.348.144-.631.322-.631h13.56c.178,0,.322.283.322.631v12.8Z" transform="translate(0 -91.807)" fill="#51b100"/>
      </g>
    </g>
    <g id="battery-level-1" transform="translate(247.814 0)">
      <g id="Group_14" data-name="Group 14">
        <path id="Path_14" data-name="Path 14" d="M16.351,97.493V94.539c0-1.507-.626-2.732-1.4-2.732H1.4c-.769,0-1.4,1.226-1.4,2.732v12.8c0,1.507.626,2.732,1.4,2.732h13.56c.769,0,1.4-1.226,1.4-2.732v-2.954c.482-.1.859-.908.859-1.88V99.373C17.209,98.4,16.833,97.6,16.351,97.493Zm-1.073,9.847c0,.348-.144.631-.322.631H1.4c-.178,0-.322-.283-.322-.631v-12.8c0-.348.144-.631.322-.631h13.56c.178,0,.322.283.322.631v12.8Z" transform="translate(0 -91.807)" fill="#51b100"/>
        <path id="Path_15" data-name="Path 15" d="M73.479,146.157c-.3,0-.537.471-.537,1.051v7.026c0,.58.24,1.051.537,1.051s.537-.471.537-1.051v-7.026C74.015,146.628,73.775,146.157,73.479,146.157Z" transform="translate(-69.811 -141.588)" fill="#51b100"/>
        <path id="Path_16" data-name="Path 16" d="M143.479,146.157c-.3,0-.537.471-.537,1.051v7.026c0,.58.24,1.051.537,1.051s.537-.471.537-1.051v-7.026C144.015,146.628,143.775,146.157,143.479,146.157Z" transform="translate(-136.806 -141.588)" fill="#51b100"/>
        <path id="Path_17" data-name="Path 17" d="M213.478,146.157c-.3,0-.537.471-.537,1.051v7.026c0,.58.24,1.051.537,1.051s.537-.471.537-1.051v-7.026C214.014,146.628,213.774,146.157,213.478,146.157Z" transform="translate(-203.8 -141.588)" fill="#51b100"/>
        <path id="Path_18" data-name="Path 18" d="M283.478,146.157c-.3,0-.537.471-.537,1.051v7.026c0,.58.24,1.051.537,1.051s.537-.471.537-1.051v-7.026C284.014,146.628,283.774,146.157,283.478,146.157Z" transform="translate(-270.795 -141.588)" fill="#51b100"/>
      </g>
    </g>
    <g id="battery-level-2" transform="translate(278.791 0)">
      <path id="Path_19" data-name="Path 19" d="M16.351,97.493V94.539c0-1.507-.626-2.732-1.4-2.732H1.4c-.769,0-1.4,1.226-1.4,2.732v12.8c0,1.507.626,2.732,1.4,2.732h13.56c.769,0,1.4-1.226,1.4-2.732v-2.954c.482-.1.859-.908.859-1.88V99.373C17.209,98.4,16.833,97.6,16.351,97.493Zm-1.073,9.847c0,.348-.144.631-.322.631H1.4c-.178,0-.322-.283-.322-.631v-12.8c0-.348.144-.631.322-.631h13.56c.178,0,.322.283.322.631v12.8Z" transform="translate(0 -91.807)" fill="#51b100"/>
    </g>
    <g id="battery-level" transform="translate(0 31.661)">
      <g id="Group_15" data-name="Group 15">
        <path id="Path_20" data-name="Path 20" d="M16.351,97.493V94.539c0-1.507-.626-2.732-1.4-2.732H1.4c-.769,0-1.4,1.226-1.4,2.732v12.8c0,1.507.626,2.732,1.4,2.732h13.56c.769,0,1.4-1.226,1.4-2.732v-2.954c.482-.1.859-.908.859-1.88V99.373C17.209,98.4,16.833,97.6,16.351,97.493Zm-1.073,9.847c0,.348-.144.631-.322.631H1.4c-.178,0-.322-.283-.322-.631v-12.8c0-.348.144-.631.322-.631h13.56c.178,0,.322.283.322.631v12.8Z" transform="translate(0 -91.807)" fill="#51b100"/>
        <path id="Path_21" data-name="Path 21" d="M73.479,146.157c-.3,0-.537.471-.537,1.051v7.026c0,.58.24,1.051.537,1.051s.537-.471.537-1.051v-7.026C74.015,146.628,73.775,146.157,73.479,146.157Z" transform="translate(-69.811 -141.588)" fill="#51b100"/>
        <path id="Path_22" data-name="Path 22" d="M143.479,146.157c-.3,0-.537.471-.537,1.051v7.026c0,.58.24,1.051.537,1.051s.537-.471.537-1.051v-7.026C144.015,146.628,143.775,146.157,143.479,146.157Z" transform="translate(-136.806 -141.588)" fill="#51b100"/>
      </g>
    </g>
    <g id="benefit-chart" transform="translate(30.977 31.661)">
      <path id="Path_23" data-name="Path 23" d="M16.636,38.357H1.863l2.4-5.773,2.492,1.943a.493.493,0,0,0,.532.059.67.67,0,0,0,.342-.492l.974-5.483,2.738,1.678a.509.509,0,0,0,.688-.152L14.311,27.1l.072.919a.626.626,0,0,0,.571.624.485.485,0,0,0,.054,0,.665.665,0,0,0,.518-.749l-.2-2.613a.613.613,0,0,0-.624-.621l-2.18.244a.665.665,0,0,0-.518.748.613.613,0,0,0,.625.621l.836-.094-1.986,2.645L8.462,26.978a.489.489,0,0,0-.508-.009.679.679,0,0,0-.315.478l-.956,5.381L4.353,31.011a.494.494,0,0,0-.463-.087.61.61,0,0,0-.363.356L1.147,37V22.154a.638.638,0,0,0-.574-.688A.638.638,0,0,0,0,22.154V39.045a.638.638,0,0,0,.574.688H16.636a.7.7,0,0,0,0-1.375Z" transform="translate(0 -21.466)" fill="#51b100"/>
    </g>
    <g id="cake-with-candles" transform="translate(92.93 31.661)">
      <g id="Group_17" data-name="Group 17">
        <path id="Path_25" data-name="Path 25" d="M187.587,34.69h.3a.513.513,0,0,0,.447-.314,1.647,1.647,0,0,0,.141-.683,2.1,2.1,0,0,0-.317-.989.466.466,0,0,0-.838,0,2.1,2.1,0,0,0-.317.989,1.647,1.647,0,0,0,.141.683A.513.513,0,0,0,187.587,34.69Z" transform="translate(-179.131 -32.442)" fill="#51b100"/>
        <path id="Path_26" data-name="Path 26" d="M290.587,34.69h.3a.513.513,0,0,0,.447-.314,1.647,1.647,0,0,0,.141-.683,2.1,2.1,0,0,0-.317-.989.466.466,0,0,0-.838,0,2.1,2.1,0,0,0-.317.989,1.647,1.647,0,0,0,.141.683A.513.513,0,0,0,290.587,34.69Z" transform="translate(-277.797 -32.442)" fill="#51b100"/>
        <path id="Path_27" data-name="Path 27" d="M84.587,34.69h.3a.513.513,0,0,0,.447-.314,1.647,1.647,0,0,0,.141-.683,2.1,2.1,0,0,0-.317-.989.466.466,0,0,0-.838,0,2.1,2.1,0,0,0-.317.989,1.647,1.647,0,0,0,.141.683A.513.513,0,0,0,84.587,34.69Z" transform="translate(-80.465 -32.442)" fill="#51b100"/>
        <path id="Path_28" data-name="Path 28" d="M16.746,92.37V87.243c0-1.829-1.18-3.318-2.63-3.318h-.652V82.357a.607.607,0,0,0-.526-.664.607.607,0,0,0-.526.664v1.569H9.131V82.357a.607.607,0,0,0-.526-.664.607.607,0,0,0-.526.664v1.569H4.8V82.357a.607.607,0,0,0-.526-.664.607.607,0,0,0-.526.664v1.569H3.093c-1.45,0-2.63,1.488-2.63,3.318V92.37A.628.628,0,0,0,0,93.029a.607.607,0,0,0,.526.664H8.079v2.326H6.122a.682.682,0,0,0,0,1.327h4.965a.682.682,0,0,0,0-1.327H9.131V93.692h7.553a.607.607,0,0,0,.526-.664A.628.628,0,0,0,16.746,92.37ZM1.515,92.365V87.243a1.823,1.823,0,0,1,1.578-1.991H14.117a1.823,1.823,0,0,1,1.578,1.991v5.122Z" transform="translate(0 -79.079)" fill="#51b100"/>
      </g>
    </g>
    <g id="calendar-with-day-5" transform="translate(125.054 31.661)">
      <g id="Group_18" data-name="Group 18" transform="translate(0)">
        <path id="Path_29" data-name="Path 29" d="M20.949.842H19.917v-.3a.526.526,0,1,0-1.052,0v.3H16.131v-.3a.526.526,0,1,0-1.052,0v.3H12.344v-.3a.526.526,0,1,0-1.052,0v.3H8.558v-.3a.526.526,0,1,0-1.052,0v.3H6.474A1.394,1.394,0,0,0,5.107,2.258v2.06a1.419,1.419,0,0,0,.842,1.307V16.85a1.394,1.394,0,0,0,1.367,1.416H20.107a1.394,1.394,0,0,0,1.367-1.416V5.624a1.419,1.419,0,0,0,.842-1.307V2.258A1.394,1.394,0,0,0,20.949.842ZM6.159,2.258a.322.322,0,0,1,.316-.327H7.506v.248a.526.526,0,1,0,1.052,0V1.931h2.735v.248a.526.526,0,1,0,1.052,0V1.931h2.735v.248a.526.526,0,1,0,1.052,0V1.931h2.735v.248a.526.526,0,1,0,1.052,0V1.931h1.032a.322.322,0,0,1,.316.327v2.06a.322.322,0,0,1-.316.327H6.474a.322.322,0,0,1-.316-.327ZM20.107,17.177H7.316A.322.322,0,0,1,7,16.85V5.733H20.423V16.85A.322.322,0,0,1,20.107,17.177Z" transform="translate(-5.107)" fill="#51b100"/>
        <path id="Path_30" data-name="Path 30" d="M159.009,175.924a.545.545,0,0,0,0-1.089h-3.55a.535.535,0,0,0-.526.545v2.683a.536.536,0,0,0,.526.545h3.024V180.5h-3.024a.545.545,0,0,0,0,1.089h3.55a.536.536,0,0,0,.526-.545v-2.981a.536.536,0,0,0-.526-.545h-3.024v-1.594Z" transform="translate(-148.629 -167.218)" fill="#51b100"/>
      </g>
    </g>
    <g id="bookmark" transform="translate(61.953 31.661)">
      <g id="Group_16" data-name="Group 16">
        <path id="Path_24" data-name="Path 24" d="M52.314,18.266a.9.9,0,0,1-.63-.244l-7.152-7.059-7.152,7.059a.935.935,0,0,1-.912.2.7.7,0,0,1-.541-.644V.685A.764.764,0,0,1,36.751,0H52.314a.764.764,0,0,1,.823.685v16.9a.7.7,0,0,1-.541.644A.972.972,0,0,1,52.314,18.266ZM44.533,9.215a.9.9,0,0,1,.629.244L51.49,15.7V1.371H37.575V15.7L43.9,9.459A.9.9,0,0,1,44.533,9.215Z" transform="translate(-35.928)" fill="#51b100"/>
      </g>
    </g>
    <g id="cancel-button" transform="translate(156.031 31.661)">
      <g id="Group_19" data-name="Group 19">
        <path id="Path_31" data-name="Path 31" d="M8.6,0A8.891,8.891,0,0,0,0,9.134a8.891,8.891,0,0,0,8.6,9.133,8.891,8.891,0,0,0,8.6-9.133A8.891,8.891,0,0,0,8.6,0Zm0,16.769A7.433,7.433,0,0,1,1.411,9.134,7.433,7.433,0,0,1,8.6,1.5,7.433,7.433,0,0,1,15.8,9.134,7.433,7.433,0,0,1,8.6,16.77Z" transform="translate(0 -0.001)" fill="#51b100"/>
        <path id="Path_32" data-name="Path 32" d="M92.666,91.892,95.1,89.309a.781.781,0,0,0,0-1.059.677.677,0,0,0-1,0l-2.434,2.583L89.235,88.25a.677.677,0,0,0-1,0,.782.782,0,0,0,0,1.059l2.434,2.583-2.434,2.583a.782.782,0,0,0,0,1.059.677.677,0,0,0,1,0l2.434-2.583L94.1,95.534a.677.677,0,0,0,1,0,.782.782,0,0,0,0-1.059Z" transform="translate(-83.064 -82.759)" fill="#51b100"/>
      </g>
    </g>
    <g id="caution-sign" transform="translate(187.008 31.661)">
      <g id="Group_20" data-name="Group 20" transform="translate(0)">
        <path id="Path_33" data-name="Path 33" d="M17.136,32.586,9.127,15.7a.56.56,0,0,0-1.044,0L.074,32.586a.788.788,0,0,0,.009.685A.585.585,0,0,0,.6,33.61H16.614a.585.585,0,0,0,.513-.339A.788.788,0,0,0,17.136,32.586ZM1.6,32.228l7-14.76,7,14.76Z" transform="translate(-0.001 -15.344)" fill="#51b100"/>
        <path id="Path_34" data-name="Path 34" d="M164.894,128.286v4.995a.755.755,0,1,0,1.493,0v-4.995a.755.755,0,1,0-1.493,0Z" transform="translate(-157.036 -121.224)" fill="#51b100"/>
        <path id="Path_35" data-name="Path 35" d="M164.845,265.364a.922.922,0,1,0,.786.912A.857.857,0,0,0,164.845,265.364Z" transform="translate(-156.241 -251.543)" fill="#51b100"/>
      </g>
    </g>
    <g id="chain-links" transform="translate(216.837 31.661)">
      <g id="Group_21" data-name="Group 21" transform="translate(0)">
        <path id="Path_36" data-name="Path 36" d="M16.348,1.47l-.49-.52a2.932,2.932,0,0,0-4.32,0L7.982,4.724a3.323,3.323,0,0,0-.895,2.292,3.483,3.483,0,0,0,.038.513,2.925,2.925,0,0,0-2.643.909L.926,12.212a3.388,3.388,0,0,0,0,4.585l.49.52a2.932,2.932,0,0,0,4.32,0l3.557-3.774a3.366,3.366,0,0,0,.854-2.806,2.919,2.919,0,0,0,.485.041h0a2.949,2.949,0,0,0,2.16-.949l3.557-3.774A3.388,3.388,0,0,0,16.348,1.47Zm-7.877,11.2L4.915,16.446a1.818,1.818,0,0,1-2.679,0l-.49-.52a2.1,2.1,0,0,1,0-2.843L5.3,9.308a1.818,1.818,0,0,1,2.679,0l.49.52A2.1,2.1,0,0,1,8.472,12.672Zm7.056-7.488L11.971,8.958a1.828,1.828,0,0,1-1.339.589h0a1.829,1.829,0,0,1-1.34-.589l-.49-.52a2.1,2.1,0,0,1,0-2.843L12.359,1.82a1.818,1.818,0,0,1,2.679,0l.49.52A2.1,2.1,0,0,1,15.528,5.183Z" transform="translate(-0.032)" fill="#51b100"/>
        <path id="Path_37" data-name="Path 37" d="M222.568,67.827l-2.717,2.883a.643.643,0,0,0,0,.871.557.557,0,0,0,.82,0l2.717-2.883a.643.643,0,0,0,0-.871A.557.557,0,0,0,222.568,67.827Z" transform="translate(-209.487 -64.315)" fill="#51b100"/>
        <path id="Path_38" data-name="Path 38" d="M70.532,219.862l-2.717,2.883a.643.643,0,0,0,0,.871.557.557,0,0,0,.82,0l2.717-2.883a.643.643,0,0,0,0-.871A.557.557,0,0,0,70.532,219.862Z" transform="translate(-64.507 -208.862)" fill="#51b100"/>
      </g>
    </g>
    <g id="check-mark" transform="translate(247.814 31.661)">
      <g id="Group_22" data-name="Group 22">
        <path id="Path_39" data-name="Path 39" d="M8.6,0A8.891,8.891,0,0,0,0,9.134a8.891,8.891,0,0,0,8.6,9.133,8.891,8.891,0,0,0,8.6-9.133A8.891,8.891,0,0,0,8.6,0Zm0,16.769A7.433,7.433,0,0,1,1.411,9.134,7.433,7.433,0,0,1,8.6,1.5,7.433,7.433,0,0,1,15.8,9.134,7.433,7.433,0,0,1,8.6,16.77Z" transform="translate(0 -0.001)" fill="#51b100"/>
        <path id="Path_40" data-name="Path 40" d="M73.839,90.529,68.73,95.951l-2.336-2.479a.677.677,0,0,0-1,0,.782.782,0,0,0,0,1.059l2.835,3.009a.677.677,0,0,0,1,0l5.608-5.952a.782.782,0,0,0,0-1.059A.677.677,0,0,0,73.839,90.529Z" transform="translate(-61.512 -84.901)" fill="#51b100"/>
      </g>
    </g>
    <g id="closed-envelope" transform="translate(278.791 31.661)">
      <g id="Group_23" data-name="Group 23">
        <path id="Path_41" data-name="Path 41" d="M16.626,50.318H.584c-.322,0-.584.381-.584.852V67.732c0,.47.261.852.584.852H16.626c.322,0,.584-.382.584-.852V51.17C17.209,50.7,16.948,50.318,16.626,50.318ZM16.042,66.88H1.167V52.022H16.042Z" transform="translate(0 -50.318)" fill="#51b100"/>
        <path id="Path_42" data-name="Path 42" d="M52.088,112.635l5.6,5.04a.433.433,0,0,0,.612,0l5.6-5.04a1.1,1.1,0,0,0,.191-1.172c-.169-.4-.529-.525-.8-.278L58,115.948l-5.3-4.764c-.274-.247-.634-.122-.8.278A1.1,1.1,0,0,0,52.088,112.635Z" transform="translate(-49.391 -106.917)" fill="#51b100"/>
      </g>
    </g>
    <g id="cloud" transform="translate(0 63.323)">
      <g id="Group_24" data-name="Group 24">
        <path id="Path_43" data-name="Path 43" d="M13.168,82.69H4.042C1.813,82.69,0,79.83,0,76.314a7.461,7.461,0,0,1,2.135-5.623c.037-3.465,1.836-6.267,4.041-6.267,1.3,0,2.519,1,3.274,2.637A2.612,2.612,0,0,1,10,67c1.391,0,2.669,1.118,3.409,2.949,2.115.2,3.8,2.979,3.8,6.364C17.209,79.83,15.4,82.69,13.168,82.69ZM6.176,66.147c-1.626,0-2.949,2.087-2.949,4.653,0,.121,0,.243.009.361a.991.991,0,0,1-.333.86,5.179,5.179,0,0,0-1.81,4.293c0,2.566,1.323,4.653,2.949,4.653h9.126c1.626,0,2.949-2.087,2.949-4.653s-1.323-4.653-2.949-4.653h-.06c-.207.006-.4-.17-.494-.458-.513-1.53-1.513-2.48-2.608-2.48a1.945,1.945,0,0,0-.685.126c-.234.088-.476-.075-.6-.4C8.194,67.029,7.218,66.147,6.176,66.147Z" transform="translate(0 -64.424)" fill="#51b100"/>
      </g>
    </g>
    <g id="cocktail-glass" transform="translate(30.977 63.323)">
      <path id="Path_44" data-name="Path 44" d="M48.646,3.491a.609.609,0,0,0,.17-.735.792.792,0,0,0-.723-.417H44.946l1.225-1.224A.613.613,0,0,0,46.09.163a.871.871,0,0,0-1.1.07L42.879,2.339H32.448a.792.792,0,0,0-.723.417.609.609,0,0,0,.17.735l7.593,6.551v6.874H37.768a.682.682,0,1,0,0,1.35h5.006a.682.682,0,1,0,0-1.35H41.053V10.042Zm-2.442.2L40.271,8.808,34.337,3.689Z" transform="translate(-31.666 0.001)" fill="#51b100"/>
    </g>
    <g id="compass" transform="translate(61.953 63.323)">
      <g id="Group_25" data-name="Group 25">
        <path id="Path_45" data-name="Path 45" d="M8.6,0A8.891,8.891,0,0,0,0,9.133a8.891,8.891,0,0,0,8.6,9.133,8.891,8.891,0,0,0,8.6-9.133A8.891,8.891,0,0,0,8.6,0Zm.589,16.99v-.862a.59.59,0,1,0-1.179,0v.862A7.678,7.678,0,0,1,1.2,9.759h.812a.627.627,0,0,0,0-1.251H1.2A7.678,7.678,0,0,1,8.015,1.276v.862a.59.59,0,1,0,1.179,0V1.276a7.678,7.678,0,0,1,6.813,7.232H15.2a.627.627,0,0,0,0,1.251h.812A7.678,7.678,0,0,1,9.194,16.99Z" fill="#51b100"/>
        <path id="Path_46" data-name="Path 46" d="M109.141,107.964a1.85,1.85,0,0,0-.474-1.518,1.621,1.621,0,0,0-1.188-.522,1.6,1.6,0,0,0-.243.019l-2.522-2.048a.564.564,0,0,0-.775.054.654.654,0,0,0-.051.822l1.93,2.678a1.85,1.85,0,0,0,.474,1.518,1.621,1.621,0,0,0,1.188.522,1.6,1.6,0,0,0,.243-.019l2.522,2.048a.566.566,0,0,0,.358.129.571.571,0,0,0,.417-.183.654.654,0,0,0,.051-.822Z" transform="translate(-98.875 -98.574)" fill="#51b100"/>
      </g>
    </g>
    <g id="coverage-level" transform="translate(92.93 63.323)">
      <g id="Group_26" data-name="Group 26" transform="translate(0)">
        <path id="Path_47" data-name="Path 47" d="M15.162,240a.8.8,0,0,0-.812.777v1.785a.813.813,0,0,0,1.624,0v-1.785A.8.8,0,0,0,15.162,240Z" transform="translate(-14.35 -225.074)" fill="#51b100"/>
        <path id="Path_48" data-name="Path 48" d="M75.162,180a.8.8,0,0,0-.812.777v5.516a.813.813,0,0,0,1.624,0v-5.516A.8.8,0,0,0,75.162,180Z" transform="translate(-70.454 -168.805)" fill="#51b100"/>
        <path id="Path_49" data-name="Path 49" d="M135.162,120a.8.8,0,0,0-.812.777v9.248a.813.813,0,0,0,1.624,0v-9.248A.8.8,0,0,0,135.162,120Z" transform="translate(-126.557 -112.537)" fill="#51b100"/>
        <path id="Path_50" data-name="Path 50" d="M195.162,60a.8.8,0,0,0-.812.777v12.98a.813.813,0,0,0,1.624,0V60.777A.8.8,0,0,0,195.162,60Z" transform="translate(-182.661 -56.268)" fill="#51b100"/>
        <path id="Path_51" data-name="Path 51" d="M255.162,0a.8.8,0,0,0-.812.777V17.489a.813.813,0,0,0,1.624,0V.777A.8.8,0,0,0,255.162,0Z" transform="translate(-238.764)" fill="#51b100"/>
      </g>
    </g>
    <g id="cropping-tool" transform="translate(125.054 63.323)">
      <path id="Path_52" data-name="Path 52" d="M16.636,13.838H14.185V4.071l1.969-2.09a.636.636,0,0,0,0-.861.551.551,0,0,0-.811,0L13.374,3.21h-9.2V.609A.592.592,0,0,0,3.6,0a.592.592,0,0,0-.574.609v2.6H.574a.61.61,0,0,0,0,1.218H3.025V14.447a.592.592,0,0,0,.574.609h9.439v2.6a.575.575,0,1,0,1.147,0v-2.6h2.451a.61.61,0,0,0,0-1.218Zm-4.409-9.41L4.172,12.977V4.428Zm-7.243,9.41,8.054-8.549v8.549Z" fill="#51b100"/>
    </g>
    <g id="cup-of-hot-coffee" transform="translate(156.031 63.323)">
      <g id="Group_27" data-name="Group 27" transform="translate(0)">
        <path id="Path_53" data-name="Path 53" d="M254.634,184.956a.675.675,0,0,0-.655.694v2.276a.656.656,0,1,0,1.31,0V185.65A.675.675,0,0,0,254.634,184.956Z" transform="translate(-240.685 -174.688)" fill="#51b100"/>
        <path id="Path_54" data-name="Path 54" d="M14.271,136.855h-.052a3.1,3.1,0,0,0-1.084.194.634.634,0,0,0-.455-.194H.993a.675.675,0,0,0-.655.694v5.94a3.515,3.515,0,0,0,1.393,2.839l.447.841a.65.65,0,0,0,.571.354h8.176a.65.65,0,0,0,.571-.354l.447-.842a3.417,3.417,0,0,0,.792-.839,3.125,3.125,0,0,0,1.483.377h.052a3.381,3.381,0,0,0,3.276-3.47v-2.071A3.381,3.381,0,0,0,14.271,136.855Zm1.965,5.541a2.028,2.028,0,0,1-1.965,2.082h-.052a1.9,1.9,0,0,1-1.286-.509.628.628,0,0,0-.587-.149.669.669,0,0,0-.453.422,2.079,2.079,0,0,1-.792,1.013.68.68,0,0,0-.223.248l-.336.633H3.132L2.8,145.5a.68.68,0,0,0-.223-.248,2.1,2.1,0,0,1-.924-1.765v-5.246h10.4a.689.689,0,0,0,.339.453.625.625,0,0,0,.682-.057,1.878,1.878,0,0,1,1.153-.4h.052a2.028,2.028,0,0,1,1.965,2.082V142.4Z" transform="translate(-0.338 -129.257)" fill="#51b100"/>
        <path id="Path_55" data-name="Path 55" d="M117.082,5.566A3.447,3.447,0,0,0,118.1,6.855a.64.64,0,0,0,.912-.182.718.718,0,0,0-.171-.963,1.933,1.933,0,0,1-.52-.617.969.969,0,0,1-.063-.267,1.419,1.419,0,0,1,.479-1.071,2.2,2.2,0,0,0,.658-1.705A2.941,2.941,0,0,0,118.275.132a.633.633,0,0,0-.916.156.719.719,0,0,0,.147.968,1.587,1.587,0,0,1,.58.908.768.768,0,0,1-.279.609A3.068,3.068,0,0,0,117,4.228a2.034,2.034,0,0,0-.062.743A2.2,2.2,0,0,0,117.082,5.566Z" transform="translate(-110.813 -0.001)" fill="#51b100"/>
      </g>
    </g>
    <g id="diamond" transform="translate(187.008 63.323)">
      <path id="Path_56" data-name="Path 56" d="M17.128,18.032l-2.8-5.663A.627.627,0,0,0,13.778,12H3.432a.627.627,0,0,0-.554.369l-2.8,5.663a.811.811,0,0,0,.061.816L8.113,30A.588.588,0,0,0,9.1,30l7.969-11.151A.811.811,0,0,0,17.128,18.032ZM5.6,13.452h6L8.6,17.3ZM7.969,27.5,1.975,19.115H7.969ZM9.24,19.115h5.994L9.24,27.5Zm6.245-1.452H10.023l3.285-4.211h.1ZM3.8,13.452h.1l3.285,4.211H1.724Z" transform="translate(0 -12)" fill="#51b100"/>
    </g>
    <g id="download-from-the-cloud" transform="translate(216.837 63.323)">
      <path id="Path_57" data-name="Path 57" d="M13.413,69.951C12.674,68.12,11.4,67,10,67a2.611,2.611,0,0,0-.555.06c-.755-1.64-1.977-2.637-3.274-2.637-2.205,0-4,2.8-4.041,6.267A7.461,7.461,0,0,0,0,76.315c0,3.516,1.813,6.376,4.042,6.376h9.126c2.229,0,4.042-2.86,4.042-6.376C17.209,72.93,15.528,70.152,13.413,69.951Zm-.246,11.017H4.042c-1.626,0-2.949-2.087-2.949-4.653A5.179,5.179,0,0,1,2.9,72.023a.99.99,0,0,0,.333-.86c-.006-.119-.009-.24-.009-.361,0-2.566,1.323-4.653,2.949-4.653a2.429,2.429,0,0,1,1.882,1.074v8.206L6.369,72.764a.422.422,0,0,0-.772,0,1.24,1.24,0,0,0,0,1.219l2.622,4.136a.422.422,0,0,0,.772,0l2.622-4.136a1.24,1.24,0,0,0,0-1.219.422.422,0,0,0-.772,0L9.151,75.429V68.872a.353.353,0,0,0,.168-.021A1.945,1.945,0,0,1,10,68.725c1.1,0,2.1.95,2.609,2.48.1.288.287.467.494.458h.06c1.626,0,2.949,2.087,2.949,4.653S14.794,80.968,13.168,80.968Z" transform="translate(0 -64.425)" fill="#51b100"/>
    </g>
    <g id="dustbin-1" transform="translate(247.814 63.323)">
      <g id="Group_28" data-name="Group 28" transform="translate(0)">
        <path id="Path_58" data-name="Path 58" d="M38.623.456H34.06A.753.753,0,0,0,33.35,0H30.861a.754.754,0,0,0-.71.456H25.589a2,2,0,0,0-2.088,1.9v1.73a.724.724,0,0,0,.755.688h1.42v12.8a.724.724,0,0,0,.755.688H37.781a.724.724,0,0,0,.755-.688V4.776h1.42a.724.724,0,0,0,.755-.688V2.358A2,2,0,0,0,38.623.456Zm-1.6,16.435H27.185V4.776h9.841ZM39.2,3.4H25.011V2.358a.555.555,0,0,1,.578-.527H38.623a.555.555,0,0,1,.578.527V3.4Z" transform="translate(-23.501)" fill="#51b100"/>
        <path id="Path_59" data-name="Path 59" d="M121.5,115.761a.724.724,0,0,0,.755-.688v-7.248a.758.758,0,0,0-1.51,0v7.248A.724.724,0,0,0,121.5,115.761Z" transform="translate(-114.873 -101.243)" fill="#51b100"/>
        <path id="Path_60" data-name="Path 60" d="M187.014,115.761a.724.724,0,0,0,.755-.688v-7.248a.758.758,0,0,0-1.51,0v7.248A.724.724,0,0,0,187.014,115.761Z" transform="translate(-176.431 -101.243)" fill="#51b100"/>
      </g>
    </g>
    <g id="dustbin" transform="translate(278.791 63.323)">
      <g id="Group_29" data-name="Group 29" transform="translate(0)">
        <path id="Path_61" data-name="Path 61" d="M162.395,96.087a.75.75,0,0,0-.818.656v8.885a.838.838,0,0,0,1.636,0V96.743A.751.751,0,0,0,162.395,96.087Z" transform="translate(-153.79 -91.046)" fill="#51b100"/>
        <path id="Path_62" data-name="Path 62" d="M58.968,2.013H54.977V.656A.751.751,0,0,0,54.159,0H48.2a.751.751,0,0,0-.818.656V2.013H43.395a.75.75,0,0,0-.818.656.75.75,0,0,0,.818.656h.736V17.61a.751.751,0,0,0,.818.656H57.414a.751.751,0,0,0,.818-.656V3.325h.736a.75.75,0,0,0,.818-.656A.75.75,0,0,0,58.968,2.013Zm-9.946-.7h4.319v.7H49.022ZM56.6,16.955H45.767V3.325H56.6Z" transform="translate(-42.577)" fill="#51b100"/>
      </g>
    </g>
    <g id="edit-tool" transform="translate(0 94.984)">
      <path id="Path_63" data-name="Path 63" d="M17.027,4.8,14.86,2.5h0L12.69.194a.6.6,0,0,0-.882,0L1.312,11.335a.675.675,0,0,0-.17.334l-1.128,5.8a.689.689,0,0,0,.17.6.606.606,0,0,0,.441.194.589.589,0,0,0,.126-.014l5.466-1.2a.614.614,0,0,0,.315-.18l10.5-11.141A.691.691,0,0,0,17.027,4.8Zm-14.9,8.341,2.7,2.868-3.4.746Zm3.96,2.332L2.634,11.8,12.249,1.6l1.287,1.366L7.718,9.139a.691.691,0,0,0,0,.936.6.6,0,0,0,.882,0L14.418,3.9,15.7,5.265Z" transform="translate(-0.001)" fill="#51b100"/>
    </g>
    <g id="erlenmeyer-flask" transform="translate(30.977 94.984)">
      <path id="Path_64" data-name="Path 64" d="M53.6,17.4,48.519,6.883V.631A.7.7,0,0,0,47.775,0H42.327a.7.7,0,0,0-.744.631V6.883L36.5,17.4a.55.55,0,0,0,.071.591.788.788,0,0,0,.618.279H52.911a.788.788,0,0,0,.618-.279A.55.55,0,0,0,53.6,17.4ZM43.015,7.246a.548.548,0,0,0,.056-.239V1.262h3.96V7.007a.547.547,0,0,0,.056.239l.93,1.924h-5.93ZM38.3,17l3.176-6.572h7.15L51.8,17Z" transform="translate(-36.446)" fill="#51b100"/>
    </g>
    <g id="eye" transform="translate(61.953 94.984)">
      <g id="Group_30" data-name="Group 30" transform="translate(0)">
        <path id="Path_65" data-name="Path 65" d="M8.6,119c-1.935,0-4.018-1.476-6.023-4.269A26.674,26.674,0,0,1,.119,110.49a1.685,1.685,0,0,1,0-1.243A26.678,26.678,0,0,1,2.582,105c2.005-2.792,4.088-4.269,6.023-4.269s4.018,1.476,6.023,4.269a26.678,26.678,0,0,1,2.463,4.243,1.685,1.685,0,0,1,0,1.243,26.678,26.678,0,0,1-2.463,4.243C12.623,117.526,10.54,119,8.6,119Zm-7.451-9.133a25.559,25.559,0,0,0,2.013,3.346C4.445,114.989,6.425,117.1,8.6,117.1s4.16-2.115,5.438-3.888a25.563,25.563,0,0,0,2.013-3.346,25.555,25.555,0,0,0-2.013-3.346c-1.278-1.774-3.259-3.888-5.438-3.888s-4.16,2.115-5.438,3.888A25.551,25.551,0,0,0,1.154,109.869Z" transform="translate(0 -100.736)" fill="#51b100"/>
      </g>
      <g id="Group_31" data-name="Group 31" transform="translate(5.587 3.249)">
        <path id="Path_66" data-name="Path 66" d="M146.537,155.29c-1.664,0-3.017-2.64-3.017-5.885s1.354-5.885,3.017-5.885a2.47,2.47,0,0,1,1.987,1.457,1.643,1.643,0,0,1,.045,1.339c-.177.394-.485.434-.687.089a1.673,1.673,0,0,0-1.346-.987c-1.127,0-2.044,1.788-2.044,3.986s.917,3.986,2.044,3.986,2.044-1.788,2.044-3.986c0-.524.218-.949.487-.949s.487.425.487.949C149.554,152.65,148.2,155.29,146.537,155.29Z" transform="translate(-143.52 -143.521)" fill="#51b100"/>
      </g>
      <g id="Group_32" data-name="Group 32" transform="translate(7.631 7.235)">
        <path id="Path_67" data-name="Path 67" d="M196.993,199.817c-.537,0-.973-.852-.973-1.9s.437-1.9.973-1.9.973.852.973,1.9S197.53,199.817,196.993,199.817Z" transform="translate(-196.02 -196.021)" fill="#51b100"/>
      </g>
    </g>
    <g id="file-folder" transform="translate(92.93 94.984)">
      <path id="Path_68" data-name="Path 68" d="M17.076,47.594a.471.471,0,0,0-.384-.229h-.1c-.12-1.455-1.042-2.591-2.158-2.591H8.708v-.682c0-.383-.232-.694-.517-.694H2.172C.974,43.4,0,44.7,0,46.311q0,.031,0,.062l.827,12.44v.01c.132,1.7,1,2.841,2.169,2.841H14.21c1.12,0,1.971-1.1,2.166-2.808,0-.011,0-.022,0-.034l.827-10.693A.856.856,0,0,0,17.076,47.594Zm-1.528-.229h-5.7a1.279,1.279,0,0,1-1.112-1.2h5.7A1.279,1.279,0,0,1,15.549,47.365Zm-.2,11.3c-.048.4-.266,1.615-1.142,1.615H3c-.747,0-1.079-.822-1.14-1.593l-.825-12.4a1.327,1.327,0,0,1,1.137-1.5h5.5v1.053c0,1.606.974,2.913,2.172,2.913h6.273Z" transform="translate(0 -43.398)" fill="#51b100"/>
    </g>
    <g id="gear" transform="translate(125.054 94.984)">
      <g id="Group_33" data-name="Group 33" transform="translate(0)">
        <path id="Path_69" data-name="Path 69" d="M31.394,10.335a7.5,7.5,0,0,0,0-2.4,2.472,2.472,0,0,0,.779-1.249,2.427,2.427,0,0,0-.263-1.864l-.3-.5a2.58,2.58,0,0,0-2.218-1.248,2.617,2.617,0,0,0-.8.127,7.812,7.812,0,0,0-2.135-1.2,2.464,2.464,0,0,0-.72-1.282A2.578,2.578,0,0,0,23.947,0h-.6a2.579,2.579,0,0,0-1.787.709,2.465,2.465,0,0,0-.72,1.282,7.813,7.813,0,0,0-2.135,1.2,2.616,2.616,0,0,0-.8-.127,2.58,2.58,0,0,0-2.218,1.248l-.3.5a2.427,2.427,0,0,0-.263,1.864A2.472,2.472,0,0,0,15.9,7.931a7.5,7.5,0,0,0,0,2.4,2.472,2.472,0,0,0-.779,1.249,2.427,2.427,0,0,0,.263,1.864l.3.5A2.58,2.58,0,0,0,17.9,15.2a2.615,2.615,0,0,0,.8-.127,7.815,7.815,0,0,0,2.135,1.2,2.465,2.465,0,0,0,.72,1.282,2.578,2.578,0,0,0,1.787.709h.6a2.578,2.578,0,0,0,1.787-.709,2.464,2.464,0,0,0,.72-1.282,7.814,7.814,0,0,0,2.135-1.2,2.617,2.617,0,0,0,.8.127h0a2.58,2.58,0,0,0,2.218-1.248l.3-.5a2.427,2.427,0,0,0,.263-1.864A2.471,2.471,0,0,0,31.394,10.335Zm-1.313-2.54a6.3,6.3,0,0,1,0,2.676.611.611,0,0,0,.289.655,1.236,1.236,0,0,1,.444,1.7l-.3.5a1.3,1.3,0,0,1-1.121.63,1.318,1.318,0,0,1-.616-.153.646.646,0,0,0-.727.084,6.568,6.568,0,0,1-2.375,1.338.619.619,0,0,0-.438.571,1.271,1.271,0,0,1-1.292,1.227h-.6A1.271,1.271,0,0,1,22.058,15.8a.619.619,0,0,0-.438-.571A6.566,6.566,0,0,1,19.246,13.9a.646.646,0,0,0-.727-.084,1.312,1.312,0,0,1-1.737-.477l-.3-.5a1.236,1.236,0,0,1,.444-1.7.611.611,0,0,0,.289-.655,6.3,6.3,0,0,1,0-2.676.611.611,0,0,0-.288-.655,1.236,1.236,0,0,1-.444-1.7l.3-.5A1.3,1.3,0,0,1,17.9,4.3a1.319,1.319,0,0,1,.616.153.646.646,0,0,0,.727-.084,6.569,6.569,0,0,1,2.375-1.339.62.62,0,0,0,.438-.571,1.271,1.271,0,0,1,1.292-1.227h.6A1.271,1.271,0,0,1,25.24,2.461a.619.619,0,0,0,.438.571,6.566,6.566,0,0,1,2.375,1.339.646.646,0,0,0,.727.084,1.312,1.312,0,0,1,1.737.477l.3.5a1.236,1.236,0,0,1-.444,1.7A.611.611,0,0,0,30.081,7.795Z" transform="translate(-15.044)" fill="#51b100"/>
        <path id="Path_70" data-name="Path 70" d="M80.51,74.939a5.434,5.434,0,1,0,5.571,5.432A5.509,5.509,0,0,0,80.51,74.939Zm0,9.63a4.2,4.2,0,1,1,4.3-4.2A4.257,4.257,0,0,1,80.51,84.569Z" transform="translate(-71.905 -71.238)" fill="#51b100"/>
      </g>
    </g>
    <g id="gift-box-with-a-bow" transform="translate(156.031 94.984)">
      <path id="Path_71" data-name="Path 71" d="M56.453,4.474h-.81a2.635,2.635,0,0,0,.531-.969,2.413,2.413,0,0,0-.4-2.143A3.585,3.585,0,0,0,52.856,0a3.944,3.944,0,0,0-1.771.413A8.139,8.139,0,0,0,48.6,3.425,8.139,8.139,0,0,0,46.108.413,3.943,3.943,0,0,0,44.337,0a3.584,3.584,0,0,0-2.918,1.361,2.413,2.413,0,0,0-.4,2.143,2.634,2.634,0,0,0,.531.969h-.81a.694.694,0,0,0-.748.621v12.55a.694.694,0,0,0,.748.621H56.453a.694.694,0,0,0,.748-.621V5.1A.694.694,0,0,0,56.453,4.474Zm-4.59-3a2.211,2.211,0,0,1,.993-.232,2.014,2.014,0,0,1,1.639.765,1.355,1.355,0,0,1,.225,1.2,1.637,1.637,0,0,1-.866.983,5.486,5.486,0,0,1-2.03.273,3.023,3.023,0,0,0,.834-.726.563.563,0,0,0-.232-.857.843.843,0,0,0-1.032.193,2.605,2.605,0,0,1-1.382.778A7.252,7.252,0,0,1,51.863,1.475ZM42.7,2.007a2.014,2.014,0,0,1,1.639-.764,2.212,2.212,0,0,1,.993.232,7.259,7.259,0,0,1,1.851,2.379A2.6,2.6,0,0,1,45.8,3.076a.843.843,0,0,0-1.032-.193.563.563,0,0,0-.232.857,3.022,3.022,0,0,0,.834.726,5.486,5.486,0,0,1-2.03-.273,1.637,1.637,0,0,1-.866-.983A1.354,1.354,0,0,1,42.7,2.007ZM41.489,5.716h6.36V17.023h-6.36ZM55.7,17.023h-6.36V5.716H55.7Z" transform="translate(-39.992)" fill="#51b100"/>
    </g>
    <g id="graduation-cap" transform="translate(187.008 94.984)">
      <g id="Group_34" data-name="Group 34">
        <path id="Path_72" data-name="Path 72" d="M16.9,50.016,8.867,44.24a.432.432,0,0,0-.524,0L.307,50.016a.863.863,0,0,0-.307.7H0V53.73c0,.435.255.787.569.787s.569-.353.569-.787V52.01l1.219.876v6.27a1.007,1.007,0,0,0,.106.458c.059.114,1.5,2.8,6.142,2.8s6.083-2.689,6.142-2.8a1.008,1.008,0,0,0,.106-.458v-6.27l2.05-1.473a.95.95,0,0,0,0-1.4Zm-3.187,8.837c-.378.5-1.778,1.991-5.111,1.991s-4.734-1.488-5.111-1.991V53.7l4.849,3.485a.432.432,0,0,0,.524,0L13.716,53.7ZM8.6,55.6,1.8,50.715l6.8-4.889,6.8,4.889Z" transform="translate(0 -44.151)" fill="#51b100"/>
        <path id="Path_73" data-name="Path 73" d="M.57,219.736c-.314,0-.569.353-.569.787v.952c0,.435.255.787.569.787s.569-.353.569-.787v-.952C1.138,220.089.884,219.736.57,219.736Z" transform="translate(-0.001 -208.676)" fill="#51b100"/>
      </g>
    </g>
    <g id="hand-pointing-to-left" transform="translate(216.837 94.984)">
      <g id="Group_37" data-name="Group 37">
        <g id="Group_36" data-name="Group 36">
          <g id="Group_35" data-name="Group 35">
            <path id="Path_74" data-name="Path 74" d="M9.966,18.012a1.365,1.365,0,0,1,.992.446l3.67,3.852a5.624,5.624,0,0,1,1.249,3.231v3.793c0,2.1-1.287,3.794-2.874,3.794l-3.663,0a1.648,1.648,0,0,1-1.494-1.766,2.007,2.007,0,0,1,.2-.879,1.713,1.713,0,0,1-1.216-1.734,1.992,1.992,0,0,1,.236-.95,1.783,1.783,0,0,1-.953-1.645,2,2,0,0,1,.21-.9h-3.5a1.647,1.647,0,0,1-1.494-1.766,1.647,1.647,0,0,1,1.494-1.766H9.569l-.6-.625a2,2,0,0,1-.125-2.492,1.4,1.4,0,0,1,1.118-.593m0-1.575a2.662,2.662,0,0,0-2.114,1.122,3.71,3.71,0,0,0-.708,2.416q0,.087.012.173H2.827A3.119,3.119,0,0,0,0,23.488a3.12,3.12,0,0,0,2.827,3.34H4.838a3.652,3.652,0,0,0,.449,1.232,3.338,3.338,0,0,0,.226.335q-.016.175-.016.351a3.61,3.61,0,0,0,1.016,2.565q0,.024,0,.049A3.12,3.12,0,0,0,9.34,34.7L13,34.7a3.8,3.8,0,0,0,3.026-1.636,6.2,6.2,0,0,0,1.181-3.733V25.541a6.561,6.561,0,0,0-.516-2.435,7.469,7.469,0,0,0-1.113-1.9q-.032-.039-.067-.076l-3.67-3.852a2.592,2.592,0,0,0-1.877-.843Z" transform="translate(0 -16.437)" fill="#51b100"/>
          </g>
        </g>
      </g>
    </g>
    <g id="hand-pointing-to-right" transform="translate(247.814 94.984)">
      <g id="Group_40" data-name="Group 40">
        <g id="Group_39" data-name="Group 39">
          <g id="Group_38" data-name="Group 38">
            <path id="Path_75" data-name="Path 75" d="M7.243,18.013a1.4,1.4,0,0,1,1.118.593A2,2,0,0,1,8.236,21.1l-.6.625h6.742a1.647,1.647,0,0,1,1.494,1.766,1.647,1.647,0,0,1-1.494,1.766h-3.5a2,2,0,0,1,.21.9,1.783,1.783,0,0,1-.953,1.645,1.992,1.992,0,0,1,.236.95,1.713,1.713,0,0,1-1.216,1.734,2.008,2.008,0,0,1,.2.879A1.647,1.647,0,0,1,7.87,33.128l-3.663,0c-1.588,0-2.874-1.7-2.874-3.794V25.542A5.625,5.625,0,0,1,2.581,22.31l3.67-3.852a1.366,1.366,0,0,1,.992-.446m0-1.575h0a2.591,2.591,0,0,0-1.877.843L1.7,21.133q-.035.037-.067.076a7.471,7.471,0,0,0-1.113,1.9A6.559,6.559,0,0,0,0,25.542v3.793a6.2,6.2,0,0,0,1.182,3.733A3.8,3.8,0,0,0,4.207,34.7l3.663,0a3.119,3.119,0,0,0,2.826-3.34c0-.016,0-.033,0-.049a3.61,3.61,0,0,0,1.016-2.565q0-.177-.016-.351a3.294,3.294,0,0,0,.226-.335,3.652,3.652,0,0,0,.449-1.232h2.011a3.119,3.119,0,0,0,2.827-3.34,3.12,3.12,0,0,0-2.827-3.34h-4.33q.008-.086.012-.173a3.709,3.709,0,0,0-.708-2.415,2.662,2.662,0,0,0-2.114-1.123Z" transform="translate(0 -16.438)" fill="#51b100"/>
          </g>
        </g>
      </g>
    </g>
    <g id="headphones" transform="translate(278.791 94.984)">
      <path id="Path_76" data-name="Path 76" d="M16.74,26.188A14.387,14.387,0,0,0,14.8,18.518a7.078,7.078,0,0,0-6.2-3.437,7.078,7.078,0,0,0-6.2,3.437A14.387,14.387,0,0,0,.469,26.188,5.567,5.567,0,0,0,0,28.442c0,2.7,1.874,4.9,4.177,4.9a.752.752,0,0,0,.685-.8v-8.2a.752.752,0,0,0-.685-.8,3.715,3.715,0,0,0-2.225.757c.462-3.963,2.379-7.6,6.652-7.6s6.19,3.641,6.652,7.6a3.715,3.715,0,0,0-2.225-.757.752.752,0,0,0-.685.8v8.2a.752.752,0,0,0,.685.8c2.3,0,4.177-2.2,4.177-4.9A5.567,5.567,0,0,0,16.74,26.188ZM3.492,25.245v6.4a3.248,3.248,0,0,1-2.123-3.2A3.248,3.248,0,0,1,3.492,25.245Zm10.224,6.4v-6.4a3.248,3.248,0,0,1,2.123,3.2A3.248,3.248,0,0,1,13.717,31.64Z" transform="translate(0 -15.081)" fill="#51b100"/>
    </g>
    <g id="heart" transform="translate(0 126.645)">
      <g id="Group_41" data-name="Group 41">
        <path id="Path_77" data-name="Path 77" d="M8.6,30.4a.553.553,0,0,1-.427-.212L1.3,21.769l-.005-.007A6.3,6.3,0,0,1,0,17.844a6.3,6.3,0,0,1,1.295-3.919l.1-.131a4.078,4.078,0,0,1,3.2-1.658,4.078,4.078,0,0,1,3.2,1.658L8.6,14.819l.815-1.025a4.078,4.078,0,0,1,3.2-1.658,4.078,4.078,0,0,1,3.2,1.658l.1.131a6.3,6.3,0,0,1,1.295,3.919,6.3,6.3,0,0,1-1.295,3.919l-.005.007L9.031,30.191A.553.553,0,0,1,8.6,30.4ZM2.156,20.873l6.448,7.9,6.448-7.9a5.11,5.11,0,0,0,0-6.061l-.1-.131a2.984,2.984,0,0,0-2.331-1.222,2.984,2.984,0,0,0-2.331,1.221L9.037,16.249a.537.537,0,0,1-.864,0L6.925,14.68a2.984,2.984,0,0,0-2.331-1.222A2.984,2.984,0,0,0,2.263,14.68l-.1.131A5.11,5.11,0,0,0,2.156,20.873Z" transform="translate(0 -12.136)" fill="#51b100"/>
      </g>
    </g>
    <g id="hourglass" transform="translate(61.953 126.645)">
      <g id="Group_43" data-name="Group 43">
        <path id="Path_80" data-name="Path 80" d="M82.424,9.133C86.311,6.394,87.454.971,87.5.727a.508.508,0,0,0-.242-.508A1.305,1.305,0,0,0,86.506,0h-15.2a1.306,1.306,0,0,0-.755.219.508.508,0,0,0-.242.508c.049.244,1.192,5.667,5.08,8.406-3.888,2.739-5.03,8.163-5.079,8.406a.508.508,0,0,0,.242.508,1.306,1.306,0,0,0,.755.219h15.2a1.306,1.306,0,0,0,.755-.219.508.508,0,0,0,.242-.508C87.454,17.3,86.311,11.872,82.424,9.133Zm-9.933,7.845c.47-1.643,1.892-5.629,4.991-7.36a.584.584,0,0,0,.345-.485.584.584,0,0,0-.345-.485c-3.1-1.731-4.522-5.718-4.991-7.36H85.323c-.47,1.643-1.892,5.629-4.991,7.36a.584.584,0,0,0-.345.485.584.584,0,0,0,.345.485c3.1,1.731,4.521,5.717,4.991,7.36Z" transform="translate(-70.302)" fill="#51b100"/>
        <path id="Path_81" data-name="Path 81" d="M126.279,203.344c-1.3,0-2.385.844-3.4,2.657a15.769,15.769,0,0,0-1.041,2.309.483.483,0,0,0,.2.542,1.282,1.282,0,0,0,.783.24h6.914a1.282,1.282,0,0,0,.783-.24.483.483,0,0,0,.2-.542A15.783,15.783,0,0,0,129.677,206C128.663,204.188,127.584,203.344,126.279,203.344Zm2.169,4.459H124.11c.146-.345.34-.769.572-1.2.821-1.527,1.429-1.884,1.6-1.957.168.074.774.429,1.592,1.947C128.1,207.027,128.3,207.455,128.448,207.8Z" transform="translate(-117.674 -192.87)" fill="#51b100"/>
      </g>
    </g>
    <g id="inbox" transform="translate(92.93 126.645)">
      <g id="Group_44" data-name="Group 44" transform="translate(0)">
        <path id="Path_82" data-name="Path 82" d="M101.447,12.748a.587.587,0,0,0,.839,0l3.8-3.846a.607.607,0,0,0,0-.85.588.588,0,0,0-.839,0l-2.783,2.82V.6a.593.593,0,1,0-1.186,0V10.872l-2.783-2.82a.588.588,0,0,0-.839,0,.607.607,0,0,0,0,.85Z" transform="translate(-93.262)" fill="#51b100"/>
        <path id="Path_83" data-name="Path 83" d="M25.209,243.832H19.83a.6.6,0,0,0-.593.6v1.128a.593.593,0,1,0,1.186,0v-.527h4.193v4.14H9.779v-4.14h4.193v.527a.593.593,0,1,0,1.186,0v-1.128a.6.6,0,0,0-.593-.6H9.186a.6.6,0,0,0-.593.6v5.342a.6.6,0,0,0,.593.6H25.209a.6.6,0,0,0,.593-.6v-5.342A.6.6,0,0,0,25.209,243.832Z" transform="translate(-8.593 -232.11)" fill="#51b100"/>
      </g>
    </g>
    <g id="homepage" transform="translate(30.977 126.645)">
      <g id="Group_42" data-name="Group 42" transform="translate(0)">
        <path id="Path_78" data-name="Path 78" d="M17.008,11.377,8.993,3.77a.556.556,0,0,0-.777,0L.2,11.377a.676.676,0,0,0-.055.9.559.559,0,0,0,.832.059l.621-.589v9.492a.615.615,0,0,0,.589.638H15.021a.615.615,0,0,0,.589-.638V11.748l.621.589a.562.562,0,0,0,.388.158.569.569,0,0,0,.443-.218A.676.676,0,0,0,17.008,11.377ZM7.243,20.6V15.344H9.965V20.6Zm7.188-9.967V20.6H11.144v-5.9a.615.615,0,0,0-.589-.638h-3.9a.615.615,0,0,0-.589.638v5.9H2.777V10.634s0,0,0,0L8.6,5.1l5.828,5.531S14.432,10.632,14.432,10.634Z" transform="translate(0.001 -3.611)" fill="#51b100"/>
        <path id="Path_79" data-name="Path 79" d="M154.5,108.876a.615.615,0,0,0,.589.638h1.462a.64.64,0,0,0,0-1.276h-1.462A.615.615,0,0,0,154.5,108.876Z" transform="translate(-147.216 -102.896)" fill="#51b100"/>
      </g>
    </g>
    <g id="international-globe" transform="translate(125.054 126.645)">
      <path id="Path_84" data-name="Path 84" d="M8.6,0A8.891,8.891,0,0,0,0,9.133a8.891,8.891,0,0,0,8.6,9.133,8.891,8.891,0,0,0,8.6-9.133A8.891,8.891,0,0,0,8.6,0Zm7.5,8.555H12.191a16.763,16.763,0,0,0-.925-5.337A6.163,6.163,0,0,0,10.211,1.34,7.86,7.86,0,0,1,16.1,8.555Zm-7.5,8.06c-.561,0-1.178-.747-1.651-2a15.494,15.494,0,0,1-.846-4.906H11.1a15.494,15.494,0,0,1-.846,4.906C9.782,15.868,9.165,16.615,8.6,16.615Zm-2.5-8.06a15.494,15.494,0,0,1,.846-4.906c.473-1.251,1.091-2,1.651-2s1.178.747,1.651,2A15.494,15.494,0,0,1,11.1,8.555ZM7,1.34A6.164,6.164,0,0,0,5.943,3.218a16.765,16.765,0,0,0-.925,5.337H1.109A7.86,7.86,0,0,1,7,1.34ZM1.109,9.711H5.018a16.765,16.765,0,0,0,.925,5.337A6.164,6.164,0,0,0,7,16.926,7.86,7.86,0,0,1,1.109,9.711Zm9.1,7.215a6.163,6.163,0,0,0,1.055-1.878,16.765,16.765,0,0,0,.925-5.337H16.1A7.86,7.86,0,0,1,10.212,16.926Z" fill="#51b100"/>
    </g>
    <g id="key" transform="translate(156.031 126.645)">
      <path id="Path_85" data-name="Path 85" d="M15.452,1.9a5.86,5.86,0,0,0-8.636,0A6.581,6.581,0,0,0,5.175,5.062a6.887,6.887,0,0,0,.059,3.093L.216,13.481a.7.7,0,0,0-.188.5l.081,3.536a.663.663,0,0,0,.626.665l3.332.086h.016a.624.624,0,0,0,.454-.2l3.728-3.956h0l1.29-1.369a5.783,5.783,0,0,0,1.579.219h0a5.893,5.893,0,0,0,4.317-1.9A6.772,6.772,0,0,0,15.452,1.9Zm-.908,8.2a4.654,4.654,0,0,1-3.409,1.5,4.577,4.577,0,0,1-1.555-.272.616.616,0,0,0-.661.163L7.811,12.664l-.3-.32a.616.616,0,0,0-.908,0,.711.711,0,0,0,0,.964l.3.32L5.664,14.943l-.3-.32a.616.616,0,0,0-.908,0,.712.712,0,0,0,0,.964l.3.32-.933.99-2.445-.063-.059-2.595,5.1-5.408a.712.712,0,0,0,.154-.7A5.312,5.312,0,0,1,7.725,2.862a4.617,4.617,0,0,1,6.335-.45L12.208,4.377a2.051,2.051,0,0,0-1-.262,2.085,2.085,0,0,0-1.527.671,2.4,2.4,0,0,0,0,3.242,2.073,2.073,0,0,0,3.055,0,2.35,2.35,0,0,0,.633-1.621,2.393,2.393,0,0,0-.247-1.066l1.85-1.964A5.359,5.359,0,0,1,14.544,10.1ZM11.823,5.75a.97.97,0,0,1,0,1.314.84.84,0,0,1-1.238,0,.971.971,0,0,1,0-1.314.84.84,0,0,1,1.238,0Z" transform="translate(-0.028 0)" fill="#51b100"/>
    </g>
    <g id="laptop" transform="translate(187.008 126.645)">
      <path id="Path_86" data-name="Path 86" d="M16.737,85.972H16v-13c0-.406-.212-.735-.473-.735H1.683c-.261,0-.473.329-.473.735v13H.473c-.261,0-.473.329-.473.735v1.649a.892.892,0,0,0,.217.618C.373,89.131,1.936,90.5,8.6,90.5s8.231-1.372,8.388-1.529a.892.892,0,0,0,.217-.618V86.707C17.209,86.3,17,85.972,16.737,85.972ZM2.156,73.708H8.132V73.8c0,.406.212.735.473.735s.473-.329.473-.735v-.093h5.976V85.972H2.156ZM16.264,87.882c-.594.337-2.558,1.151-7.659,1.151-5.055,0-7.047-.816-7.659-1.157v-.433H9.92v.208c0,.406.212.735.473.735s.473-.329.473-.735v-.208h.492v.208c0,.406.212.735.473.735s.473-.329.473-.735v-.208h3.961Z" transform="translate(0 -72.237)" fill="#51b100"/>
    </g>
    <g id="light-bulb" transform="translate(216.837 126.645)">
      <g id="Group_45" data-name="Group 45">
        <path id="Path_87" data-name="Path 87" d="M87.039,5.82c0-3.209-3.86-5.82-8.6-5.82s-8.6,2.611-8.6,5.82c0,2.226,1.321,3.41,2.486,4.455.984.882,1.834,1.644,1.834,2.983V15.7c0,1.413,1.678,2.562,3.767,2.562h1.034c2.089,0,3.774-1.149,3.774-2.562l-.007-2.446c0-1.339.85-2.1,1.834-2.983C85.718,9.23,87.039,8.046,87.039,5.82ZM78.952,17.08H77.917a2.131,2.131,0,0,1-1.928-.937h4.89A2.131,2.131,0,0,1,78.952,17.08Zm2.035-2.123h-5.1V14.39h5.1ZM80.965,13.2H75.9c-.023-1.7-1.123-2.689-2.188-3.643-1.1-.983-2.133-1.912-2.133-3.741,0-2.555,3.073-4.634,6.851-4.634s6.851,2.079,6.851,4.634c0,1.829-1.036,2.758-2.133,3.741C82.089,10.515,80.988,11.5,80.965,13.2Z" transform="translate(-69.83)" fill="#51b100"/>
        <path id="Path_88" data-name="Path 88" d="M131.732,89.954c.455-.112.69-.452.524-.76l-1.906-3.541.647-.685,1.4.876a1.2,1.2,0,0,0,1.192,0l1.4-.876.647.685-1.906,3.541c-.166.308.069.648.524.76a1.255,1.255,0,0,0,.3.036.932.932,0,0,0,.824-.39l2.055-3.816a.433.433,0,0,0-.085-.522L135.9,83.732a.985.985,0,0,0-.627-.269,1.17,1.17,0,0,0-.707.153l-1.572.985-1.572-.985a1.172,1.172,0,0,0-.707-.153.985.985,0,0,0-.627.269l-1.445,1.529a.433.433,0,0,0-.085.522l2.055,3.816A1.034,1.034,0,0,0,131.732,89.954Z" transform="translate(-124.385 -79.498)" fill="#51b100"/>
      </g>
    </g>
    <g id="location-flag" transform="translate(247.814 126.645)">
      <path id="Path_89" data-name="Path 89" d="M72.693,8.833,69.815,5.21l2.9-3.652a.489.489,0,0,0,0-.631.943.943,0,0,0-.741-.316H57.333C57.32.272,56.944,0,56.479,0s-.854.282-.854.629V17.637c0,.347.383.629.854.629s.854-.282.854-.629V9.809H71.98c.472,0,.854-.282.854-.629A.517.517,0,0,0,72.693,8.833ZM57.334,8.551V1.87H70.489l-2.4,3.023a.49.49,0,0,0,0,.635l2.4,3.023Z" transform="translate(-55.625)" fill="#51b100"/>
    </g>
    <g id="location-pointer-1" transform="translate(278.791 126.645)">
      <g id="Group_48" data-name="Group 48" transform="translate(0)">
        <g id="Group_46" data-name="Group 46">
          <path id="Path_90" data-name="Path 90" d="M84.855,18.266c-.682,0-1.365-.305-2.664-1.826a33.912,33.912,0,0,1-2.612-3.6C77.97,10.322,76.25,7.077,76.25,5.515,76.25,2.474,80.11,0,84.855,0s8.6,2.474,8.6,5.515c0,1.562-1.72,4.807-3.329,7.323a33.91,33.91,0,0,1-2.612,3.6C86.22,17.961,85.536,18.266,84.855,18.266Zm0-17.08c-3.724,0-6.754,1.942-6.754,4.329,0,1.079,1.16,3.631,2.954,6.5a36.459,36.459,0,0,0,2.431,3.461,10.019,10.019,0,0,0,1.369,1.458,10.02,10.02,0,0,0,1.369-1.458,36.46,36.46,0,0,0,2.431-3.461c1.795-2.869,2.954-5.42,2.954-6.5C91.609,3.128,88.579,1.186,84.855,1.186Z" transform="translate(-76.25)" fill="#51b100"/>
        </g>
        <g id="Group_47" data-name="Group 47" transform="translate(5.089 3.011)">
          <path id="Path_91" data-name="Path 91" d="M148.516,67.972c-1.939,0-3.516-1.011-3.516-2.254s1.577-2.254,3.516-2.254,3.516,1.011,3.516,2.254S150.455,67.972,148.516,67.972Zm0-3.321c-.918,0-1.665.479-1.665,1.067s.747,1.067,1.665,1.067,1.665-.479,1.665-1.067S149.434,64.651,148.516,64.651Z" transform="translate(-145 -63.465)" fill="#51b100"/>
        </g>
      </g>
    </g>
    <g id="location-pointer" transform="translate(0 158.306)">
      <g id="Group_49" data-name="Group 49">
        <path id="Path_92" data-name="Path 92" d="M45.864,0c-4.745,0-8.6,3.231-8.6,7.2a6.38,6.38,0,0,0,1.509,4.075,8.431,8.431,0,0,0,3.621,2.516l2.8,4.144a.854.854,0,0,0,1.347,0l2.8-4.144a8.431,8.431,0,0,0,3.621-2.516A6.379,6.379,0,0,0,54.468,7.2C54.468,3.231,50.608,0,45.864,0ZM48.5,12.682a.748.748,0,0,0-.384.282L45.864,16.3l-2.257-3.34a.748.748,0,0,0-.384-.282A5.989,5.989,0,0,1,38.807,7.2c0-3.257,3.166-5.907,7.057-5.907s7.057,2.65,7.057,5.907A5.989,5.989,0,0,1,48.5,12.682Z" transform="translate(-37.259)" fill="#51b100"/>
        <path id="Path_93" data-name="Path 93" d="M127.009,85.759a2.763,2.763,0,1,0,3.25,2.72A3.024,3.024,0,0,0,127.009,85.759Zm0,4.145a1.448,1.448,0,1,1,1.7-1.425A1.584,1.584,0,0,1,127.009,89.9Z" transform="translate(-118.404 -81.315)" fill="#51b100"/>
      </g>
    </g>
    <g id="locked-padlock" transform="translate(30.977 158.306)">
      <g id="Group_50" data-name="Group 50">
        <path id="Path_94" data-name="Path 94" d="M58.667,6.23H57.042v-2.7C57.042,1.586,55.062,0,52.629,0H49.151c-2.434,0-4.413,1.586-4.413,3.534v2.7H43.113a.759.759,0,0,0-.828.663v6.474c0,2.7,2.745,4.9,6.118,4.9h4.973c3.374,0,6.118-2.2,6.118-4.9V6.893A.759.759,0,0,0,58.667,6.23Zm-12.274-2.7a2.533,2.533,0,0,1,2.758-2.209h3.478a2.533,2.533,0,0,1,2.758,2.209v2.7H46.393Zm11.446,9.832c0,1.971-2,3.574-4.463,3.574H48.4c-2.461,0-4.463-1.6-4.463-3.574V7.555h13.9Z" transform="translate(-42.285)" fill="#51b100"/>
        <path id="Path_95" data-name="Path 95" d="M157.529,225.435a.848.848,0,0,0,1.655,0v-1.892a.577.577,0,0,0,.157-.388.759.759,0,0,0-.828-.663H158.2a.759.759,0,0,0-.828.663.577.577,0,0,0,.157.388Z" transform="translate(-149.752 -210.695)" fill="#51b100"/>
      </g>
    </g>
    <g id="magic-wand" transform="translate(61.953 158.306)">
      <g id="Group_51" data-name="Group 51">
        <path id="Path_96" data-name="Path 96" d="M289.782,92.361l-1.334-.379a.632.632,0,0,0-.777.476.679.679,0,0,0,.449.825l1.334.379a.6.6,0,0,0,.165.023.642.642,0,0,0,.613-.5A.679.679,0,0,0,289.782,92.361Z" transform="translate(-273.043 -87.003)" fill="#51b100"/>
        <path id="Path_97" data-name="Path 97" d="M215.3,2.264a.642.642,0,0,0,.613.5.6.6,0,0,0,.165-.023.679.679,0,0,0,.449-.825L216.166.5a.632.632,0,0,0-.777-.476.679.679,0,0,0-.449.825Z" transform="translate(-204.005 -0.001)" fill="#51b100"/>
        <path id="Path_98" data-name="Path 98" d="M275.829,22.074a.7.7,0,0,0,0-.953.609.609,0,0,0-.9,0l-.976,1.036a.7.7,0,0,0,0,.953.609.609,0,0,0,.9,0Z" transform="translate(-259.868 -19.797)" fill="#51b100"/>
        <path id="Path_99" data-name="Path 99" d="M12.134,64.225a1.751,1.751,0,0,0-1.283.564L.531,75.743a2.01,2.01,0,0,0,0,2.723,1.741,1.741,0,0,0,2.566,0l8.371-8.885h0l1.948-2.067a2.01,2.01,0,0,0,0-2.723A1.752,1.752,0,0,0,12.134,64.225ZM2.2,77.513a.523.523,0,0,1-.77,0,.6.6,0,0,1,0-.818l7.923-8.409.77.818Zm10.32-10.954-1.5,1.592-.77-.818,1.5-1.592a.523.523,0,0,1,.77,0,.6.6,0,0,1,0,.818Z" transform="translate(0 -60.764)" fill="#51b100"/>
      </g>
    </g>
    <g id="magnifying-glass" transform="translate(92.93 158.306)">
      <path id="Path_100" data-name="Path 100" d="M15.314,2.012A6.246,6.246,0,0,0,10.738,0h0A6.247,6.247,0,0,0,6.162,2.012a7.042,7.042,0,0,0-1.9,4.857,7.148,7.148,0,0,0,.9,3.5l-4.71,5a1.734,1.734,0,0,0,0,2.349l.058.062a1.5,1.5,0,0,0,2.213,0l4.71-5a6.151,6.151,0,0,0,3.3.957,6.247,6.247,0,0,0,4.576-2.012,7.042,7.042,0,0,0,1.9-4.857A7.042,7.042,0,0,0,15.314,2.012ZM1.939,16.941a.429.429,0,0,1-.632,0l-.058-.062a.5.5,0,0,1,0-.671L5.83,11.345q.159.2.333.38t.358.353Zm12.585-6.054a5.137,5.137,0,0,1-7.571,0A5.825,5.825,0,0,1,5.384,6.869,5.826,5.826,0,0,1,6.953,2.851a5.137,5.137,0,0,1,7.571,0,5.826,5.826,0,0,1,1.568,4.018A5.826,5.826,0,0,1,14.524,10.887Z" transform="translate(0)" fill="#51b100"/>
    </g>
    <g id="male-avatar" transform="translate(125.054 158.306)">
      <path id="Path_101" data-name="Path 101" d="M60.776,9.484h-.91a5.011,5.011,0,0,0,2.923-4.33C62.79,2.312,59.929,0,56.412,0s-6.378,2.312-6.378,5.154a5.011,5.011,0,0,0,2.923,4.33h-.91c-2.338,0-4.24,1.537-4.24,3.426V17.7a.649.649,0,0,0,.705.57h15.8a.649.649,0,0,0,.705-.57V12.91C65.016,11.021,63.114,9.484,60.776,9.484Zm-9.332-4.33c0-2.213,2.228-4.014,4.967-4.014s4.967,1.8,4.967,4.014-2.228,4.014-4.967,4.014S51.444,7.367,51.444,5.154Zm7.031,4.877L56.412,11.7l-2.064-1.668a7.825,7.825,0,0,0,4.127,0Zm5.13,7.1H61.687V14.388a.721.721,0,0,0-1.411,0v2.738h-7.73V14.388a.721.721,0,0,0-1.411,0v2.738H49.218V12.91a2.6,2.6,0,0,1,2.829-2.286h1.04l2.826,2.283a.829.829,0,0,0,1,0l2.826-2.283h1.04a2.6,2.6,0,0,1,2.829,2.286Z" transform="translate(-47.807)" fill="#51b100"/>
    </g>
    <g id="medal-with-a-star" transform="translate(156.031 158.306)">
      <g id="Group_52" data-name="Group 52" transform="translate(0)">
        <path id="Path_102" data-name="Path 102" d="M88.656,0H72.883c-.4,0-.718.23-.718.514V6.658a.39.39,0,0,0,.052.192l1.9,3.389a4.272,4.272,0,0,0-.925,2.6c0,2.993,3.4,5.429,7.578,5.429s7.578-2.435,7.578-5.429a4.271,4.271,0,0,0-.925-2.6l1.9-3.389a.39.39,0,0,0,.052-.192V.514C89.374.23,89.053,0,88.656,0Zm-.718,1.028v4.6H73.6v-4.6Zm-1.5,8.207a7.684,7.684,0,0,0-1.9-1.11,10.249,10.249,0,0,0-7.526,0,7.683,7.683,0,0,0-1.9,1.11L73.658,6.659H87.882Zm-5.668,8c-3.387,0-6.142-1.974-6.142-4.4a3.521,3.521,0,0,1,.9-2.292,7.576,7.576,0,0,1,10.488,0,3.521,3.521,0,0,1,.9,2.292C86.911,15.264,84.156,17.238,80.77,17.238Z" transform="translate(-72.165)" fill="#51b100"/>
        <path id="Path_103" data-name="Path 103" d="M141.317,216.843l-2.72-.283-1.217-1.766a.866.866,0,0,0-1.287,0l-1.217,1.766-2.72.283a.7.7,0,0,0-.579.35.421.421,0,0,0,.182.527l1.968,1.375-.465,1.941a.46.46,0,0,0,.286.5.962.962,0,0,0,.756.039l2.433-.916,2.433.916a.952.952,0,0,0,.334.059.923.923,0,0,0,.422-.1.46.46,0,0,0,.286-.5l-.465-1.941,1.968-1.375a.421.421,0,0,0,.182-.527A.7.7,0,0,0,141.317,216.843Zm-2.843,1.7a.434.434,0,0,0-.207.455l.283,1.18-1.48-.557a.973.973,0,0,0-.668,0l-1.48.557.283-1.18a.434.434,0,0,0-.206-.455l-1.2-.836,1.654-.172a.745.745,0,0,0,.54-.281l.74-1.074.74,1.074a.746.746,0,0,0,.54.281l1.654.172Z" transform="translate(-128.132 -205.682)" fill="#51b100"/>
      </g>
    </g>
    <g id="mercury-thermometer" transform="translate(187.008 158.306)">
      <path id="Path_104" data-name="Path 104" d="M123.752,10.947V2.374c0-1.309-2.265-2.374-5.05-2.374s-5.05,1.065-5.05,2.374v8.573c-2.239.76-3.555,1.961-3.555,3.275,0,2.23,3.86,4.044,8.6,4.044s8.6-1.814,8.6-4.044C127.307,12.908,125.991,11.707,123.752,10.947Zm-5.05,6.164c-3.389,0-6.146-1.3-6.146-2.889,0-1.019,1.108-1.943,2.963-2.472.367-.1.592-.292.592-.494V2.373c0-.672,1.162-1.218,2.591-1.218s2.592.546,2.592,1.218v.513h-.456c-.679,0-1.229.259-1.229.578s.55.578,1.229.578h.456v2.08h-.456c-.679,0-1.229.259-1.229.578s.55.578,1.229.578h.456v2.08h-.456c-.679,0-1.229.259-1.229.578s.55.578,1.229.578h.456v.743c0,.2.224.389.592.494,1.856.529,2.963,1.453,2.963,2.472C124.849,15.815,122.092,17.111,118.7,17.111Z" transform="translate(-110.098)" fill="#51b100"/>
    </g>
    <g id="musical-note" transform="translate(216.837 158.306)">
      <g id="Group_53" data-name="Group 53" transform="translate(0)">
        <path id="Path_105" data-name="Path 105" d="M24.807,18.266a3.193,3.193,0,0,1-3.3-3.067,3.193,3.193,0,0,1,3.3-3.067.66.66,0,1,1,0,1.316A1.755,1.755,0,1,0,26.689,15.2l0-12.357a.671.671,0,0,1,.555-.643L37.856.015a.749.749,0,0,1,.6.13.642.642,0,0,1,.264.514L38.7,12.629a3.307,3.307,0,0,1-6.6,0,3.193,3.193,0,0,1,3.3-3.067.66.66,0,1,1,0,1.316,1.822,1.822,0,0,0-1.883,1.751,1.888,1.888,0,0,0,3.766,0L37.3,1.478,28.1,3.37l0,11.828A3.193,3.193,0,0,1,24.807,18.266Z" transform="translate(-21.508 0)" fill="#51b100"/>
      </g>
    </g>
    <g id="mute-speakers" transform="translate(247.814 158.306)">
      <g id="Group_54" data-name="Group 54">
        <path id="Path_106" data-name="Path 106" d="M10.734,4.241a.578.578,0,0,0-.646.058L3.331,9.69a.588.588,0,0,0-.4-.161H.619A.648.648,0,0,0,0,10.2v6.2a.648.648,0,0,0,.619.674h2.31a.588.588,0,0,0,.4-.161L10.088,22.3a.586.586,0,0,0,.367.13.577.577,0,0,0,.28-.073.682.682,0,0,0,.339-.6V4.842A.682.682,0,0,0,10.734,4.241Zm-9.5,6.635H2.31v4.85H1.239Zm2.31,4.539V11.187L9.835,6.171V20.431Z" transform="translate(0 -4.168)" fill="#51b100"/>
        <path id="Path_107" data-name="Path 107" d="M235.1,118.8l1.815-1.974a.716.716,0,0,0,0-.953.585.585,0,0,0-.876,0l-1.815,1.974-1.815-1.974a.585.585,0,0,0-.876,0,.716.716,0,0,0,0,.953l1.815,1.974-1.815,1.974a.716.716,0,0,0,0,.953.585.585,0,0,0,.876,0l1.815-1.974,1.815,1.974a.585.585,0,0,0,.876,0,.716.716,0,0,0,0-.953Z" transform="translate(-219.891 -109.67)" fill="#51b100"/>
      </g>
    </g>
    <g id="notebook" transform="translate(278.791 158.306)">
      <g id="Group_55" data-name="Group 55" transform="translate(0)">
        <path id="Path_108" data-name="Path 108" d="M64.626,1.48H61.768V.6a.777.777,0,0,0-1.512,0V1.48H57.534V.6a.777.777,0,0,0-1.512,0V1.48H53.3V.6a.777.777,0,0,0-1.512,0V1.48H48.929a.692.692,0,0,0-.756.6V17.667a.692.692,0,0,0,.756.6h15.7a.692.692,0,0,0,.756-.6V2.08A.692.692,0,0,0,64.626,1.48ZM63.87,17.067H49.685V2.679h2.1v.7a.777.777,0,0,0,1.512,0v-.7h2.722v.7a.777.777,0,0,0,1.512,0v-.7h2.722v.7a.777.777,0,0,0,1.512,0v-.7h2.1Z" transform="translate(-48.173)" fill="#51b100"/>
        <path id="Path_109" data-name="Path 109" d="M113.625,139.758h-8.953a.616.616,0,1,0,0,1.2h8.953a.616.616,0,1,0,0-1.2Z" transform="translate(-100.544 -133.055)" fill="#51b100"/>
        <path id="Path_110" data-name="Path 110" d="M113.625,209.758h-8.953a.616.616,0,1,0,0,1.2h8.953a.616.616,0,1,0,0-1.2Z" transform="translate(-100.544 -199.697)" fill="#51b100"/>
        <path id="Path_111" data-name="Path 111" d="M113.625,279.758h-8.953a.616.616,0,1,0,0,1.2h8.953a.616.616,0,1,0,0-1.2Z" transform="translate(-100.544 -266.34)" fill="#51b100"/>
      </g>
    </g>
    <g id="office-briefcase" transform="translate(0 189.968)">
      <path id="Path_112" data-name="Path 112" d="M15.866,34.994H12.238v-.837a1.63,1.63,0,0,0-1.388-1.79H6.36a1.63,1.63,0,0,0-1.388,1.79v.837H1.343A1.577,1.577,0,0,0,0,36.726V48.9a1.577,1.577,0,0,0,1.343,1.731H15.866A1.577,1.577,0,0,0,17.209,48.9V36.726A1.577,1.577,0,0,0,15.866,34.994Zm-9.722-.837a.253.253,0,0,1,.215-.277h4.49a.253.253,0,0,1,.215.277v.837H6.144Zm-4.8,2.349H15.866a.2.2,0,0,1,.17.219v3.968A18.256,18.256,0,0,1,8.6,42.076,18.282,18.282,0,0,1,1.173,40.7V36.726A.2.2,0,0,1,1.343,36.506ZM15.866,49.122H1.343a.2.2,0,0,1-.17-.219V42.3a18.591,18.591,0,0,0,6.236,1.26c0,.009,0,.017,0,.026v.333a1.032,1.032,0,0,0,.88,1.134h.635A1.032,1.032,0,0,0,9.8,43.92v-.333c0-.009,0-.018,0-.026A18.563,18.563,0,0,0,16.036,42.3V48.9A.2.2,0,0,1,15.866,49.122Z" transform="translate(0 -32.368)" fill="#51b100"/>
    </g>
    <g id="outbox-send-mail" transform="translate(125.054 189.968)">
      <g id="Group_58" data-name="Group 58" transform="translate(0)">
        <path id="Path_121" data-name="Path 121" d="M98.071,5.048a.587.587,0,0,0,.419-.176l2.783-2.82V12.323a.593.593,0,1,0,1.186,0V2.052l2.783,2.82a.588.588,0,0,0,.839,0,.607.607,0,0,0,0-.85l-3.8-3.846a.587.587,0,0,0-.839,0l-3.8,3.846a.607.607,0,0,0,0,.85A.587.587,0,0,0,98.071,5.048Z" transform="translate(-93.262 0)" fill="#51b100"/>
        <path id="Path_122" data-name="Path 122" d="M25.209,243.833H19.83a.6.6,0,0,0-.593.6v1.128a.593.593,0,1,0,1.186,0v-.527h4.193v4.14H9.779v-4.14h4.193v.527a.593.593,0,1,0,1.186,0v-1.128a.6.6,0,0,0-.593-.6H9.186a.6.6,0,0,0-.593.6v5.342a.6.6,0,0,0,.593.6H25.209a.6.6,0,0,0,.593-.6v-5.342A.6.6,0,0,0,25.209,243.833Z" transform="translate(-8.593 -232.111)" fill="#51b100"/>
      </g>
    </g>
    <g id="paper-cup-with-a-drinking-straw" transform="translate(156.031 189.968)">
      <path id="Path_123" data-name="Path 123" d="M112.485,5.455h-1.256c-.009-.305-.453-.551-1-.551h-3.884l-1.479-2.568a.7.7,0,0,0-.336-.269L100.086.119a1.583,1.583,0,0,0-1.4.1c-.341.244-.264.6.171.786l4.2,1.842,1.187,2.06H99.532c-.547,0-.991.246-1,.551H97.277c-.553,0-1,.251-1,.56s.448.56,1,.56h.063l1.69,11.178c.044.29.477.513,1,.513h9.708c.52,0,.953-.223,1-.513l1.69-11.178h.063c.553,0,1-.251,1-.56S113.037,5.455,112.485,5.455Zm-3.669,11.691h-7.87l-.585-3.867h1.192a3.7,3.7,0,0,0,6.655,0H109.4Zm-5.336-4.427a1.405,1.405,0,1,1,1.4,1.519A1.521,1.521,0,0,1,103.48,12.719Zm6.089-.56h-1.361a3.7,3.7,0,0,0-6.655,0h-1.361l-.844-5.583h11.065Z" transform="translate(-96.276 0)" fill="#51b100"/>
    </g>
    <g id="paper-note" transform="translate(187.008 189.968)">
      <g id="Group_59" data-name="Group 59">
        <path id="Path_124" data-name="Path 124" d="M64.381,0H53a.85.85,0,0,0-.526.174L48.134,3.635a.54.54,0,0,0-.218.42V17.673a.682.682,0,0,0,.744.593H64.381a.682.682,0,0,0,.744-.593V.593A.682.682,0,0,0,64.381,0ZM52.258,2.026V3.461h-1.8ZM63.637,17.079H49.4V4.647H53a.682.682,0,0,0,.744-.593V1.187h9.89V17.079Z" transform="translate(-47.916)" fill="#51b100"/>
        <path id="Path_125" data-name="Path 125" d="M113.153,157.729a.609.609,0,1,0,0,1.187h2.2a.609.609,0,1,0,0-1.187Z" transform="translate(-108.568 -150.242)" fill="#51b100"/>
        <path id="Path_126" data-name="Path 126" d="M181.153,158.916h3.99a.609.609,0,1,0,0-1.187h-3.99a.609.609,0,1,0,0,1.187Z" transform="translate(-172.519 -150.242)" fill="#51b100"/>
        <path id="Path_127" data-name="Path 127" d="M113.153,208.916h4.585a.609.609,0,1,0,0-1.187h-4.585a.609.609,0,1,0,0,1.187Z" transform="translate(-108.568 -197.869)" fill="#51b100"/>
        <path id="Path_128" data-name="Path 128" d="M222.761,207.729h-1.608a.609.609,0,1,0,0,1.187h1.608a.609.609,0,1,0,0-1.187Z" transform="translate(-210.137 -197.869)" fill="#51b100"/>
        <path id="Path_129" data-name="Path 129" d="M115.059,257.729h-1.906a.609.609,0,1,0,0,1.187h1.906a.609.609,0,1,0,0-1.187Z" transform="translate(-108.568 -245.495)" fill="#51b100"/>
        <path id="Path_130" data-name="Path 130" d="M180.441,257.729h-4.288a.609.609,0,1,0,0,1.187h4.288a.609.609,0,1,0,0-1.187Z" transform="translate(-167.817 -245.495)" fill="#51b100"/>
      </g>
    </g>
    <g id="photo-camera" transform="translate(216.837 189.968)">
      <g id="Group_60" data-name="Group 60">
        <path id="Path_131" data-name="Path 131" d="M16.656,56.565H5.386V55.141c0-.45-.248-.814-.553-.814H2.768c-.305,0-.553.365-.553.814v1.423H.553c-.305,0-.553.365-.553.814v14.4c0,.45.248.814.553.814h16.1c.305,0,.553-.365.553-.814v-14.4C17.209,56.93,16.962,56.565,16.656,56.565ZM3.321,55.956H4.28v.609H3.321ZM1.106,58.194H9C7.3,59.223,6.09,61.7,6.09,64.579S7.3,69.935,9,70.964h-7.9Zm9.666,1.118c1.972,0,3.576,2.363,3.576,5.267s-1.6,5.267-3.576,5.267S7.2,67.483,7.2,64.579,8.8,59.312,10.772,59.312ZM16.1,70.964H12.54c1.708-1.029,2.915-3.5,2.915-6.385s-1.206-5.356-2.915-6.385H16.1Z" transform="translate(0 -54.327)" fill="#51b100"/>
        <path id="Path_132" data-name="Path 132" d="M231.553,155.9c.79,0,1.434.947,1.434,2.111,0,.45.248.814.553.814s.553-.365.553-.814c0-2.062-1.139-3.74-2.54-3.74-.305,0-.553.365-.553.814S231.248,155.9,231.553,155.9Z" transform="translate(-220.781 -147.755)" fill="#51b100"/>
      </g>
    </g>
    <g id="pie-chart" transform="translate(247.814 189.968)">
      <g id="Group_63" data-name="Group 63">
        <g id="Group_61" data-name="Group 61" transform="translate(0 2.618)">
          <path id="Path_133" data-name="Path 133" d="M7.371,74.458a7.838,7.838,0,0,1,0-15.648.541.541,0,0,1,.524.557v6.711h6.322a.541.541,0,0,1,.524.557A7.616,7.616,0,0,1,7.371,74.458ZM6.847,59.946a6.739,6.739,0,0,0,.524,13.4,6.5,6.5,0,0,0,6.3-6.154h-6.3a.541.541,0,0,1-.524-.557Z" transform="translate(0 -58.81)" fill="#51b100"/>
        </g>
        <g id="Group_62" data-name="Group 62" transform="translate(9.314)">
          <path id="Path_134" data-name="Path 134" d="M229.4,8.38h-6.847a.541.541,0,0,1-.524-.557V.557A.541.541,0,0,1,222.555,0a7.616,7.616,0,0,1,7.371,7.824A.541.541,0,0,1,229.4,8.38ZM223.08,7.267h5.777a6.538,6.538,0,0,0-5.777-6.131Z" transform="translate(-222.031)" fill="#51b100"/>
        </g>
      </g>
    </g>
    <g id="old-phone" transform="translate(30.977 189.968)">
      <g id="Group_56" data-name="Group 56" transform="translate(0)">
        <path id="Path_113" data-name="Path 113" d="M28.575,3.8A3.7,3.7,0,0,0,27.413.7,4.194,4.194,0,0,0,24.777,0H15.164a4.194,4.194,0,0,0-2.636.7,3.7,3.7,0,0,0-1.163,3.1,2.672,2.672,0,0,0,1.32,2.479,3.45,3.45,0,0,0,.924.359A4.143,4.143,0,0,0,12.363,9.61v4.506a4.153,4.153,0,0,0,4.147,4.15h6.921a4.153,4.153,0,0,0,4.147-4.15V9.61a4.151,4.151,0,0,0-1.25-2.97,3.452,3.452,0,0,0,.927-.36A2.672,2.672,0,0,0,28.575,3.8ZM26.431,9.61v4.506a3,3,0,0,1-3,3H16.51a3,3,0,0,1-3-3V9.61a3.021,3.021,0,0,1,2.074-2.856,3.481,3.481,0,0,0,1.989-1.742c.432-.745.723-1.2,1.246-1.2h2.3c.523,0,.78.477,1.246,1.2C23.319,6.49,24.18,6.7,24.186,6.7A3,3,0,0,1,26.431,9.61Zm.249-4.323a3.228,3.228,0,0,1-1.556.34,4.654,4.654,0,0,1-.695-.049l-.021,0c-.393-.054-.658-.466-1.048-1.139-.458-.79-1.028-1.773-2.238-1.773h-2.3c-1.21,0-1.78.983-2.238,1.773-.39.673-.655,1.085-1.048,1.139l-.019,0a4.646,4.646,0,0,1-.7.049c-1.529,0-2.3-.614-2.3-1.825a2.671,2.671,0,0,1,.726-2.2,3.042,3.042,0,0,1,1.925-.452h9.613c1.719,0,2.651.423,2.651,2.653A1.562,1.562,0,0,1,26.68,5.287Z" transform="translate(-11.366)" fill="#51b100"/>
        <path id="Path_114" data-name="Path 114" d="M120.787,177.716a3.758,3.758,0,1,0,3.755,3.758A3.761,3.761,0,0,0,120.787,177.716Zm0,6.368a2.61,2.61,0,1,1,2.608-2.61A2.612,2.612,0,0,1,120.787,184.084Z" transform="translate(-112.183 -169.554)" fill="#51b100"/>
      </g>
    </g>
    <g id="open-book" transform="translate(61.953 189.968)">
      <g id="Group_57" data-name="Group 57">
        <path id="Path_115" data-name="Path 115" d="M16.726,77.716H15.79v-.083a.853.853,0,0,0-.318-.731,6.9,6.9,0,0,0-3.517-1.028,6.829,6.829,0,0,0-3.351.934,6.831,6.831,0,0,0-3.351-.934A6.9,6.9,0,0,0,1.737,76.9a.853.853,0,0,0-.317.731v.083H.483c-.267,0-.483.349-.483.779V93.361c0,.43.216.779.483.779H16.726c.267,0,.483-.349.483-.779V78.495C17.209,78.065,16.993,77.716,16.726,77.716Zm-1.9.471V89.9a6.63,6.63,0,0,0-2.868-.682,6.627,6.627,0,0,0-2.867.682V78.187a6.109,6.109,0,0,1,2.868-.756A6.11,6.11,0,0,1,14.824,78.187Zm-12.438,0a6.109,6.109,0,0,1,2.868-.756,6.11,6.11,0,0,1,2.868.756V89.9a6.63,6.63,0,0,0-2.868-.682,6.627,6.627,0,0,0-2.867.682V78.187ZM.967,79.273h.452v11.7a.983.983,0,0,0,.206.638.374.374,0,0,0,.277.141.325.325,0,0,0,.166-.047,6.256,6.256,0,0,1,3.185-.934,6.115,6.115,0,0,1,2.868.757v1.049H.967V79.273ZM16.242,92.582H9.088V91.533a6.111,6.111,0,0,1,2.867-.757,6.259,6.259,0,0,1,3.185.934.338.338,0,0,0,.443-.093.983.983,0,0,0,.206-.638v-11.7h.452Z" transform="translate(0 -75.873)" fill="#51b100"/>
        <path id="Path_116" data-name="Path 116" d="M87.483,148.558H90.01c.267,0,.483-.349.483-.779S90.277,147,90.01,147H87.483c-.267,0-.483.349-.483.779S87.216,148.558,87.483,148.558Z" transform="translate(-83.635 -142.571)" fill="#51b100"/>
        <path id="Path_117" data-name="Path 117" d="M90.493,217.78c0-.43-.216-.779-.483-.779H87.483c-.267,0-.483.349-.483.779s.216.779.483.779H90.01C90.277,218.558,90.493,218.21,90.493,217.78Z" transform="translate(-83.635 -208.21)" fill="#51b100"/>
        <path id="Path_118" data-name="Path 118" d="M268.151,148.558h2.527c.267,0,.483-.349.483-.779s-.216-.779-.483-.779h-2.527c-.267,0-.483.349-.483.779S267.884,148.558,268.151,148.558Z" transform="translate(-257.317 -142.571)" fill="#51b100"/>
        <path id="Path_119" data-name="Path 119" d="M268.151,218.558h2.527c.267,0,.483-.349.483-.779s-.216-.779-.483-.779h-2.527c-.267,0-.483.349-.483.779S267.884,218.558,268.151,218.558Z" transform="translate(-257.317 -208.21)" fill="#51b100"/>
      </g>
    </g>
    <g id="open-umbrella" transform="translate(92.93 189.968)">
      <path id="Path_120" data-name="Path 120" d="M14.662,33.005a8.166,8.166,0,0,0-12.115,0A9.605,9.605,0,0,0,0,39.6a.583.583,0,0,0,.485.626.415.415,0,0,0,.081.009.5.5,0,0,0,.447-.33,2.453,2.453,0,0,1,2.793-1.621A2.768,2.768,0,0,1,5.47,39.91a.462.462,0,0,0,.687.254.578.578,0,0,0,.2-.247l0-.007A2.849,2.849,0,0,1,8.1,38.28v7.928a2.186,2.186,0,0,0,1.918,2.375,2.186,2.186,0,0,0,1.918-2.375.577.577,0,0,0-.507-.628.577.577,0,0,0-.507.628,1.03,1.03,0,0,1-.9,1.119,1.03,1.03,0,0,1-.9-1.119v-7.93l.043.012a2.767,2.767,0,0,1,1.662,1.619h0a.581.581,0,0,0,.207.257.429.429,0,0,0,.24.075.5.5,0,0,0,.447-.33A2.453,2.453,0,0,1,14.5,38.289a2.768,2.768,0,0,1,1.663,1.621.484.484,0,0,0,.526.321h.01a.577.577,0,0,0,.507-.628A9.605,9.605,0,0,0,14.662,33.005Zm.077,4.063a2.808,2.808,0,0,0-2.336.346,3.966,3.966,0,0,0-1.136,1.1,3.544,3.544,0,0,0-1.876-1.444,2.808,2.808,0,0,0-2.336.346,3.964,3.964,0,0,0-1.136,1.1,3.544,3.544,0,0,0-1.877-1.443,2.808,2.808,0,0,0-2.336.346,3.64,3.64,0,0,0-.5.374,7.71,7.71,0,0,1,7.4-6.217A7.711,7.711,0,0,1,16,37.8,3.245,3.245,0,0,0,14.739,37.068Z" transform="translate(0 -30.316)" fill="#51b100"/>
    </g>
    <g id="piece-of-paper-and-pencil" transform="translate(278.791 189.968)">
      <path id="Path_135" data-name="Path 135" d="M19.385,6,18.1,4.652h0L16.813,3.3a.527.527,0,0,0-.77,0l-.636.667V.571A.558.558,0,0,0,14.862,0H2.88a.558.558,0,0,0-.545.571V17.695a.558.558,0,0,0,.545.571H14.862a.558.558,0,0,0,.545-.571V10.981l3.978-4.173A.591.591,0,0,0,19.385,6ZM14.318,17.124H3.424V1.143H14.318V5.112l-4.5,4.721a.581.581,0,0,0-.148.288L9,13.521a.59.59,0,0,0,.148.519.532.532,0,0,0,.385.167.521.521,0,0,0,.11-.012l3.241-.7a.537.537,0,0,0,.275-.156l1.158-1.215v5ZM10.532,11.39l1.144,1.2-1.441.312Zm2.243.737-1.8-1.89,5.455-5.722.516.541-3.327,3.49a.591.591,0,0,0,0,.808.527.527,0,0,0,.77,0l3.327-3.49.516.541Z" transform="translate(-2.335)" fill="#51b100"/>
    </g>
    <g id="play-button" transform="translate(0 221.629)">
      <g id="Group_64" data-name="Group 64">
        <path id="Path_136" data-name="Path 136" d="M14.066,0H3.143A3.248,3.248,0,0,0,0,3.337V14.93a3.248,3.248,0,0,0,3.143,3.336H14.066a3.248,3.248,0,0,0,3.143-3.336V3.337A3.248,3.248,0,0,0,14.066,0ZM16.12,14.93a2.123,2.123,0,0,1-2.054,2.18H3.143a2.123,2.123,0,0,1-2.054-2.18V3.337a2.123,2.123,0,0,1,2.054-2.18H14.066a2.123,2.123,0,0,1,2.054,2.18V14.93Z" fill="#51b100"/>
        <path id="Path_137" data-name="Path 137" d="M142.843,87.92l-5.54-4.713a.519.519,0,0,0-.576-.07.582.582,0,0,0-.309.521v9.426a.582.582,0,0,0,.309.521.517.517,0,0,0,.236.057.525.525,0,0,0,.341-.127l5.54-4.713a.6.6,0,0,0,0-.9Zm-5.336,3.96V84.862l4.125,3.509Z" transform="translate(-130.474 -79.238)" fill="#51b100"/>
      </g>
    </g>
    <g id="power-button" transform="translate(30.977 221.629)">
      <g id="Group_67" data-name="Group 67" transform="translate(0)">
        <g id="Group_65" data-name="Group 65" transform="translate(7.929)">
          <path id="Path_138" data-name="Path 138" d="M165.658,9.076a.66.66,0,0,1-.675-.643V.643a.676.676,0,0,1,1.351,0V8.432A.66.66,0,0,1,165.658,9.076Z" transform="translate(-164.983)" fill="#51b100"/>
        </g>
        <g id="Group_66" data-name="Group 66" transform="translate(0 2.177)">
          <path id="Path_139" data-name="Path 139" d="M26.8,58.394a8.418,8.418,0,0,1-8.6-8.2,7.875,7.875,0,0,1,1.751-4.957,8.689,8.689,0,0,1,4.43-2.91.681.681,0,0,1,.838.436.639.639,0,0,1-.458.8,7,7,0,0,0-5.21,6.632,7.1,7.1,0,0,0,7.254,6.91,7.1,7.1,0,0,0,7.254-6.91,7,7,0,0,0-5.21-6.632.639.639,0,0,1-.458-.8.681.681,0,0,1,.838-.436,8.689,8.689,0,0,1,4.43,2.91A7.875,7.875,0,0,1,35.406,50.2,8.418,8.418,0,0,1,26.8,58.394Z" transform="translate(-18.197 -42.305)" fill="#51b100"/>
        </g>
      </g>
    </g>
    <g id="pushpin" transform="translate(61.953 221.629)">
      <path id="Path_140" data-name="Path 140" d="M17.042,6.757,10.844.179a.551.551,0,0,0-.811,0A8.245,8.245,0,0,0,9,2.906H9L6.515,5.548a2.1,2.1,0,0,0-.7-.122,2.131,2.131,0,0,0-1.561.686,2.449,2.449,0,0,0,0,3.314L5.884,11.16.169,17.227a.636.636,0,0,0,0,.861.551.551,0,0,0,.811,0L6.7,12.021,8.33,13.756a2.118,2.118,0,0,0,3.122,0,2.446,2.446,0,0,0,.532-2.4L14.472,8.71a7.246,7.246,0,0,0,2.57-1.092A.636.636,0,0,0,17.042,6.757Zm-2.982.807a.567.567,0,0,0-.314.19c-.031.036-.058.067-.085.1l-2.768,2.938a.637.637,0,0,0-.088.74,1.176,1.176,0,0,1-.164,1.367,1.017,1.017,0,0,1-1.5,0L7.1,10.73h0L5.061,8.564a1.176,1.176,0,0,1,0-1.591,1.024,1.024,0,0,1,.75-.33,1.013,1.013,0,0,1,.538.155.549.549,0,0,0,.7-.094L9.814,3.767c.028-.029.058-.059.089-.089a.619.619,0,0,0,.181-.335,13.311,13.311,0,0,1,.493-1.727l5.11,5.423A11.381,11.381,0,0,1,14.059,7.564Z" transform="translate(0 0)" fill="#51b100"/>
    </g>
    <g id="question-mark" transform="translate(92.93 221.629)">
      <g id="Group_68" data-name="Group 68">
        <path id="Path_141" data-name="Path 141" d="M14.066,0H3.143A3.248,3.248,0,0,0,0,3.336V14.93a3.248,3.248,0,0,0,3.143,3.336H14.066a3.248,3.248,0,0,0,3.143-3.336V3.336A3.248,3.248,0,0,0,14.066,0ZM16.12,14.93a2.123,2.123,0,0,1-2.054,2.18H3.143a2.123,2.123,0,0,1-2.054-2.18V3.336a2.123,2.123,0,0,1,2.054-2.18H14.066a2.123,2.123,0,0,1,2.054,2.18V14.93Z" fill="#51b100"/>
        <path id="Path_142" data-name="Path 142" d="M138.917,79.908a2.757,2.757,0,0,0-2.669,2.833.546.546,0,1,0,1.089,0,1.582,1.582,0,1,1,3.159,0c0,.532-.362.887-.959,1.409a2.574,2.574,0,0,0-1.165,1.881v1.855a.546.546,0,1,0,1.089,0V86.031c0-.316.356-.628.769-.989a3.051,3.051,0,0,0,1.355-2.3A2.757,2.757,0,0,0,138.917,79.908Z" transform="translate(-130.312 -76.213)" fill="#51b100"/>
        <path id="Path_143" data-name="Path 143" d="M182.166,283.024a.743.743,0,1,0,.7.742A.722.722,0,0,0,182.166,283.024Z" transform="translate(-173.561 -269.936)" fill="#51b100"/>
      </g>
    </g>
    <g id="reusable-shopping-bag" transform="translate(125.054 221.629)">
      <path id="Path_144" data-name="Path 144" d="M54.627,17.617,53.574,3.8a.638.638,0,0,0-.67-.54h-2.94V2.89A3.155,3.155,0,0,0,46.6,0H45.449A3.155,3.155,0,0,0,42.09,2.89v.372h-2.94a.638.638,0,0,0-.67.54L37.424,17.65a.532.532,0,0,0,.18.433.727.727,0,0,0,.49.183H53.96a.63.63,0,0,0,.672-.578A.514.514,0,0,0,54.627,17.617ZM43.434,2.89a1.893,1.893,0,0,1,2.016-1.734H46.6A1.893,1.893,0,0,1,48.62,2.89v.372H43.434ZM38.812,17.11,39.78,4.418h2.31v.516a1.267,1.267,0,0,0-.806,1.132,1.495,1.495,0,0,0,2.956,0,1.267,1.267,0,0,0-.806-1.132V4.418H48.62v.516a1.267,1.267,0,0,0-.806,1.132,1.495,1.495,0,0,0,2.956,0,1.267,1.267,0,0,0-.806-1.132V4.418h2.31l.968,12.692Z" transform="translate(-37.423)" fill="#51b100"/>
    </g>
    <g id="satellite-dish" transform="translate(156.031 221.629)">
      <path id="Path_145" data-name="Path 145" d="M42.671,14.639A10.823,10.823,0,0,0,49.7,12.162a.623.623,0,0,0,0-.98L46.224,8.224V3.854a.762.762,0,0,0-.815-.693H40.27L36.792.2A.92.92,0,0,0,35.64.2a7.6,7.6,0,0,0,0,11.96,10.192,10.192,0,0,0,3.205,1.831v2.886H36.367a.7.7,0,1,0,0,1.386h6.586a.7.7,0,1,0,0-1.386H40.475V14.433A11.72,11.72,0,0,0,42.671,14.639ZM44.594,4.547V6.838L41.9,4.547ZM36.244,1.7l11.7,9.952a9.183,9.183,0,0,1-5.275,1.6,9.048,9.048,0,0,1-5.879-2.071A6.326,6.326,0,0,1,36.244,1.7Z" transform="translate(-32.732 0)" fill="#51b100"/>
    </g>
    <g id="screwdriver-and-wrench" transform="translate(187.008 221.629)">
      <g id="Group_69" data-name="Group 69">
        <path id="Path_146" data-name="Path 146" d="M16.9,42.578a.517.517,0,0,0-.348-.352.414.414,0,0,0-.424.167l-1.759,2.236a1.206,1.206,0,0,1-1.994,0,2.167,2.167,0,0,1,0-2.544l1.757-2.236a.721.721,0,0,0,.132-.542.6.6,0,0,0-.276-.445,3.032,3.032,0,0,0-1.485-.4,3.128,3.128,0,0,0-2.473,1.282l-.579.739a5.411,5.411,0,0,0-.79,4.825l-.589.752-.614-.783.247-.315a.732.732,0,0,0,0-.86l-2.4-3.061a2.914,2.914,0,0,0-.512-2.3,1.731,1.731,0,0,0-1.361-.72,1.732,1.732,0,0,0-1.361.719L.564,40.664a2.958,2.958,0,0,0,0,3.474,1.731,1.731,0,0,0,1.36.719h0a1.532,1.532,0,0,0,.445-.066l2.4,3.061a.408.408,0,0,0,.674,0l.247-.315.614.783L3.9,51.386a3.456,3.456,0,0,0,0,4.058,2.023,2.023,0,0,0,1.59.84,2.023,2.023,0,0,0,1.59-.84l2.4-3.066,2.391,3.052a.473.473,0,0,0,.189.148l1.626.676a.383.383,0,0,0,.147.03.431.431,0,0,0,.337-.178.731.731,0,0,0,.116-.618l-.53-2.076a.655.655,0,0,0-.116-.242L11.252,50.12l.59-.753a2.883,2.883,0,0,0,1.288.31,3.171,3.171,0,0,0,2.492-1.318l.579-.739A5.528,5.528,0,0,0,16.9,42.578ZM5.1,46.563l-2.268-2.9A.431.431,0,0,0,2.5,43.49a.39.39,0,0,0-.189.05.792.792,0,0,1-.386.1.874.874,0,0,1-.687-.363,1.494,1.494,0,0,1,0-1.754L2.746,39.6a.874.874,0,0,1,.687-.363.874.874,0,0,1,.687.363,1.492,1.492,0,0,1,.2,1.369.736.736,0,0,0,.1.671l2.268,2.9Zm1.257.115.423-.54.614.783-.423.54Zm6.526,7.25.2.8-.627-.261-2.31-2.949.423-.54Zm2.639-7.167-.579.739a2.314,2.314,0,0,1-1.819.961,2.134,2.134,0,0,1-1.181-.364.426.426,0,0,0-.591.16L6.406,54.585a1.166,1.166,0,0,1-.916.484,1.166,1.166,0,0,1-.916-.484,1.991,1.991,0,0,1,0-2.339L9.53,45.927a.749.749,0,0,0,.126-.755,3.959,3.959,0,0,1,.469-3.828L10.7,40.6a2.271,2.271,0,0,1,1.8-.926,2.148,2.148,0,0,1,.385.035L11.7,41.224a3.631,3.631,0,0,0,0,4.265,2.022,2.022,0,0,0,3.341,0l1.19-1.512A3.893,3.893,0,0,1,15.527,46.761Z" transform="translate(0 -38.019)" fill="#51b100"/>
        <path id="Path_147" data-name="Path 147" d="M128.2,332.171a.668.668,0,0,0-.525.278,1.142,1.142,0,0,0,0,1.341.636.636,0,0,0,1.051,0,1.142,1.142,0,0,0,0-1.341A.669.669,0,0,0,128.2,332.171Z" transform="translate(-122.597 -317.864)" fill="#51b100"/>
      </g>
    </g>
    <g id="selection-tool" transform="translate(216.837 221.629)">
      <path id="Path_148" data-name="Path 148" d="M46.446,7.809C46.446,3.5,42.586,0,37.842,0s-8.6,3.5-8.6,7.809a7.609,7.609,0,0,0,3.626,6.37,1.829,1.829,0,0,0,.526,1.1L35.3,17.223q.029.029.06.057a3.988,3.988,0,0,0,2.472.986H39.7a3.424,3.424,0,0,0,2.16-.735,2.5,2.5,0,0,0,.965-1.922V14.173A7.612,7.612,0,0,0,46.446,7.809ZM39.7,17.134H37.827a2.678,2.678,0,0,1-1.6-.663l-1.907-1.948a.743.743,0,0,1,.073-1.12.923.923,0,0,1,.58-.2.913.913,0,0,1,.654.266l.309.316V10.207a.878.878,0,0,1,1.748,0v1.855a.936.936,0,0,1,.445-.111.876.876,0,0,1,.814.506.933.933,0,0,1,.47-.125.856.856,0,0,1,.858.645.938.938,0,0,1,.435-.106.837.837,0,0,1,.874.793v1.944A1.73,1.73,0,0,1,39.7,17.134Zm2.936-4.264a2.126,2.126,0,0,0-1.746-1.125,2.235,2.235,0,0,0-1.48-.547H39.4l-.053-.035a2.19,2.19,0,0,0-.41-.2v-.755a2.131,2.131,0,0,0-4.242,0v1.882a2.222,2.222,0,0,0-1.124.468,2,2,0,0,0-.389.417,6.449,6.449,0,0,1-2.693-5.164c0-3.682,3.3-6.678,7.358-6.678s7.358,3,7.358,6.678A6.433,6.433,0,0,1,42.641,12.871Z" transform="translate(-29.237)" fill="#51b100"/>
    </g>
    <g id="shopping-basket" transform="translate(247.814 221.629)">
      <g id="Group_70" data-name="Group 70">
        <path id="Path_149" data-name="Path 149" d="M14.964,22.09h-.916a5.5,5.5,0,0,0-.811-3.265,4.088,4.088,0,0,0-2.813-1.506,1.023,1.023,0,0,0-.9-.582H7.686a1.023,1.023,0,0,0-.9.582,4.087,4.087,0,0,0-2.813,1.506,5.5,5.5,0,0,0-.811,3.265H2.246A2.46,2.46,0,0,0,0,24.714a2.585,2.585,0,0,0,1.7,2.547v4.288A3.237,3.237,0,0,0,4.657,35h7.9a3.237,3.237,0,0,0,2.955-3.454V27.262a2.585,2.585,0,0,0,1.7-2.547A2.46,2.46,0,0,0,14.964,22.09ZM4.871,19.721a3.064,3.064,0,0,1,2.086-1.037.984.984,0,0,0,.729.333H9.523a.984.984,0,0,0,.729-.333,3.064,3.064,0,0,1,2.086,1.037,4.141,4.141,0,0,1,.528,2.368H4.344A4.141,4.141,0,0,1,4.871,19.721Zm10.093,6.236h-.057a.545.545,0,0,0-.429.224.853.853,0,0,0-.153.527v4.841a1.942,1.942,0,0,1-1.773,2.072h-7.9a1.942,1.942,0,0,1-1.773-2.072V26.709a.831.831,0,0,0-.153-.527.542.542,0,0,0-.428-.224H2.246a1.258,1.258,0,0,1,0-2.487H14.964a1.258,1.258,0,0,1,0,2.487Z" transform="translate(0 -16.737)" fill="#51b100"/>
        <path id="Path_150" data-name="Path 150" d="M100.107,207.163a.647.647,0,0,0-.591.691v2.984a.6.6,0,1,0,1.182,0v-2.984A.647.647,0,0,0,100.107,207.163Z" transform="translate(-94.811 -196.64)" fill="#51b100"/>
        <path id="Path_151" data-name="Path 151" d="M170.107,207.163a.647.647,0,0,0-.591.691v2.984a.6.6,0,1,0,1.182,0v-2.984A.647.647,0,0,0,170.107,207.163Z" transform="translate(-161.502 -196.64)" fill="#51b100"/>
        <path id="Path_152" data-name="Path 152" d="M240.107,207.163a.647.647,0,0,0-.591.691v2.984a.6.6,0,1,0,1.182,0v-2.984A.647.647,0,0,0,240.107,207.163Z" transform="translate(-228.193 -196.64)" fill="#51b100"/>
      </g>
    </g>
    <g id="shopping-cart" transform="translate(278.791 221.629)">
      <path id="Path_153" data-name="Path 153" d="M16.62,8.173H4.16L3.443,6.328a.607.607,0,0,0-.407-.375L.724,5.359a.589.589,0,0,0-.709.48.649.649,0,0,0,.439.775l2.021.52,5.173,13.3A2.273,2.273,0,0,0,7.4,21.476a2.048,2.048,0,0,0,1.949,2.131,2.048,2.048,0,0,0,1.949-2.131,2.291,2.291,0,0,0-.155-.832h2.122a2.291,2.291,0,0,0-.155.832,2.048,2.048,0,0,0,1.949,2.131,2.14,2.14,0,0,0,0-4.262l-6.544.01L7.7,17.281H16.62a.619.619,0,0,0,.589-.644V8.817A.619.619,0,0,0,16.62,8.173ZM15.056,20.635a.845.845,0,1,1-.77.842A.808.808,0,0,1,15.056,20.635Zm-5.709,0a.845.845,0,1,1-.77.842A.808.808,0,0,1,9.348,20.635Zm6.682-8.552H12.124a.647.647,0,0,0,0,1.289H16.03v2.621H7.2L4.662,9.462H16.03v2.621Z" transform="translate(0 -5.341)" fill="#51b100"/>
    </g>
    <g id="smartphone" transform="translate(0 253.29)">
      <path id="Path_154" data-name="Path 154" d="M84.324,0H68.885C68.4,0,68,.27,68,.6V17.664c0,.333.4.6.885.6H84.324c.489,0,.885-.27.885-.6V.6C85.209.27,84.813,0,84.324,0ZM69.77,14.751V3.515H83.439V14.751ZM80.384,1.2v.037c0,.333.4.6.885.6s.885-.27.885-.6V1.2h1.285v1.1H69.771V1.2ZM69.77,17.061v-1.1h5.66a1.566,1.566,0,0,0,2.349,0h5.66v1.1Z" transform="translate(-68)" fill="#51b100"/>
    </g>
    <g id="speech-bubble-with-text-lines" transform="translate(30.977 253.29)">
      <g id="Group_71" data-name="Group 71">
        <path id="Path_155" data-name="Path 155" d="M14.192,7.23H3.017A3.193,3.193,0,0,0,0,10.568v7.625a3.193,3.193,0,0,0,3.017,3.338h7.118L13.542,25.3a.575.575,0,0,0,.427.2.552.552,0,0,0,.231-.051.672.672,0,0,0,.373-.617V21.5a3.246,3.246,0,0,0,2.637-3.311V10.568A3.193,3.193,0,0,0,14.192,7.23ZM16,18.193a1.916,1.916,0,0,1-1.81,2h-.223a.638.638,0,0,0-.6.668v2.353l-2.554-2.825a.575.575,0,0,0-.427-.2H3.017a1.916,1.916,0,0,1-1.81-2V10.568a1.916,1.916,0,0,1,1.81-2H14.192a1.916,1.916,0,0,1,1.81,2Z" transform="translate(0 -7.23)" fill="#51b100"/>
        <path id="Path_156" data-name="Path 156" d="M83.228,95.743H74.345a.671.671,0,0,0,0,1.335h8.883a.671.671,0,0,0,0-1.335Z" transform="translate(-70.182 -91.016)" fill="#51b100"/>
        <path id="Path_157" data-name="Path 157" d="M83.228,165.743H74.345a.671.671,0,0,0,0,1.335h8.883a.671.671,0,0,0,0-1.335Z" transform="translate(-70.182 -157.277)" fill="#51b100"/>
      </g>
    </g>
    <g id="speech-bubble" transform="translate(61.953 253.29)">
      <path id="Path_158" data-name="Path 158" d="M14.644,6.462A9.116,9.116,0,0,0,8.6,4.257,9.116,9.116,0,0,0,2.566,6.462a7.125,7.125,0,0,0,0,10.951A9.116,9.116,0,0,0,8.6,19.618c.232,0,.465-.008.7-.025l1.466,2.626a.575.575,0,0,0,.484.3h.013a.571.571,0,0,0,.483-.279l3.1-5.019a7.115,7.115,0,0,0-.207-10.762ZM14,16.355,11.29,20.718,10.11,18.6a.573.573,0,0,0-.5-.3.559.559,0,0,0-.059,0,8.712,8.712,0,0,1-.949.052c-4.1,0-7.442-2.879-7.442-6.417S4.5,5.52,8.6,5.52s7.442,2.879,7.442,6.417A5.952,5.952,0,0,1,14,16.355Z" transform="translate(0 -4.257)" fill="#51b100"/>
    </g>
    <g id="star" transform="translate(92.93 253.29)">
      <g id="Group_72" data-name="Group 72" transform="translate(0)">
        <path id="Path_159" data-name="Path 159" d="M13.544,26.242a.564.564,0,0,1-.285-.078L8.6,23.443,3.951,26.164a.562.562,0,0,1-.646-.052.719.719,0,0,1-.244-.667l.889-5.762L.185,15.6a.736.736,0,0,1-.155-.7.635.635,0,0,1,.495-.464l5.2-.841L8.055,8.356a.588.588,0,0,1,1.1,0L11.481,13.6l5.2.841a.635.635,0,0,1,.495.464.735.735,0,0,1-.155.7l-3.765,4.081.889,5.762a.719.719,0,0,1-.244.667A.572.572,0,0,1,13.544,26.242ZM1.93,15.59l3.107,3.367a.73.73,0,0,1,.176.6L4.48,24.315l3.84-2.245a.559.559,0,0,1,.57,0l3.84,2.245L12,19.56a.73.73,0,0,1,.176-.6l3.107-3.367L10.986,14.9a.622.622,0,0,1-.462-.373L8.6,10.2l-1.92,4.326a.622.622,0,0,1-.462.373Z" transform="translate(0 -7.976)" fill="#51b100"/>
      </g>
    </g>
    <g id="subtracting-button" transform="translate(125.054 253.29)">
      <g id="Group_75" data-name="Group 75">
        <g id="Group_73" data-name="Group 73">
          <path id="Path_160" data-name="Path 160" d="M8.6,18.267A8.891,8.891,0,0,1,0,9.134,8.891,8.891,0,0,1,8.6,0a8.891,8.891,0,0,1,8.6,9.133A8.891,8.891,0,0,1,8.6,18.267ZM8.6,1.5A7.433,7.433,0,0,0,1.411,9.134,7.433,7.433,0,0,0,8.6,16.77,7.433,7.433,0,0,0,15.8,9.134,7.433,7.433,0,0,0,8.6,1.5Z" transform="translate(0 -0.001)" fill="#51b100"/>
        </g>
        <g id="Group_74" data-name="Group 74" transform="translate(3.753 8.384)">
          <path id="Path_161" data-name="Path 161" d="M75.505,141.5H67.211a.75.75,0,0,1,0-1.5h8.294a.75.75,0,0,1,0,1.5Z" transform="translate(-66.506 -140.001)" fill="#51b100"/>
        </g>
      </g>
    </g>
    <g id="tablet" transform="translate(156.031 253.29)">
      <path id="Path_162" data-name="Path 162" d="M54.5,0H38.71A.663.663,0,0,0,38,.6V17.664a.663.663,0,0,0,.71.6H54.5a.663.663,0,0,0,.71-.6V.6A.663.663,0,0,0,54.5,0Zm-3.16,1.2v.037a.72.72,0,0,0,1.42,0V1.2h1.03V14.751H39.42V1.2ZM39.42,17.061v-1.1h6.243a1.1,1.1,0,0,0,1.884,0h6.243v1.1Z" transform="translate(-38)" fill="#51b100"/>
    </g>
    <g id="telephone-handle" transform="translate(187.008 253.29)">
      <g id="Group_76" data-name="Group 76" transform="translate(0)">
        <path id="Path_163" data-name="Path 163" d="M12.942,18.271a4.555,4.555,0,0,1-3.135-1.743L1.642,7.862A5.345,5.345,0,0,1,.021,4.909a4.757,4.757,0,0,1,1.621-3.77A3.192,3.192,0,0,1,3.984,0C6,0,7.534,2.22,7.664,2.413A3.687,3.687,0,0,1,7.8,5.559c-.273,1.091-.416,1.785.06,2.291L9.818,9.926a1.036,1.036,0,0,0,.818.33,5.309,5.309,0,0,0,1.34-.266,6.082,6.082,0,0,1,1.613-.3,2.107,2.107,0,0,1,1.351.449A5.876,5.876,0,0,1,17.2,13.771a3.511,3.511,0,0,1-1.057,2.757A4.536,4.536,0,0,1,12.942,18.271ZM3.984,1.29A2.039,2.039,0,0,0,2.5,2.048,3.566,3.566,0,0,0,1.223,4.758,4.01,4.01,0,0,0,2.5,6.954l8.165,8.666a3.363,3.363,0,0,0,2.279,1.367,3.474,3.474,0,0,0,2.342-1.367,2.218,2.218,0,0,0,.707-1.734,4.676,4.676,0,0,0-1.759-2.706l-.017-.013a.947.947,0,0,0-.627-.194,5.212,5.212,0,0,0-1.3.26,6.193,6.193,0,0,1-1.651.309h0a2.211,2.211,0,0,1-1.673-.706L7.006,8.758c-.994-1.055-.65-2.427-.374-3.529.246-.984.373-1.612.062-2.048L6.68,3.163C6.669,3.145,5.413,1.29,3.984,1.29Z" transform="translate(0 -0.005)" fill="#51b100"/>
      </g>
    </g>
    <g id="television-with-antenna" transform="translate(216.837 253.29)">
      <path id="Path_164" data-name="Path 164" d="M35.194,5.164H28.431l3.2-3.059a.59.59,0,0,0,0-.861.658.658,0,0,0-.9,0l-3.5,3.349L22.608.179a.658.658,0,0,0-.9,0,.59.59,0,0,0,0,.861l4.314,4.125H19.259a.623.623,0,0,0-.637.609v9.136a.623.623,0,0,0,.637.609H24.6V16l-2.572,1.1a.6.6,0,0,0-.32.8.639.639,0,0,0,.581.36.66.66,0,0,0,.26-.054L25.378,17h3.7L31.9,18.213a.66.66,0,0,0,.26.054.639.639,0,0,0,.581-.36.6.6,0,0,0-.32-.8L29.849,16v-.481h5.345a.623.623,0,0,0,.637-.609V5.773A.623.623,0,0,0,35.194,5.164ZM28.575,15.784h-2.7v-.266h2.7ZM34.558,14.3H19.9V6.382H34.558V14.3Z" transform="translate(-18.622 0)" fill="#51b100"/>
    </g>
    <g id="television" transform="translate(247.814 253.29)">
      <path id="Path_165" data-name="Path 165" d="M16.618,36.765H.591c-.326,0-.591.352-.591.786V51.2c0,.434.265.786.591.786H6.335v1.476H4.929c-.326,0-.591.352-.591.786s.265.786.591.786H12.28c.326,0,.591-.352.591-.786s-.265-.786-.591-.786H10.874V51.983h5.744c.326,0,.591-.352.591-.786V37.551C17.209,37.117,16.945,36.765,16.618,36.765ZM9.692,53.459H7.517V51.983H9.692Zm6.335-3.048h-.672v-.666c0-.434-.265-.786-.591-.786s-.591.352-.591.786v.666H13.2v-.666c0-.434-.265-.786-.591-.786s-.591.352-.591.786v.666H1.182V38.337H16.027Z" transform="translate(0 -36.765)" fill="#51b100"/>
    </g>
    <g id="thumb-up" transform="translate(278.791 253.29)">
      <g id="Group_79" data-name="Group 79" transform="translate(0)">
        <g id="Group_78" data-name="Group 78">
          <g id="Group_77" data-name="Group 77">
            <path id="Path_166" data-name="Path 166" d="M44.614,1.3a1.334,1.334,0,0,1,1.337,1.1,6.376,6.376,0,0,1-.9,4.853h3.3a1.708,1.708,0,0,1,1.823,1.5,1.47,1.47,0,0,1-1.3,1.5,1.33,1.33,0,0,1,.247.764,1.528,1.528,0,0,1-1.124,1.4,1.338,1.338,0,0,1,.278.808,1.589,1.589,0,0,1-1.434,1.475,1.328,1.328,0,0,1,.236.748,1.648,1.648,0,0,1-1.762,1.5l-1.87,0c-5.532,0-4.49-1.635-7.42-1.635V9.131c1.872,0,3.5-.085,5.133-2.284a8.912,8.912,0,0,0,2.188-4.595A1.21,1.21,0,0,1,44.614,1.3m0-1.3h0a3.127,3.127,0,0,0-1.8.554,2.3,2.3,0,0,0-.979,1.536,7.7,7.7,0,0,1-1.918,4l-.044.059c-1.245,1.677-2.222,1.677-3.84,1.677a1.432,1.432,0,0,0-1.531,1.3v6.195a1.432,1.432,0,0,0,1.531,1.3,2.534,2.534,0,0,1,1.549.419,8.087,8.087,0,0,0,2.022.829,15.67,15.67,0,0,0,3.849.387h1.871a3.082,3.082,0,0,0,3.292-2.806c0-.019,0-.038,0-.057a2.667,2.667,0,0,0,1.2-2.165,2.388,2.388,0,0,0-.02-.311,3,3,0,0,0,.275-.293,2.513,2.513,0,0,0,.591-1.6c0-.034,0-.067,0-.1a2.808,2.808,0,0,0,1.053-2.166,2.581,2.581,0,0,0-1.021-2.006,3.7,3.7,0,0,0-2.334-.8H47.3a7.388,7.388,0,0,0,.153-3.8A2.672,2.672,0,0,0,46.441.586,3.067,3.067,0,0,0,44.614,0Z" transform="translate(-34.503)" fill="#51b100"/>
          </g>
        </g>
      </g>
    </g>
    <g id="unlocked-padlock" transform="translate(0 283.734)">
      <g id="Group_80" data-name="Group 80">
        <path id="Path_167" data-name="Path 167" d="M70.136,6.981H67.688l.724-2.306C68.971,2.9,67.5,1.108,65.13.689L61.745.09A5.648,5.648,0,0,0,58.411.5a3.518,3.518,0,0,0-1.975,2.058c-.1.334.171.669.616.747a.868.868,0,0,0,1-.462,2.2,2.2,0,0,1,1.234-1.286A3.528,3.528,0,0,1,61.365,1.3l3.385.6c1.48.262,2.4,1.38,2.052,2.491l-.814,2.591H54.582c-.457,0-.828.278-.828.621v6.07c0,2.533,2.745,4.594,6.118,4.594h4.973c3.374,0,6.118-2.061,6.118-4.594V7.6C70.963,7.259,70.593,6.981,70.136,6.981Zm-.828,6.691c0,1.848-2,3.351-4.463,3.351H59.872c-2.461,0-4.463-1.5-4.463-3.351V8.224h13.9v5.448Z" transform="translate(-53.754 0)" fill="#51b100"/>
        <path id="Path_168" data-name="Path 168" d="M169,248.188c0,.343.371.621.828.621s.828-.278.828-.621v-1.774a.523.523,0,0,0,.157-.363c0-.343-.371-.621-.828-.621h-.315c-.457,0-.828.278-.828.621a.523.523,0,0,0,.157.363Z" transform="translate(-161.22 -233.228)" fill="#51b100"/>
      </g>
    </g>
    <g id="update-arrow" transform="translate(30.977 283.734)">
      <path id="Path_169" data-name="Path 169" d="M17.176,22a.655.655,0,0,0-.841-.481l-.867.316a10.055,10.055,0,0,0,.81-3.974c0-5.036-3.651-9.133-8.139-9.133S0,12.821,0,17.857,3.651,26.99,8.139,26.99a.754.754,0,0,0,0-1.5c-3.752,0-6.8-3.425-6.8-7.636s3.053-7.636,6.8-7.636,6.8,3.425,6.8,7.636a8.4,8.4,0,0,1-.679,3.328l-.3-1.024a.655.655,0,0,0-.841-.481.771.771,0,0,0-.428.943l.787,2.717a.679.679,0,0,0,.634.518.6.6,0,0,0,.206-.037l2.421-.883A.771.771,0,0,0,17.176,22Z" transform="translate(0 -8.724)" fill="#51b100"/>
    </g>
    <g id="update-arrows" transform="translate(61.953 283.734)">
      <g id="Group_81" data-name="Group 81" transform="translate(0)">
        <path id="Path_170" data-name="Path 170" d="M24.19,10.741a.629.629,0,0,0-.742.538l-.454,2.375a8,8,0,0,0-7.006-4.5c-4.478,0-8.121,4.084-8.121,9.1a.629.629,0,1,0,1.249,0c0-4.247,3.082-7.7,6.871-7.7a6.771,6.771,0,0,1,5.943,3.834l-2.083-.5a.629.629,0,0,0-.742.538.7.7,0,0,0,.48.831l3.575.859a.558.558,0,0,0,.183.013.582.582,0,0,0,.287-.11.706.706,0,0,0,.272-.441l.766-4.008A.7.7,0,0,0,24.19,10.741Z" transform="translate(-7.475 -9.155)" fill="#51b100"/>
        <path id="Path_171" data-name="Path 171" d="M16.087,155.263a.672.672,0,0,0-.6.723,8.2,8.2,0,0,1-1.851,5.518,6.53,6.53,0,0,1-4.79,2.435c-.076,0-.153,0-.229,0a6.743,6.743,0,0,1-5.844-3.651l2.171.653a.621.621,0,0,0,.765-.5.713.713,0,0,0-.442-.858l-3.531-1.061a.567.567,0,0,0-.474.07.7.7,0,0,0-.291.425l-.947,3.959a.713.713,0,0,0,.442.858.562.562,0,0,0,.162.024.641.641,0,0,0,.6-.519l.532-2.225a7.952,7.952,0,0,0,6.853,4.222c.09,0,.18,0,.27,0a7.718,7.718,0,0,0,5.661-2.877,9.693,9.693,0,0,0,2.188-6.522A.659.659,0,0,0,16.087,155.263Z" transform="translate(0 -147.078)" fill="#51b100"/>
      </g>
    </g>
    <g id="uploading-files-to-the-cloud" transform="translate(92.93 283.734)">
      <path id="Path_172" data-name="Path 172" d="M13.413,69.951C12.674,68.12,11.4,67,10,67a2.611,2.611,0,0,0-.555.06c-.755-1.64-1.977-2.637-3.274-2.637-2.205,0-4,2.8-4.041,6.267A7.461,7.461,0,0,0,0,76.315c0,3.516,1.813,6.376,4.042,6.376h9.126c2.229,0,4.042-2.86,4.042-6.376C17.209,72.93,15.528,70.152,13.413,69.951Zm-.246,11.017H9.151V73.522l1.689,2.665a.422.422,0,0,0,.772,0,1.24,1.24,0,0,0,0-1.219L8.991,70.832a.422.422,0,0,0-.772,0L5.6,74.968a1.24,1.24,0,0,0,0,1.219.472.472,0,0,0,.386.252.472.472,0,0,0,.386-.252l1.689-2.665v7.446H4.042c-1.626,0-2.949-2.087-2.949-4.653A5.179,5.179,0,0,1,2.9,72.023a.99.99,0,0,0,.333-.86c-.006-.119-.009-.24-.009-.361,0-2.566,1.323-4.653,2.949-4.653,1.042,0,2.017.882,2.546,2.3.122.326.364.49.6.4A1.945,1.945,0,0,1,10,68.725c1.1,0,2.1.95,2.609,2.48.1.288.288.467.494.458h.06c1.626,0,2.949,2.087,2.949,4.653S14.794,80.968,13.168,80.968Z" transform="translate(0 -64.425)" fill="#51b100"/>
    </g>
    <g id="video-camera" transform="translate(125.054 283.734)">
      <path id="Path_173" data-name="Path 173" d="M36.873,8.211a.654.654,0,0,0-.517-.129l-2.181.382v-1.3a.615.615,0,0,0-.63-.6h-.382a3.678,3.678,0,0,0,1.312-2.8A3.871,3.871,0,0,0,30.514,0a4.013,4.013,0,0,0-3.332,1.733A4.013,4.013,0,0,0,23.851,0,3.872,3.872,0,0,0,19.89,3.766a3.678,3.678,0,0,0,1.312,2.8H20.82a.615.615,0,0,0-.63.6v7.156a.615.615,0,0,0,.63.6h4.91l-2.45,2.329a.578.578,0,0,0,0,.846.653.653,0,0,0,.89,0l3.012-2.864,3.012,2.864a.653.653,0,0,0,.89,0,.578.578,0,0,0,0-.846l-2.45-2.329h4.91a.615.615,0,0,0,.63-.6v-1.3l2.181.382a.661.661,0,0,0,.114.01.65.65,0,0,0,.4-.139.587.587,0,0,0,.227-.46V8.671A.587.587,0,0,0,36.873,8.211ZM30.514,1.2a2.641,2.641,0,0,1,2.7,2.569,2.705,2.705,0,0,1-5.4,0A2.641,2.641,0,0,1,30.514,1.2ZM27.183,5.8a3.851,3.851,0,0,0,.682.764H26.5A3.85,3.85,0,0,0,27.183,5.8ZM21.149,3.766a2.705,2.705,0,0,1,5.4,0,2.705,2.705,0,0,1-5.4,0Zm11.767,9.952H21.449V7.76H32.916Zm2.924-1.63L34.175,11.8V9.682L35.84,9.39Z" transform="translate(-19.89)" fill="#51b100"/>
    </g>
    <g id="voice-recorder" transform="translate(156.031 283.734)">
      <path id="Path_174" data-name="Path 174" d="M100.375,7.425c0-.307-.395-.556-.882-.556s-.882.249-.882.556c0,2.475-2.6,4.525-5.96,4.834V11.052h.006c2.431,0,4.408-1.248,4.408-2.782V2.782C97.066,1.248,95.089,0,92.658,0H90.883c-2.431,0-4.408,1.248-4.408,2.782V8.269c0,1.534,1.978,2.782,4.408,2.782h.006v1.208c-3.357-.309-5.96-2.359-5.96-4.834,0-.307-.395-.556-.882-.556s-.882.249-.882.556c0,3.095,3.391,5.648,7.723,5.956V17.71c0,.307.395.556.882.556s.882-.249.882-.556V13.381C96.984,13.073,100.375,10.519,100.375,7.425ZM90.883,1.113h1.775c1.458,0,2.645.749,2.645,1.669v.643H88.238V2.782C88.238,1.862,89.425,1.113,90.883,1.113ZM88.238,8.269V4.538H95.3V8.269c0,.92-1.187,1.669-2.645,1.669H90.883C89.425,9.939,88.238,9.19,88.238,8.269Z" transform="translate(-83.166)" fill="#51b100"/>
    </g>
    <g id="volume-control" transform="translate(187.008 283.734)">
      <g id="Group_82" data-name="Group 82" transform="translate(0)">
        <path id="Path_175" data-name="Path 175" d="M17.127.073a.643.643,0,0,0-.685.058L9.275,5.522a.645.645,0,0,0-.426-.161H6.4a.666.666,0,0,0-.657.674v6.2a.666.666,0,0,0,.657.674H8.849a.645.645,0,0,0,.426-.161l7.167,5.391a.643.643,0,0,0,.685.058.676.676,0,0,0,.36-.6V.674A.676.676,0,0,0,17.127.073ZM8.192,11.558H7.057V6.708H8.192Zm1.314-.311V7.019L16.174,2V16.263Z" transform="translate(-5.743 0)" fill="#51b100"/>
        <path id="Path_176" data-name="Path 176" d="M265.432,72.094a.646.646,0,0,0-.916.157.685.685,0,0,0,.153.94,5.025,5.025,0,0,1,0,8.065.685.685,0,0,0-.153.94.651.651,0,0,0,.535.282.643.643,0,0,0,.381-.125,6.393,6.393,0,0,0,0-10.258Z" transform="translate(-250.8 -68.09)" fill="#51b100"/>
      </g>
    </g>
    <g id="wallet-with-zipper" transform="translate(216.837 283.734)">
      <path id="Path_177" data-name="Path 177" d="M17.209,10.09s.063-3.336-1.613-5.207a3.96,3.96,0,0,0-3.079-1.332H2.189A2.287,2.287,0,0,0,0,5.92V18.7a3.012,3.012,0,0,0,2.884,3.12H14.325a3.012,3.012,0,0,0,2.884-3.12ZM2.189,4.8H12.518a2.852,2.852,0,0,1,2.247.949A4.552,4.552,0,0,1,15.658,7.4a2.448,2.448,0,0,0-1.332-.354H2.189A1.082,1.082,0,0,1,1.153,5.92,1.082,1.082,0,0,1,2.189,4.8Zm13.866,9.322H15.032a.626.626,0,0,0,0,1.248h1.023v1.288H14.741a1.807,1.807,0,0,1-1.73-1.872v-.08a1.807,1.807,0,0,1,1.73-1.872h1.315Zm0-2.536H14.741a3.012,3.012,0,0,0-2.884,3.12v.08a3.012,3.012,0,0,0,2.884,3.12h1.315V18.7a1.807,1.807,0,0,1-1.73,1.872H2.884A1.807,1.807,0,0,1,1.153,18.7V8.006a2.047,2.047,0,0,0,1.036.283H14.325a1.807,1.807,0,0,1,1.73,1.872Z" transform="translate(0 -3.551)" fill="#51b100"/>
    </g>
    <g id="weighing-scale" transform="translate(247.814 283.734)">
      <g id="Group_83" data-name="Group 83">
        <path id="Path_178" data-name="Path 178" d="M5.3,182.517H.537a.64.64,0,0,0-.537.707c0,2.12,1.309,3.844,2.917,3.844s2.917-1.724,2.917-3.844A.64.64,0,0,0,5.3,182.517Zm-2.38,3.137a1.993,1.993,0,0,1-1.764-1.722H4.681A1.993,1.993,0,0,1,2.917,185.654Z" transform="translate(0 -174.394)" fill="#51b100"/>
        <path id="Path_179" data-name="Path 179" d="M270.177,182.517h-4.76a.64.64,0,0,0-.537.707c0,2.12,1.309,3.844,2.917,3.844s2.917-1.724,2.917-3.844A.64.64,0,0,0,270.177,182.517Zm-2.38,3.137a1.993,1.993,0,0,1-1.764-1.722h3.527A1.993,1.993,0,0,1,267.8,185.654Z" transform="translate(-253.505 -174.394)" fill="#51b100"/>
        <path id="Path_180" data-name="Path 180" d="M40.081,55.829H38.846V41.981a14.715,14.715,0,0,0,1.6-.39,13.375,13.375,0,0,1,1.914-.445c.724-.085.96.074,1.027.146a.293.293,0,0,1,.071.194l-1.02,4.477a.764.764,0,0,0,.36.881c.284.112.583-.1.668-.474L44,44.026l.534,2.345a.579.579,0,0,0,.514.5.42.42,0,0,0,.155-.03.764.764,0,0,0,.36-.881l-1.03-4.523a1.91,1.91,0,0,0-.47-1.248c-.792-.844-2.273-.427-3.841.015-.495.139-.971.273-1.371.347v-.87a.557.557,0,1,0-1.074,0v.87c-.4-.074-.877-.208-1.371-.347-1.568-.442-3.049-.859-3.841-.015a1.91,1.91,0,0,0-.47,1.248l-1.03,4.523a.764.764,0,0,0,.36.881c.284.112.583-.1.668-.474l.534-2.345.534,2.345a.579.579,0,0,0,.514.5.419.419,0,0,0,.155-.03.764.764,0,0,0,.36-.881l-1.02-4.477a.294.294,0,0,1,.071-.194c.068-.072.3-.231,1.027-.146a13.382,13.382,0,0,1,1.914.445,14.715,14.715,0,0,0,1.6.39V55.829H36.538a.734.734,0,0,0,0,1.415h3.543a.734.734,0,0,0,0-1.415Z" transform="translate(-29.705 -38.978)" fill="#51b100"/>
      </g>
    </g>
    <g id="wrench" transform="translate(278.791 283.734)">
      <g id="Group_84" data-name="Group 84" transform="translate(0)">
        <path id="Path_181" data-name="Path 181" d="M16.827,4.27a.594.594,0,0,0-.428-.36.565.565,0,0,0-.522.171L13.709,6.372a1.667,1.667,0,0,1-2.457,0,1.926,1.926,0,0,1,0-2.608l2.165-2.292a.648.648,0,0,0,.163-.555.618.618,0,0,0-.34-.456A4.332,4.332,0,0,0,11.41.053,4.144,4.144,0,0,0,8.364,1.367l-.714.758A4.8,4.8,0,0,0,6.678,7.07L.811,13.3a3.071,3.071,0,0,0,0,4.159,2.658,2.658,0,0,0,3.918,0L10.6,11.229a4.147,4.147,0,0,0,1.587.318,4.19,4.19,0,0,0,3.071-1.35l.713-.757A4.888,4.888,0,0,0,16.827,4.27ZM12.183,10.3a3.019,3.019,0,0,1-1.456-.373.586.586,0,0,0-.729.164L3.9,16.576a1.532,1.532,0,0,1-2.258,0,1.77,1.77,0,0,1,0-2.4L7.748,7.7A.669.669,0,0,0,7.9,6.929,3.5,3.5,0,0,1,8.48,3.006l.714-.758A3.012,3.012,0,0,1,11.41,1.3a3.174,3.174,0,0,1,.474.036L10.422,2.883a3.227,3.227,0,0,0,0,4.371,2.793,2.793,0,0,0,4.116,0L16,5.7a3.5,3.5,0,0,1-.867,2.853l-.713.758A3.058,3.058,0,0,1,12.183,10.3Z" transform="translate(0 -0.053)" fill="#51b100"/>
        <path id="Path_182" data-name="Path 182" d="M43.31,285.078a.883.883,0,0,0-.647.285,1.015,1.015,0,0,0,0,1.375.879.879,0,0,0,1.295,0,1.015,1.015,0,0,0,0-1.375A.883.883,0,0,0,43.31,285.078Z" transform="translate(-40.403 -270.869)" fill="#51b100"/>
      </g>
    </g>
  </g>
</svg>
